STARTFONT 2.1
COMMENT 
COMMENT Converted from OpenType font "antonio.bold.ttf" by "otf2bdf 3.0".
COMMENT 
FONT -FreeType-Antonio-Bold-R-Normal--37-270-100-100-P-145-ISO10646-1
SIZE 20 100 100
FONTBOUNDINGBOX 18 32 0 0
STARTPROPERTIES 20
FOUNDRY "FreeType"
FAMILY_NAME "Antonio"
WEIGHT_NAME "Bold"
SLANT "R"
SETWIDTH_NAME "Normal"
ADD_STYLE_NAME ""
PIXEL_SIZE 37
POINT_SIZE 270
RESOLUTION_X 100
RESOLUTION_Y 100
SPACING "P"
AVERAGE_WIDTH 145
CHARSET_REGISTRY "ISO10646"
CHARSET_ENCODING "1"
FONT_ASCENT 43
FONT_DESCENT 11
COPYRIGHT "Copyright (c) 2011-12, vernon adams (vern@newtypography.co.uk), with Reserved Font Names 'Antonio'"
_OTF_FONTFILE "antonio.bold.ttf"
_OTF_PSNAME "Antonio-Bold"
_GBDFED_INFO "Edited with gbdfed 1.6."
ENDPROPERTIES
CHARS 430
STARTCHAR 0020
ENCODING 32
SWIDTH 252 0
DWIDTH 11 0
BBX 0 0 0 0
BITMAP
ENDCHAR
STARTCHAR 0021
ENCODING 33
SWIDTH 360 0
DWIDTH 18 0
BBX 5 32 2 0
BITMAP
F8
F8
F8
F8
F8
78
78
78
78
78
78
78
78
78
78
70
70
70
70
70
70
30
30
30
30
00
00
F8
F8
F8
F8
F8
ENDCHAR
STARTCHAR 0022
ENCODING 34
SWIDTH 648 0
DWIDTH 18 0
BBX 11 12 3 20
BITMAP
F9E0
F9E0
F1E0
71E0
71E0
70E0
70E0
70E0
70E0
70E0
70C0
70C0
ENDCHAR
STARTCHAR 0023
ENCODING 35
SWIDTH 864 0
DWIDTH 24 0
BBX 18 32 3 0
BITMAP
03C3C0
03C7C0
03C780
03C780
078780
078780
078F00
078F00
078F00
0F0F00
7FFFC0
7FFFC0
7FFFC0
1E1E00
1E1E00
1E1E00
1E3C00
1E3C00
FFFF80
FFFF80
FFFF80
3C7800
3C7800
787800
787800
787800
78F000
78F000
F8F000
F0F000
F0F000
F1E000
ENDCHAR
STARTCHAR 0024
ENCODING 36
SWIDTH 612 0
DWIDTH 17 0
BBX 13 36 2 -4
BITMAP
0700
0700
0700
0700
1F80
7FE0
FFE0
FFF0
F9F0
F0F0
F0F0
F0F0
F8F0
F800
FC00
7E00
3F00
1F80
0FC0
07E0
03F0
01F0
F1F0
F0F8
F0F8
F0F8
F0F8
F9F8
FFF0
7FF0
7FE0
1FC0
0300
0300
0300
0300
ENDCHAR
STARTCHAR 0025
ENCODING 37
SWIDTH 1476 0
DWIDTH 41 0
BBX 37 32 2 0
BITMAP
0FC001E000
3FE003C000
7FF003C000
7FF0038000
78F8078000
F878078000
F8780F0000
F8780F0000
F8780E0000
F8781E0000
F8781E1F80
F8783C3FE0
F8783C7FF0
F878387FF0
F87878F8F0
787878F0F0
78F8F0F0F8
7FF0F0F0F8
7FF0F0F0F8
3FE1E0F0F8
0FC1E0F0F8
0003C0F0F8
0003C0F0F8
0003C0F0F8
000780F0F8
000780F0F8
000F00F0F0
000F00F8F0
000F007FF0
001E007FF0
001E003FE0
003C001F80
ENDCHAR
STARTCHAR 0026
ENCODING 38
SWIDTH 720 0
DWIDTH 20 0
BBX 18 32 1 0
BITMAP
03F000
07F800
0FFC00
1FFC00
1F1E00
1F1E00
1E1E00
1E1E00
1F1C00
1F3C00
0F3C00
0FF800
0FF800
07F000
07E000
07E000
07E000
0FE180
1FF1C0
3FF3C0
3CF7C0
7CFF80
787F00
787F00
F87E00
F83E00
F87E00
7C7F00
7FFF00
7FFF00
3FEF80
0F87C0
ENDCHAR
STARTCHAR 0027
ENCODING 39
SWIDTH 288 0
DWIDTH 8 0
BBX 4 12 2 20
BITMAP
F0
F0
F0
F0
F0
F0
F0
70
60
60
60
60
ENDCHAR
STARTCHAR 0028
ENCODING 40
SWIDTH 396 0
DWIDTH 11 0
BBX 8 36 2 -3
BITMAP
0F
3F
7F
7F
7C
7C
F8
F8
F8
F8
F8
F8
F8
F8
F8
F8
F8
F8
F8
F8
F8
F8
F8
F8
F8
F8
F8
F8
F8
F8
7C
7C
7F
7F
3F
0F
ENDCHAR
STARTCHAR 0029
ENCODING 41
SWIDTH 396 0
DWIDTH 11 0
BBX 7 36 2 -3
BITMAP
F0
F8
FC
FE
7E
3E
3E
3E
3E
3E
3E
3E
3E
3E
3E
3E
3E
3E
3E
3E
3E
3E
3E
3E
3E
3E
3E
3E
3E
3E
3E
7E
FE
FC
F8
E0
ENDCHAR
STARTCHAR 002A
ENCODING 42
SWIDTH 648 0
DWIDTH 18 0
BBX 14 14 2 16
BITMAP
0780
0780
4708
6338
FB7C
7FF8
1FE0
0FC0
7FF0
FB7C
7338
4718
0700
0780
ENDCHAR
STARTCHAR 002B
ENCODING 43
SWIDTH 540 0
DWIDTH 15 0
BBX 11 12 2 8
BITMAP
0E00
0E00
0E00
0E00
0E00
FFE0
FFE0
FFE0
0E00
0E00
0E00
0E00
ENDCHAR
STARTCHAR 002C
ENCODING 44
SWIDTH 324 0
DWIDTH 9 0
BBX 6 11 2 -6
BITMAP
FC
FC
FC
FC
FC
38
38
38
30
70
70
ENDCHAR
STARTCHAR 002D
ENCODING 45
SWIDTH 468 0
DWIDTH 13 0
BBX 9 3 2 12
BITMAP
FF80
FF80
FF80
ENDCHAR
STARTCHAR 002E
ENCODING 46
SWIDTH 360 0
DWIDTH 10 0
BBX 4 4 3 0
BITMAP
F0
F0
F0
F0
ENDCHAR
STARTCHAR 002F
ENCODING 47
SWIDTH 540 0
DWIDTH 15 0
BBX 12 33 2 0
BITMAP
01F0
01F0
01E0
01E0
03E0
03E0
03C0
03C0
07C0
07C0
0780
0780
0780
0F80
0F00
0F00
0F00
1F00
1E00
1E00
1E00
3E00
3C00
3C00
3C00
7C00
7C00
7800
7800
F800
F800
F000
F000
ENDCHAR
STARTCHAR 0030
ENCODING 48
SWIDTH 756 0
DWIDTH 16 0
BBX 14 32 1 0
BITMAP
0780
1FE0
3FF0
7FF8
7CF8
7878
F87C
F87C
F87C
F87C
F87C
F87C
F87C
F87C
F87C
F87C
F87C
F87C
F87C
F87C
F87C
F87C
F87C
F87C
F87C
F87C
7878
7CF8
7FF8
3FF0
1FE0
0780
ENDCHAR
STARTCHAR 0031
ENCODING 49
SWIDTH 468 0
DWIDTH 11 0
BBX 9 32 1 0
BITMAP
0780
0F80
1F80
3F80
FF80
FF80
FF80
FF80
0F80
0F80
0F80
0F80
0F80
0F80
0F80
0F80
0F80
0F80
0F80
0F80
0F80
0F80
0F80
0F80
0F80
0F80
0F80
0F80
0F80
0F80
0F80
0F80
ENDCHAR
STARTCHAR 0032
ENCODING 50
SWIDTH 576 0
DWIDTH 16 0
BBX 14 32 1 0
BITMAP
0FC0
3FF0
7FF8
7FF8
FCFC
F87C
F87C
F87C
F87C
007C
007C
007C
00F8
00F8
01F8
01F0
03F0
03E0
07E0
07C0
0F80
1F80
1F00
3F00
3E00
7E00
7C00
FC00
FFFC
FFFC
FFFC
FFFC
ENDCHAR
STARTCHAR 0033
ENCODING 51
SWIDTH 576 0
DWIDTH 16 0
BBX 14 32 1 0
BITMAP
0FC0
3FF0
7FF8
7FF8
FCFC
F87C
F87C
F87C
F87C
007C
007C
007C
00F8
07F8
07E0
07F0
07F8
00F8
007C
007C
007C
007C
F87C
F87C
F87C
F87C
F87C
FCF8
7FF8
7FF0
3FF0
0FC0
ENDCHAR
STARTCHAR 0034
ENCODING 52
SWIDTH 576 0
DWIDTH 16 0
BBX 14 32 1 0
BITMAP
01F0
03F0
03F0
03F0
07F0
07F0
07F0
0FF0
0FF0
0FF0
1FF0
1EF0
1EF0
1EF0
3EF0
3CF0
3CF0
78F0
78F0
78F0
F8F0
F0F0
FFFC
FFFC
FFFC
FFFC
00F0
00F0
00F0
00F0
00F0
00F0
ENDCHAR
STARTCHAR 0035
ENCODING 53
SWIDTH 576 0
DWIDTH 16 0
BBX 14 32 1 0
BITMAP
FFF8
FFF8
FFF8
FFF8
F800
F800
F800
F800
F800
FBC0
FFF0
FFF0
FFF8
FCF8
F87C
F87C
007C
007C
007C
007C
007C
F87C
F87C
F87C
F87C
F87C
F87C
FCF8
7FF8
7FF0
3FE0
0FC0
ENDCHAR
STARTCHAR 0036
ENCODING 54
SWIDTH 576 0
DWIDTH 16 0
BBX 14 32 1 0
BITMAP
0FC0
3FF0
7FF8
7FF8
FCFC
F87C
F87C
F87C
F800
F800
F800
FBC0
FFF0
FFF8
FFF8
FCFC
F87C
F87C
F87C
F87C
F87C
F87C
F87C
F87C
F87C
F87C
F87C
FCFC
7FF8
7FF8
3FF0
0FC0
ENDCHAR
STARTCHAR 0037
ENCODING 55
SWIDTH 576 0
DWIDTH 16 0
BBX 14 32 1 0
BITMAP
FFFC
FFFC
FFFC
FFFC
007C
007C
00F8
00F8
00F8
01F0
01F0
01F0
03E0
03E0
03E0
07C0
07C0
07C0
0F80
0F80
0F80
1F80
1F00
1F00
1F00
3F00
3F00
3E00
3E00
3E00
3E00
3E00
ENDCHAR
STARTCHAR 0038
ENCODING 56
SWIDTH 576 0
DWIDTH 16 0
BBX 14 32 1 0
BITMAP
0FC0
3FF0
7FF8
FFFC
FCFC
F87C
F87C
F87C
F87C
F87C
F87C
F87C
7CF8
3FF0
3FF0
7FF0
7CF8
F87C
F87C
F87C
F87C
F87C
F87C
F87C
F87C
F87C
F87C
FCFC
7FF8
7FF8
3FF0
0FC0
ENDCHAR
STARTCHAR 0039
ENCODING 57
SWIDTH 648 0
DWIDTH 16 0
BBX 14 32 1 0
BITMAP
0FC0
3FF0
7FF8
7FF8
FCFC
F87C
F87C
F87C
F87C
F87C
F87C
F87C
F87C
F87C
7CFC
7FFC
7FFC
3FFC
0FFC
007C
007C
007C
007C
F87C
F87C
F87C
F87C
FCFC
7FF8
7FF8
3FF0
0FC0
ENDCHAR
STARTCHAR 003A
ENCODING 58
SWIDTH 432 0
DWIDTH 9 0
BBX 5 18 2 6
BITMAP
F8
F8
F8
F8
F8
00
00
00
00
00
00
00
00
F8
F8
F8
F8
F8
ENDCHAR
STARTCHAR 003B
ENCODING 59
SWIDTH 360 0
DWIDTH 10 0
BBX 6 25 2 -1
BITMAP
FC
FC
FC
FC
FC
FC
00
00
00
00
00
00
00
00
FC
FC
FC
FC
FC
1C
1C
38
38
38
30
ENDCHAR
STARTCHAR 003C
ENCODING 60
SWIDTH 504 0
DWIDTH 14 0
BBX 11 19 1 4
BITMAP
0060
00E0
03E0
07E0
1FE0
7F80
FF00
FC00
F000
F000
FC00
FF00
7F80
1FE0
0FE0
03E0
00E0
0060
0020
ENDCHAR
STARTCHAR 003D
ENCODING 61
SWIDTH 468 0
DWIDTH 13 0
BBX 9 10 2 10
BITMAP
FF80
FF80
FF80
FF80
0000
0000
FF80
FF80
FF80
FF80
ENDCHAR
STARTCHAR 003E
ENCODING 62
SWIDTH 504 0
DWIDTH 14 0
BBX 10 19 2 4
BITMAP
8000
E000
F000
FC00
FE00
7F80
1FC0
0FC0
03C0
03C0
07C0
1FC0
7F80
FF00
FC00
F800
E000
8000
8000
ENDCHAR
STARTCHAR 003F
ENCODING 63
SWIDTH 612 0
DWIDTH 17 0
BBX 13 32 2 0
BITMAP
0FC0
3FE0
7FF0
7FF8
FCF8
F8F8
F8F8
F8F8
F8F8
F8F8
F8F8
00F8
00F8
00F8
01F0
03F0
0FF0
1FE0
1F80
1E00
1E00
1E00
1E00
0000
0000
0000
1E00
1E00
1E00
1E00
1E00
1E00
ENDCHAR
STARTCHAR 0040
ENCODING 64
SWIDTH 1008 0
DWIDTH 28 0
BBX 24 34 2 -2
BITMAP
007F00
01FFE0
07FFF0
0FC0F8
1F0078
3E003C
3C001C
78000E
78000E
7879CE
70FDCF
F0FFC7
F1FFC7
F1E3C7
F1C3C7
E3C3C7
E3C3C7
E383C7
E383C7
E3C3CF
F3C3CE
F1C7CE
F1FFFE
F1FCFC
70FC78
707800
780000
780000
3C0000
1E0000
1F8100
0FFE00
03FF00
00FF00
ENDCHAR
STARTCHAR 0041
ENCODING 65
SWIDTH 648 0
DWIDTH 18 0
BBX 16 32 1 0
BITMAP
07E0
0FE0
0FF0
0FF0
0FF0
0FF0
0FF0
0FF0
1FF8
1FF8
1E78
1E78
1E78
1E78
1E78
3E7C
3E7C
3E3C
3C3C
3C3C
3C3C
7C3E
7FFE
7FFE
7FFE
7FFE
781E
781E
F81F
F81F
F81F
F81F
ENDCHAR
STARTCHAR 0042
ENCODING 66
SWIDTH 648 0
DWIDTH 18 0
BBX 14 32 3 0
BITMAP
FFC0
FFF0
FFF0
FFF8
F8F8
F8F8
F8F8
F878
F878
F8F8
F8F8
F8F8
F8F8
FFF0
FFE0
FFF0
FFF8
F8F8
F87C
F87C
F87C
F87C
F87C
F87C
F87C
F87C
F87C
F8FC
FFF8
FFF8
FFF0
FFC0
ENDCHAR
STARTCHAR 0043
ENCODING 67
SWIDTH 648 0
DWIDTH 18 0
BBX 14 32 2 0
BITMAP
0FC0
1FF0
3FF8
7FF8
7C7C
F87C
F87C
F87C
F87C
F87C
F87C
F87C
F87C
F800
F800
F800
F800
F800
F800
F87C
F87C
F87C
F87C
F87C
F87C
F87C
F87C
7C7C
7FF8
3FF8
1FF0
0FC0
ENDCHAR
STARTCHAR 0044
ENCODING 68
SWIDTH 684 0
DWIDTH 19 0
BBX 15 32 2 0
BITMAP
FFE0
FFF0
FFF8
FFFC
F87C
F87C
F87E
F83E
F83E
F83E
F83E
F83E
F83E
F83E
F83E
F83E
F83E
F83E
F83E
F83E
F83E
F83E
F83E
F83E
F83E
F83C
F87C
F87C
FFFC
FFF8
FFF0
FFE0
ENDCHAR
STARTCHAR 0045
ENCODING 69
SWIDTH 540 0
DWIDTH 15 0
BBX 12 32 2 0
BITMAP
FFE0
FFE0
FFE0
FFE0
F800
F800
F800
F800
F800
F800
F800
F800
F800
FFE0
FFE0
FFE0
FFE0
F800
F800
F800
F800
F800
F800
F800
F800
F800
F800
F800
FFF0
FFF0
FFF0
FFF0
ENDCHAR
STARTCHAR 0046
ENCODING 70
SWIDTH 540 0
DWIDTH 15 0
BBX 12 32 2 0
BITMAP
FFF0
FFF0
FFF0
FFF0
F800
F800
F800
F800
F800
F800
F800
F800
F800
FFE0
FFE0
FFE0
FFE0
F800
F800
F800
F800
F800
F800
F800
F800
F800
F800
F800
F800
F800
F800
F800
ENDCHAR
STARTCHAR 0047
ENCODING 71
SWIDTH 684 0
DWIDTH 19 0
BBX 14 32 2 0
BITMAP
0FE0
1FF0
3FF8
7FFC
7C7C
F87C
F83C
F83C
F83C
F83C
F83C
F800
F800
F800
F9FC
F9FC
F9FC
F9FC
F83C
F83C
F83C
F83C
F83C
F83C
F83C
F83C
F87C
7C7C
7FFC
3FEC
1FCC
0F8C
ENDCHAR
STARTCHAR 0048
ENCODING 72
SWIDTH 684 0
DWIDTH 19 0
BBX 15 32 2 0
BITMAP
F83E
F83E
F83E
F83E
F83E
F83E
F83E
F83E
F83E
F83E
F83E
F83E
F83E
FFFE
FFFE
FFFE
FFFE
F83E
F83E
F83E
F83E
F83E
F83E
F83E
F83E
F83E
F83E
F83E
F83E
F83E
F83E
F83E
ENDCHAR
STARTCHAR 0049
ENCODING 73
SWIDTH 360 0
DWIDTH 10 0
BBX 5 32 3 0
BITMAP
F8
F8
F8
F8
F8
F8
F8
F8
F8
F8
F8
F8
F8
F8
F8
F8
F8
F8
F8
F8
F8
F8
F8
F8
F8
F8
F8
F8
F8
F8
F8
F8
ENDCHAR
STARTCHAR 004A
ENCODING 74
SWIDTH 612 0
DWIDTH 17 0
BBX 14 32 1 0
BITMAP
007C
007C
007C
007C
007C
007C
007C
007C
007C
007C
007C
007C
007C
007C
007C
007C
007C
007C
007C
F87C
F87C
F87C
F87C
F87C
F87C
F87C
F878
7CF8
7FF8
7FF0
3FE0
0FC0
ENDCHAR
STARTCHAR 004B
ENCODING 75
SWIDTH 648 0
DWIDTH 18 0
BBX 16 32 2 0
BITMAP
F83F
F83E
F83E
F87C
F87C
F87C
F8F8
F8F8
F8F8
F9F0
F9F0
FBF0
FBE0
FBE0
FFE0
FFC0
FFC0
FBE0
FBE0
FBE0
F9F0
F9F0
F9F8
F8F8
F8F8
F8FC
F87C
F87C
F87E
F83E
F83E
F81F
ENDCHAR
STARTCHAR 004C
ENCODING 76
SWIDTH 504 0
DWIDTH 14 0
BBX 12 32 2 0
BITMAP
F800
F800
F800
F800
F800
F800
F800
F800
F800
F800
F800
F800
F800
F800
F800
F800
F800
F800
F800
F800
F800
F800
F800
F800
F800
F800
F800
F800
FFF0
FFF0
FFF0
FFF0
ENDCHAR
STARTCHAR 004D
ENCODING 77
SWIDTH 936 0
DWIDTH 26 0
BBX 22 32 2 0
BITMAP
FE00FC
FE01FC
FE01FC
FE01FC
FF01FC
FF01FC
FF03FC
FF03FC
FF03FC
FF83FC
FF83BC
FF87BC
FF87BC
FB87BC
FB87FC
FBC77C
FBC77C
FBCF7C
F9CF7C
F9CF7C
F9EE7C
F9EE7C
F9FE7C
F8FE7C
F8FE7C
F8FC7C
F8FC7C
F8FC7C
F87C7C
F87C7C
F87C7C
F8787C
ENDCHAR
STARTCHAR 004E
ENCODING 78
SWIDTH 720 0
DWIDTH 20 0
BBX 15 32 2 0
BITMAP
F81E
F81E
F81E
FC1E
FC1E
FC1E
FE1E
FE1E
FE1E
FF1E
FF1E
FF1E
FF9E
FF9E
FBDE
FBDE
FBDE
F9FE
F9FE
F9FE
F8FE
F8FE
F8FE
F87E
F87E
F83E
F83E
F83E
F81E
F81E
F81E
F80E
ENDCHAR
STARTCHAR 004F
ENCODING 79
SWIDTH 684 0
DWIDTH 19 0
BBX 14 32 2 0
BITMAP
0FC0
1FF0
3FF8
7FFC
7C7C
F87C
F87C
F87C
F87C
F87C
F87C
F87C
F87C
F87C
F87C
F87C
F87C
F87C
F87C
F87C
F87C
F87C
F87C
F87C
F87C
F87C
F87C
7C7C
7FFC
3FF8
1FF0
0FC0
ENDCHAR
STARTCHAR 0050
ENCODING 80
SWIDTH 648 0
DWIDTH 18 0
BBX 15 32 2 0
BITMAP
FFE0
FFF8
FFF8
FFFC
F87C
F87C
F87C
F83E
F83E
F83E
F83E
F83E
F87C
F87C
F87C
FFFC
FFF8
FFF8
FFE0
F800
F800
F800
F800
F800
F800
F800
F800
F800
F800
F800
F800
F800
ENDCHAR
STARTCHAR 0051
ENCODING 81
SWIDTH 684 0
DWIDTH 19 0
BBX 14 37 2 -5
BITMAP
0FC0
1FF0
3FF8
7FFC
7C7C
F87C
F87C
F87C
F87C
F87C
F87C
F87C
F87C
F87C
F87C
F87C
F87C
F87C
F87C
F87C
F87C
F87C
F87C
F87C
F87C
F87C
F87C
7C7C
7FFC
7FF8
3FF0
0FE0
01F0
00F0
007C
0038
0010
ENDCHAR
STARTCHAR 0052
ENCODING 82
SWIDTH 684 0
DWIDTH 19 0
BBX 15 32 2 0
BITMAP
FFF0
FFF8
FFFC
FFFC
F87C
F87C
F83C
F83E
F83E
F83E
F83C
F87C
F87C
FFFC
FFF8
FFF8
FFFC
F87C
F87C
F83C
F83C
F83E
F83E
F83E
F83E
F83E
F83E
F83E
F83E
F83E
F83E
F83E
ENDCHAR
STARTCHAR 0053
ENCODING 83
SWIDTH 612 0
DWIDTH 17 0
BBX 14 32 2 0
BITMAP
1FC0
3FE0
7FF0
FFF0
F8F8
F8F8
F078
F078
F878
F878
FC00
7E00
7F00
3F80
3FC0
1FC0
0FE0
07F0
03F0
01F8
F8F8
F8F8
F87C
F87C
F87C
F87C
F878
F8F8
7FF8
7FF0
3FF0
0FC0
ENDCHAR
STARTCHAR 0054
ENCODING 84
SWIDTH 468 0
DWIDTH 13 0
BBX 13 32 0 0
BITMAP
FFF8
FFF8
FFF8
FFF8
0F80
0F80
0F80
0F80
0F80
0F80
0F80
0F80
0F80
0F80
0F80
0F80
0F80
0F80
0F80
0F80
0F80
0F80
0F80
0F80
0F80
0F80
0F80
0F80
0F80
0F80
0F80
0F80
ENDCHAR
STARTCHAR 0055
ENCODING 85
SWIDTH 684 0
DWIDTH 19 0
BBX 15 32 2 0
BITMAP
F83E
F83E
F83E
F83E
F83E
F83E
F83E
F83E
F83E
F83E
F83E
F83E
F83E
F83E
F83E
F83E
F83E
F83E
F83E
F83E
F83E
F83E
F83E
F83E
F83E
F83E
787C
7C7C
7FFC
3FF8
1FF0
0FE0
ENDCHAR
STARTCHAR 0056
ENCODING 86
SWIDTH 648 0
DWIDTH 18 0
BBX 16 32 1 0
BITMAP
F81F
F81F
F81F
781E
781E
7C1E
7C3E
7C3E
7C3E
3C3E
3C3C
3C3C
3E3C
3E3C
3E7C
3E7C
1E7C
1E78
1E78
1F78
1F78
1F78
0F78
0FF0
0FF0
0FF0
0FF0
0FF0
07F0
07F0
07E0
07E0
ENDCHAR
STARTCHAR 0057
ENCODING 87
SWIDTH 936 0
DWIDTH 26 0
BBX 24 32 1 0
BITMAP
F83C1F
F83C1E
F83C1E
783C1E
787E1E
787E1E
787E1E
787E3E
787E3E
7C7E3E
7C7E3C
3CFF3C
3CFF3C
3CFF3C
3CF73C
3CE73C
3CE73C
3CE73C
3CE778
1FE7F8
1FE7F8
1FE3F8
1FC3F8
1FC3F8
1FC3F8
1FC3F8
1FC3F8
0FC3F0
0FC3F0
0F81F0
0F81F0
0F81F0
ENDCHAR
STARTCHAR 0058
ENCODING 88
SWIDTH 576 0
DWIDTH 16 0
BBX 15 32 1 0
BITMAP
F03C
F07C
787C
7878
78F8
3CF8
3CF0
3CF0
1FF0
1FF0
1FE0
0FE0
0FE0
0FC0
07C0
0FC0
0F80
0FC0
0FC0
1FE0
1FE0
1FE0
3FF0
3EF0
3EF0
3CF8
7C78
7C78
787C
F83C
F83C
F83E
ENDCHAR
STARTCHAR 0059
ENCODING 89
SWIDTH 576 0
DWIDTH 16 0
BBX 16 32 0 0
BITMAP
F81F
781E
7C3E
7C3E
7C3E
3C3C
3E3C
3E7C
1E7C
1E78
1F78
1FF8
0FF0
0FF0
0FF0
07F0
07E0
07E0
07E0
03E0
03E0
03E0
03E0
03E0
03E0
03E0
03E0
03E0
03E0
03E0
03E0
03E0
ENDCHAR
STARTCHAR 005A
ENCODING 90
SWIDTH 540 0
DWIDTH 15 0
BBX 12 32 2 0
BITMAP
FFF0
FFF0
FFF0
FFF0
03F0
03E0
03E0
03E0
07C0
07C0
07C0
0FC0
0F80
0F80
0F80
1F80
1F00
1F00
3F00
3E00
3E00
3E00
7E00
7C00
7C00
FC00
F800
F800
FFF0
FFF0
FFF0
FFF0
ENDCHAR
STARTCHAR 005B
ENCODING 91
SWIDTH 504 0
DWIDTH 14 0
BBX 9 32 3 0
BITMAP
FF80
FF80
FF80
FF80
F800
F800
F800
F800
F800
F800
F800
F800
F800
F800
F800
F800
F800
F800
F800
F800
F800
F800
F800
F800
F800
F800
F800
F800
FF80
FF80
FF80
FF80
ENDCHAR
STARTCHAR 005C
ENCODING 92
SWIDTH 576 0
DWIDTH 16 0
BBX 12 32 2 0
BITMAP
F000
F800
F800
7800
7800
7C00
7C00
3C00
3C00
3C00
3E00
1E00
1E00
1E00
1F00
1F00
0F00
0F00
0F80
0F80
0780
0780
07C0
07C0
03C0
03C0
03E0
03E0
01E0
01E0
01E0
01F0
ENDCHAR
STARTCHAR 005D
ENCODING 93
SWIDTH 504 0
DWIDTH 14 0
BBX 8 32 3 0
BITMAP
FF
FF
FF
FF
1F
1F
1F
1F
1F
1F
1F
1F
1F
1F
1F
1F
1F
1F
1F
1F
1F
1F
1F
1F
1F
1F
1F
1F
FF
FF
FF
FF
ENDCHAR
STARTCHAR 005E
ENCODING 94
SWIDTH 684 0
DWIDTH 19 0
BBX 15 17 2 11
BITMAP
0FE0
0FE0
0FE0
0FE0
1EF0
1EF0
1EF0
1EF0
3EF8
3C78
3C78
3C7C
7C7C
7C3C
783C
F83E
F83E
ENDCHAR
STARTCHAR 005F
ENCODING 95
SWIDTH 504 0
DWIDTH 14 0
BBX 12 4 1 -4
BITMAP
FFF0
FFF0
FFF0
FFF0
ENDCHAR
STARTCHAR 0060
ENCODING 96
SWIDTH 432 0
DWIDTH 12 0
BBX 8 7 2 17
BITMAP
80
C0
F0
FC
FF
FF
07
ENDCHAR
STARTCHAR 0061
ENCODING 97
SWIDTH 648 0
DWIDTH 18 0
BBX 14 28 2 0
BITMAP
0FC0
3FF0
3FF8
7FF8
7CFC
787C
F87C
F87C
F87C
007C
00FC
03FC
0FFC
3F7C
7C7C
787C
F87C
F87C
F87C
F87C
F87C
F87C
F87C
FCFC
FFFC
7FFC
7F7C
1E7C
ENDCHAR
STARTCHAR 0062
ENCODING 98
SWIDTH 648 0
DWIDTH 18 0
BBX 14 33 2 0
BITMAP
F800
F800
F800
F800
F800
F9E0
FBF8
FFF8
FFFC
FC7C
FC7C
F87C
F87C
F87C
F87C
F87C
F87C
F87C
F87C
F87C
F87C
F87C
F87C
F87C
F87C
F87C
F87C
FC7C
FC7C
FFFC
FFF8
FBF8
F9E0
ENDCHAR
STARTCHAR 0063
ENCODING 99
SWIDTH 648 0
DWIDTH 18 0
BBX 14 28 2 0
BITMAP
0FC0
3FF0
7FF0
7FF8
7CF8
F87C
F87C
F87C
F87C
F87C
F87C
F800
F800
F800
F800
F800
F800
F87C
F87C
F87C
F87C
F87C
F878
7CF8
7FF8
7FF0
3FF0
0FC0
ENDCHAR
STARTCHAR 0064
ENCODING 100
SWIDTH 684 0
DWIDTH 19 0
BBX 14 33 2 0
BITMAP
007C
007C
007C
007C
007C
1F7C
3FFC
7FFC
7FFC
FCFC
F87C
F87C
F87C
F87C
F87C
F87C
F87C
F87C
F87C
F87C
F87C
F87C
F87C
F87C
F87C
F87C
F87C
F87C
FCFC
7FFC
7FFC
3F7C
1E7C
ENDCHAR
STARTCHAR 0065
ENCODING 101
SWIDTH 648 0
DWIDTH 18 0
BBX 14 28 2 0
BITMAP
0FC0
3FF0
7FF8
7FF8
7CF8
F87C
F87C
F87C
F87C
F87C
F87C
FFFC
FFFC
FFFC
F800
F800
F800
F87C
F87C
F87C
F87C
F87C
F87C
7CF8
7FF8
7FF8
3FF0
0FC0
ENDCHAR
STARTCHAR 0066
ENCODING 102
SWIDTH 432 0
DWIDTH 12 0
BBX 10 33 1 0
BITMAP
0FC0
1FC0
1FC0
3FC0
3E00
3E00
FFC0
FFC0
FFC0
FFC0
3E00
3E00
3E00
3E00
3E00
3E00
3E00
3E00
3E00
3E00
3E00
3E00
3E00
3E00
3E00
3E00
3E00
3E00
3E00
3E00
3E00
3E00
3E00
ENDCHAR
STARTCHAR 0067
ENCODING 103
SWIDTH 648 0
DWIDTH 18 0
BBX 14 32 2 -4
BITMAP
1F7C
3FFC
7FFC
7FFC
FCFC
F87C
F87C
F87C
F87C
F87C
F87C
F87C
F87C
F87C
F87C
F87C
F87C
F87C
F87C
F87C
FCFC
7FFC
7FFC
3FFC
1F7C
007C
007C
60FC
7FF8
FFF8
7FF0
1FC0
ENDCHAR
STARTCHAR 0068
ENCODING 104
SWIDTH 684 0
DWIDTH 19 0
BBX 15 33 2 0
BITMAP
F800
F800
F800
F800
F800
F8F0
FBF8
FBFC
FFFC
FC7C
FC3E
F83E
F83E
F83E
F83E
F83E
F83E
F83E
F83E
F83E
F83E
F83E
F83E
F83E
F83E
F83E
F83E
F83E
F83E
F83E
F83E
F83E
F83E
ENDCHAR
STARTCHAR 0069
ENCODING 105
SWIDTH 360 0
DWIDTH 10 0
BBX 5 34 2 0
BITMAP
F8
F8
F8
F8
00
00
78
78
78
78
78
78
78
78
78
78
78
78
78
78
78
78
78
78
78
78
78
78
78
78
78
78
78
78
ENDCHAR
STARTCHAR 006A
ENCODING 106
SWIDTH 360 0
DWIDTH 10 0
BBX 7 38 1 -3
BITMAP
3E
3E
3E
3E
00
00
00
3E
3E
3E
3E
3E
3E
3E
3E
3E
3E
3E
3E
3E
3E
3E
3E
3E
3E
3E
3E
3E
3E
3E
3E
3E
3E
3E
FE
FE
FC
F8
ENDCHAR
STARTCHAR 006B
ENCODING 107
SWIDTH 612 0
DWIDTH 17 0
BBX 15 33 2 0
BITMAP
F800
F800
F800
F800
F800
F83E
F83E
F87C
F87C
F8F8
F8F8
F8F8
F9F0
F9F0
F9E0
FBE0
FBE0
FBC0
FFC0
FFC0
FBC0
FBE0
FBE0
F9F0
F9F0
F8F0
F8F8
F8F8
F87C
F87C
F87C
F83E
F83E
ENDCHAR
STARTCHAR 006C
ENCODING 108
SWIDTH 360 0
DWIDTH 10 0
BBX 4 33 3 0
BITMAP
F0
F0
F0
F0
F0
F0
F0
F0
F0
F0
F0
F0
F0
F0
F0
F0
F0
F0
F0
F0
F0
F0
F0
F0
F0
F0
F0
F0
F0
F0
F0
F0
F0
ENDCHAR
STARTCHAR 006D
ENCODING 109
SWIDTH 1008 0
DWIDTH 28 0
BBX 24 28 2 0
BITMAP
F9F0F8
FBF9FC
FBFFFE
FFFFFE
FC7E3E
FC7E1F
F83E1F
F83E1F
F83E1F
F83E1F
F83E1F
F83E1F
F83E1F
F83E1F
F83E1F
F83E1F
F83E1F
F83E1F
F83E1F
F83E1F
F83E1F
F83E1F
F83E1F
F83E1F
F83E1F
F83E1F
F83E1F
F83E1F
ENDCHAR
STARTCHAR 006E
ENCODING 110
SWIDTH 684 0
DWIDTH 19 0
BBX 15 28 2 0
BITMAP
F8F0
FBF8
FBFC
FFFC
FC7E
FC3E
F83E
F83E
F83E
F83E
F83E
F83E
F83E
F83E
F83E
F83E
F83E
F83E
F83E
F83E
F83E
F83E
F83E
F83E
F83E
F83E
F83E
F83E
ENDCHAR
STARTCHAR 006F
ENCODING 111
SWIDTH 648 0
DWIDTH 18 0
BBX 14 28 2 0
BITMAP
0FC0
3FF0
3FF0
7FF8
7CF8
F87C
F87C
F87C
F87C
F87C
F87C
F87C
F87C
F87C
F87C
F87C
F87C
F87C
F87C
F87C
F87C
F87C
F87C
7CF8
7FF8
7FF8
3FF0
0FC0
ENDCHAR
STARTCHAR 0070
ENCODING 112
SWIDTH 684 0
DWIDTH 19 0
BBX 14 33 2 -5
BITMAP
F9F0
FBF8
FFFC
FFFC
FC7C
FC7C
F87C
F87C
F83C
F83C
F83C
F83C
F83C
F83C
F83C
F83C
F83C
F83C
F83C
F87C
F87C
F87C
FC7C
FC7C
FFFC
FFF8
FBF8
F9E0
F800
F800
F800
F800
F800
ENDCHAR
STARTCHAR 0071
ENCODING 113
SWIDTH 648 0
DWIDTH 18 0
BBX 14 33 2 -5
BITMAP
1E7C
3FFC
7FFC
7FFC
FCFC
F87C
F87C
F87C
F87C
F87C
F87C
F87C
F87C
F87C
F87C
F87C
F87C
F87C
F87C
F87C
F87C
F87C
F87C
FCFC
7FFC
7FFC
3FFC
1E7C
007C
007C
007C
007C
007C
ENDCHAR
STARTCHAR 0072
ENCODING 114
SWIDTH 468 0
DWIDTH 13 0
BBX 10 28 2 0
BITMAP
F8C0
FBC0
FBC0
FFC0
FE00
FC00
F800
F800
F800
F800
F800
F800
F800
F800
F800
F800
F800
F800
F800
F800
F800
F800
F800
F800
F800
F800
F800
F800
ENDCHAR
STARTCHAR 0073
ENCODING 115
SWIDTH 576 0
DWIDTH 16 0
BBX 13 28 2 0
BITMAP
1F80
7FE0
7FE0
FFF0
F9F0
F0F0
F0F0
F0F0
F8F0
F800
FC00
7E00
3F00
3F80
0FC0
07E0
03F0
01F0
F1F0
F0F8
F0F8
F0F8
F0F8
F9F8
FFF0
7FF0
3FE0
1F80
ENDCHAR
STARTCHAR 0074
ENCODING 116
SWIDTH 432 0
DWIDTH 12 0
BBX 10 32 1 0
BITMAP
3E00
3E00
3E00
3E00
FFC0
FFC0
FFC0
FFC0
3E00
3E00
3E00
3E00
3E00
3E00
3E00
3E00
3E00
3E00
3E00
3E00
3E00
3E00
3E00
3E00
3E00
3E00
3E00
3E00
3FC0
3FC0
1FC0
0FC0
ENDCHAR
STARTCHAR 0075
ENCODING 117
SWIDTH 684 0
DWIDTH 19 0
BBX 14 28 2 0
BITMAP
F87C
F87C
F87C
F87C
F87C
F87C
F87C
F87C
F87C
F87C
F87C
F87C
F87C
F87C
F87C
F87C
F87C
F87C
F87C
F87C
F87C
F87C
F87C
FC7C
7FFC
7FFC
3FFC
1E7C
ENDCHAR
STARTCHAR 0076
ENCODING 118
SWIDTH 540 0
DWIDTH 15 0
BBX 14 28 1 0
BITMAP
F07C
F87C
F878
F878
F878
F878
7878
78F8
78F8
78F0
7CF0
7CF0
7CF0
3CF0
3CF0
3CF0
3CE0
3DE0
3DE0
1FE0
1FE0
1FE0
1FE0
1FC0
1FC0
1FC0
0FC0
0FC0
ENDCHAR
STARTCHAR 0077
ENCODING 119
SWIDTH 828 0
DWIDTH 23 0
BBX 21 28 1 0
BITMAP
F0F878
F0F878
F0F878
F0F878
F0F878
78FC78
79FC78
79FCF0
79FCF0
79DCF0
79DCF0
79DEF0
79DEF0
3DCEF0
3FCEF0
3FCEE0
3F8EE0
3F8FE0
3F8FE0
3F8FE0
1F87E0
1F87E0
1F87E0
1F07C0
1F07C0
1F07C0
1F07C0
1F07C0
ENDCHAR
STARTCHAR 0078
ENCODING 120
SWIDTH 540 0
DWIDTH 15 0
BBX 15 28 0 0
BITMAP
783E
7C3C
7C3C
3C78
3E78
1E78
1EF0
1FF0
0FF0
0FE0
0FE0
07E0
07C0
07C0
07C0
07C0
0FE0
0FE0
0FF0
1FF0
1EF0
1EF8
3EF8
3C78
7C7C
7C7C
783C
F83E
ENDCHAR
STARTCHAR 0079
ENCODING 121
SWIDTH 576 0
DWIDTH 16 0
BBX 14 32 1 -4
BITMAP
F83C
F87C
F87C
F87C
787C
7878
7878
7878
7C78
7C78
3CF8
3CF0
3CF0
3CF0
3CF0
3CF0
1EF0
1EE0
1EE0
1EE0
1FE0
0FE0
0FE0
0FC0
0FC0
0FC0
0FC0
0FC0
7F80
7F80
7F80
7F00
ENDCHAR
STARTCHAR 007A
ENCODING 122
SWIDTH 468 0
DWIDTH 13 0
BBX 11 28 1 0
BITMAP
7FE0
7FE0
7FE0
7FE0
03E0
03E0
03C0
07C0
07C0
07C0
0F80
0F80
0F80
0F00
1F00
1F00
1F00
3E00
3E00
3E00
7C00
7C00
7C00
7C00
FFE0
FFE0
FFE0
FFE0
ENDCHAR
STARTCHAR 007B
ENCODING 123
SWIDTH 540 0
DWIDTH 15 0
BBX 11 36 2 -4
BITMAP
03E0
0FE0
0FE0
1FE0
1F00
1F00
1F00
1F00
1F00
1F00
1F00
1F00
1F00
1F00
1F00
3F00
FE00
FC00
FC00
FE00
3F00
1F00
1F00
1F00
1F00
1F00
1F00
1F00
1F00
1F00
1F00
1F00
1FE0
0FE0
0FE0
03E0
ENDCHAR
STARTCHAR 007C
ENCODING 124
SWIDTH 360 0
DWIDTH 10 0
BBX 4 36 3 -2
BITMAP
F0
F0
F0
F0
F0
F0
F0
F0
F0
F0
F0
F0
F0
F0
F0
F0
F0
F0
F0
F0
F0
F0
F0
F0
F0
F0
F0
F0
F0
F0
F0
F0
F0
F0
F0
F0
ENDCHAR
STARTCHAR 007D
ENCODING 125
SWIDTH 540 0
DWIDTH 15 0
BBX 11 36 2 -4
BITMAP
F800
FE00
FE00
FF00
1F00
1F00
1F00
1F00
1F00
1F00
1F00
1F00
1F00
1F00
1F00
1F80
0FE0
07E0
07E0
0FE0
1F80
1F00
1F00
1F00
1F00
1F00
1F00
1F00
1F00
1F00
1F00
1F00
FF00
FE00
FE00
F800
ENDCHAR
STARTCHAR 007E
ENCODING 126
SWIDTH 756 0
DWIDTH 21 0
BBX 17 7 2 15
BITMAP
1E0780
3FCF00
7FFF00
FFFF00
FFFE00
F1FC00
203800
ENDCHAR
STARTCHAR 00A0
ENCODING 160
SWIDTH 252 0
DWIDTH 7 0
BBX 0 0 0 0
BITMAP
ENDCHAR
STARTCHAR 00A1
ENCODING 161
SWIDTH 360 0
DWIDTH 10 0
BBX 5 32 3 -4
BITMAP
F8
F8
F8
F8
F8
00
00
60
60
60
60
70
70
70
70
70
70
F0
F0
F0
F0
F0
F0
F0
F0
F0
F0
F8
F8
F8
F8
F8
ENDCHAR
STARTCHAR 00A2
ENCODING 162
SWIDTH 540 0
DWIDTH 15 0
BBX 14 36 2 -4
BITMAP
0300
0300
0300
0300
0FC0
3FF0
7FF8
7FF8
7FF8
FCFC
F87C
F87C
F87C
F87C
F87C
F800
F800
F800
F800
F800
F800
F87C
F87C
F87C
F87C
F87C
F87C
7CF8
7FF8
7FF8
3FF0
0FC0
0300
0300
0300
0300
ENDCHAR
STARTCHAR 00A3
ENCODING 163
SWIDTH 720 0
DWIDTH 20 0
BBX 16 32 2 0
BITMAP
07F0
1FFC
3FFE
3FFE
7E3F
7C1F
7C1F
7C1F
7C1F
3C00
3E00
3E00
1E00
1F00
FFFC
FFFC
FFFC
FFFC
0F80
0F80
0F80
0F80
0F80
0F80
0F80
1F00
3F00
7E00
FFFF
FFFF
FFFF
FFFF
ENDCHAR
STARTCHAR 00A4
ENCODING 164
SWIDTH 792 0
DWIDTH 22 0
BBX 17 18 2 9
BITMAP
100200
33E600
7FFF00
FFFF80
7FFF00
3E1F00
7C0F00
780F00
780700
780780
780F00
7C0F00
3E1F00
7FFF00
FFFF80
7FFF00
33F700
100200
ENDCHAR
STARTCHAR 00A5
ENCODING 165
SWIDTH 576 0
DWIDTH 16 0
BBX 16 32 0 0
BITMAP
F81F
781E
7C3E
7C3E
7C3E
3C3C
3E3C
3E7C
1E7C
1E78
1F78
1FF8
0FF0
0FF0
0FF0
07F0
07E0
07E0
3FFC
3FFC
3FFC
03E0
03E0
3FFC
3FFC
3FFC
03E0
03E0
03E0
03E0
03E0
03E0
ENDCHAR
STARTCHAR 00A6
ENCODING 166
SWIDTH 360 0
DWIDTH 10 0
BBX 6 34 2 -2
BITMAP
FC
FC
FC
FC
FC
FC
FC
FC
FC
FC
FC
FC
FC
FC
FC
00
00
00
00
FC
FC
FC
FC
FC
FC
FC
FC
FC
FC
FC
FC
FC
FC
FC
ENDCHAR
STARTCHAR 00A7
ENCODING 167
SWIDTH 648 0
DWIDTH 18 0
BBX 14 32 2 0
BITMAP
0FC0
3FF0
7FF8
7FF8
FCFC
FC7C
FC7C
FE00
7F00
7F80
3FE0
3FF0
3FF8
7FF8
78FC
F87C
F87C
FC7C
7FF8
7FF0
3FF0
1FE0
07F0
03F8
01FC
FCFC
FCFC
FCFC
7FFC
7FF8
3FF0
0FC0
ENDCHAR
STARTCHAR 00A8
ENCODING 168
SWIDTH 648 0
DWIDTH 18 0
BBX 14 4 2 17
BITMAP
F87C
F87C
F87C
F87C
ENDCHAR
STARTCHAR 00A9
ENCODING 169
SWIDTH 972 0
DWIDTH 27 0
BBX 25 24 1 4
BITMAP
007F0000
01FFE000
07C1F000
0F007800
1E3E1C00
3C7F0E00
387F0E00
70F78700
70F38700
70F38380
E0F00380
E0F00380
E0F00380
E0F38380
70F38380
70F38700
70F78700
38FF0F00
3C7F0E00
1C3E1C00
0F007800
07C1F000
01FFE000
007F0000
ENDCHAR
STARTCHAR 00AA
ENCODING 170
SWIDTH 612 0
DWIDTH 17 0
BBX 11 22 3 7
BITMAP
1F00
3FC0
7FE0
79E0
F1E0
F1E0
F1E0
01E0
03E0
1FE0
3FE0
79E0
F1E0
F1E0
F1E0
F1E0
F1E0
F1E0
F9E0
7FE0
7FE0
3DE0
ENDCHAR
STARTCHAR 00AB
ENCODING 171
SWIDTH 864 0
DWIDTH 24 0
BBX 19 15 2 6
BITMAP
018060
0781E0
1F83E0
3F8FE0
FFBFE0
FE3F80
F03E00
F03C00
FC3F00
FF3FC0
7F9FE0
1F87E0
0781E0
038060
008020
ENDCHAR
STARTCHAR 00AC
ENCODING 172
SWIDTH 648 0
DWIDTH 18 0
BBX 13 9 2 9
BITMAP
FFF8
FFF8
FFF8
FFF8
0078
0078
0078
0078
0078
ENDCHAR
STARTCHAR 00AD
ENCODING 173
SWIDTH 468 0
DWIDTH 13 0
BBX 9 4 2 9
BITMAP
FF80
FF80
FF80
FF80
ENDCHAR
STARTCHAR 00AE
ENCODING 174
SWIDTH 1008 0
DWIDTH 28 0
BBX 24 24 2 4
BITMAP
00FE00
03FFC0
0F83F0
1E0078
3CFE3C
38FF1C
70FF0E
70E70E
E0E707
E0E707
E0FF07
E0FE07
E0FF07
E0E707
E0E707
E0E707
70E70E
70E70E
38E71C
3CE73C
1E0078
0F83F0
03FFC0
00FF00
ENDCHAR
STARTCHAR 00AF
ENCODING 175
SWIDTH 468 0
DWIDTH 13 0
BBX 9 3 2 17
BITMAP
FF80
FF80
FF80
ENDCHAR
STARTCHAR 00B0
ENCODING 176
SWIDTH 612 0
DWIDTH 17 0
BBX 13 13 2 17
BITMAP
0F80
3FE0
7FF0
7FF0
F8F8
F078
F078
F078
F078
F8F0
7FF0
3FE0
0F80
ENDCHAR
STARTCHAR 00B1
ENCODING 177
SWIDTH 576 0
DWIDTH 16 0
BBX 12 19 2 2
BITMAP
0F00
0F00
0F00
0F00
0F00
FFF0
FFF0
FFF0
0F00
0F00
0F00
0F00
0000
0000
0000
7FC0
7FC0
7FC0
7FC0
ENDCHAR
STARTCHAR 00B2
ENCODING 178
SWIDTH 540 0
DWIDTH 15 0
BBX 10 23 3 9
BITMAP
1E00
3F00
7F80
73C0
73C0
F3C0
F3C0
F3C0
F3C0
0380
0780
0780
0F00
1F00
1E00
3C00
3C00
7800
7800
7000
7FC0
FFC0
FFC0
ENDCHAR
STARTCHAR 00B3
ENCODING 179
SWIDTH 576 0
DWIDTH 16 0
BBX 10 22 3 10
BITMAP
3F00
7F80
7FC0
F3C0
F1C0
F1C0
01C0
03C0
03C0
0F80
0F00
0F80
03C0
03C0
01C0
E1C0
E1C0
E3C0
F3C0
7F80
7F80
1E00
ENDCHAR
STARTCHAR 00B4
ENCODING 180
SWIDTH 432 0
DWIDTH 12 0
BBX 8 6 2 33
BITMAP
01
0F
3F
FF
FF
F0
ENDCHAR
STARTCHAR 00B6
ENCODING 182
SWIDTH 756 0
DWIDTH 21 0
BBX 16 32 2 0
BITMAP
0FFF
3FFF
7FFF
FFFF
FFCF
FFCF
FFCF
FFCF
FFCF
7FCF
3FCF
1FCF
03CF
03CF
03CF
03CF
03CF
03CF
03CF
03CF
03CF
03CF
03CF
03CF
03CF
03CF
03CF
03CF
03CF
03CF
03CF
03CF
ENDCHAR
STARTCHAR 00B7
ENCODING 183
SWIDTH 324 0
DWIDTH 9 0
BBX 5 4 2 14
BITMAP
F8
F8
F8
F8
ENDCHAR
STARTCHAR 00B8
ENCODING 184
SWIDTH 684 0
DWIDTH 19 0
BBX 8 12 6 -11
BITMAP
30
30
70
7C
1E
0E
0F
0F
1F
FE
FE
F8
ENDCHAR
STARTCHAR 00B9
ENCODING 185
SWIDTH 432 0
DWIDTH 12 0
BBX 7 22 1 10
BITMAP
0E
1E
3E
FE
FE
1E
1E
1E
1E
1E
1E
1E
1E
1E
1E
1E
1E
1E
1E
1E
1E
1E
ENDCHAR
STARTCHAR 00BA
ENCODING 186
SWIDTH 612 0
DWIDTH 17 0
BBX 11 23 3 7
BITMAP
1F00
3FC0
7FC0
F9E0
F1E0
F1E0
F1E0
F1E0
F1E0
F1E0
F1E0
F1E0
F1E0
F1E0
F1E0
F1E0
F1E0
F1E0
F1E0
F9E0
7FC0
3FC0
1F00
ENDCHAR
STARTCHAR 00BB
ENCODING 187
SWIDTH 864 0
DWIDTH 24 0
BBX 19 15 3 6
BITMAP
C03000
E03C00
F83E00
FE3F80
FFBFE0
3F8FE0
0F81E0
0781E0
1F87E0
7F9FE0
FE3FC0
FC3F00
F03C00
C03800
802000
ENDCHAR
STARTCHAR 00BC
ENCODING 188
SWIDTH 1008 0
DWIDTH 28 0
BBX 24 32 2 0
BITMAP
0001E0
1C01C0
3C03C0
FC03C0
FC0380
BC0380
3C0780
3C0700
3C0700
3C0F00
3C0F00
3C0E00
3C1E1E
3C1E1E
3C1C3E
3C1C3E
3C3C3E
3C3C7E
3C386E
3C786E
3C78EE
3C70EE
0070CE
00F0CE
00F1CE
00E1CE
01E1FF
01E1FF
01C00E
01C00E
03C00E
03C00E
ENDCHAR
STARTCHAR 00BD
ENCODING 189
SWIDTH 1080 0
DWIDTH 30 0
BBX 26 32 2 0
BITMAP
0001E000
1C01C000
3C03C000
FC03C000
FC038000
FC038000
3C078000
3C070000
3C070000
3C0F0000
3C0F0000
3C0E0F00
3C1E1F80
3C1E3FC0
3C1C39C0
3C1C39C0
3C3C39C0
3C3C39C0
3C3839C0
3C7839C0
3C7803C0
3C700380
00700780
00F00F00
00F00E00
00E01E00
01E01C00
01E03C00
01C03800
01C03FC0
03C03FC0
03C03FC0
ENDCHAR
STARTCHAR 00BE
ENCODING 190
SWIDTH 1044 0
DWIDTH 29 0
BBX 25 32 2 0
BITMAP
0000F000
3C00E000
7E01E000
FF01E000
E701C000
E703C000
E703C000
07038000
07038000
1F078000
1E078000
1F070000
070F0000
070F1E00
E70E1E00
E70E3E00
E71E3E00
E71E3E00
FF1C7E00
FE3C7E00
3C3C6E00
00386E00
0038EE00
0078EE00
0070CE00
0071CE00
00F1FF80
00F1FF80
00E00E00
00E00E00
01E00E00
01C00E00
ENDCHAR
STARTCHAR 00BF
ENCODING 191
SWIDTH 684 0
DWIDTH 19 0
BBX 13 32 3 -4
BITMAP
03C0
03C0
03C0
03C0
03C0
03C0
0000
0000
0000
03C0
03C0
03C0
03C0
0FC0
3FC0
7F80
7E00
FC00
F800
F800
F800
F8F8
F8F8
F8F8
F8F8
F8F8
F8F8
F9F8
FFF0
7FF0
3FE0
1F80
ENDCHAR
STARTCHAR 00C0
ENCODING 192
SWIDTH 648 0
DWIDTH 18 0
BBX 16 42 1 0
BITMAP
1000
0C00
0F00
0FC0
0FF0
0FF0
0070
0000
0000
0000
07E0
0FE0
0FF0
0FF0
0FF0
0FF0
0FF0
0FF0
1FF8
1FF8
1E78
1E78
1E78
1E78
1E78
3E7C
3E7C
3E3C
3C3C
3C3C
3C3C
7C3E
7FFE
7FFE
7FFE
7FFE
781E
781E
F81F
F81F
F81F
F81F
ENDCHAR
STARTCHAR 00C1
ENCODING 193
SWIDTH 648 0
DWIDTH 18 0
BBX 16 42 1 0
BITMAP
0010
00F0
03F0
0FF0
0FF0
0F00
0000
0000
0000
0000
07E0
0FE0
0FF0
0FF0
0FF0
0FF0
0FF0
0FF0
1FF8
1FF8
1E78
1E78
1E78
1E78
1E78
3E7C
3E7C
3E3C
3C3C
3C3C
3C3C
7C3E
7FFE
7FFE
7FFE
7FFE
781E
781E
F81F
F81F
F81F
F81F
ENDCHAR
STARTCHAR 00C2
ENCODING 194
SWIDTH 648 0
DWIDTH 18 0
BBX 16 41 1 0
BITMAP
07E0
0FF0
0FF0
1E78
1E78
3E7C
0000
0000
0000
07E0
0FE0
0FF0
0FF0
0FF0
0FF0
0FF0
0FF0
1FF8
1FF8
1E78
1E78
1E78
1E78
1E78
3E7C
3E7C
3E3C
3C3C
3C3C
3C3C
7C3E
7FFE
7FFE
7FFE
7FFE
781E
781E
F81F
F81F
F81F
F81F
ENDCHAR
STARTCHAR 00C3
ENCODING 195
SWIDTH 648 0
DWIDTH 18 0
BBX 16 40 1 0
BITMAP
0F0E
1FFC
3FFC
18FC
0038
0000
0000
0000
07E0
0FE0
0FF0
0FF0
0FF0
0FF0
0FF0
0FF0
1FF8
1FF8
1E78
1E78
1E78
1E78
1E78
3E7C
3E7C
3E3C
3C3C
3C3C
3C3C
7C3E
7FFE
7FFE
7FFE
7FFE
781E
781E
F81F
F81F
F81F
F81F
ENDCHAR
STARTCHAR 00C4
ENCODING 196
SWIDTH 648 0
DWIDTH 18 0
BBX 16 39 1 0
BITMAP
7C3E
7C3E
7C3E
7C3E
0000
0000
0000
07E0
0FE0
0FF0
0FF0
0FF0
0FF0
0FF0
0FF0
1FF8
1FF8
1E78
1E78
1E78
1E78
1E78
3E7C
3E7C
3E3C
3C3C
3C3C
3C3C
7C3E
7FFE
7FFE
7FFE
7FFE
781E
781E
F81F
F81F
F81F
F81F
ENDCHAR
STARTCHAR 00C5
ENCODING 197
SWIDTH 648 0
DWIDTH 18 0
BBX 16 43 1 0
BITMAP
07C0
0FE0
1C70
1830
1830
1C70
0FE0
07C0
0000
0000
0000
07E0
0FE0
0FF0
0FF0
0FF0
0FF0
0FF0
0FF0
1FF8
1FF8
1E78
1E78
1E78
1E78
1E78
3E7C
3E7C
3E3C
3C3C
3C3C
3C3C
7C3E
7FFE
7FFE
7FFE
7FFE
781E
781E
F81F
F81F
F81F
F81F
ENDCHAR
STARTCHAR 00C6
ENCODING 198
SWIDTH 828 0
DWIDTH 23 0
BBX 21 32 1 0
BITMAP
03FFF0
03FFF0
07FFF0
07FFF0
07FE00
07BE00
07BE00
0FBE00
0FBE00
0FBE00
0F3E00
0F3E00
0F3E00
1F3FF0
1F3FF0
1F3FF0
1E3FF0
1E3E00
3E3E00
3E3E00
3E3E00
3C3E00
3FFE00
3FFE00
7FFE00
7FFE00
7C3E00
7C3E00
783FF8
F83FF8
F83FF8
F83FF8
ENDCHAR
STARTCHAR 00C7
ENCODING 199
SWIDTH 648 0
DWIDTH 18 0
BBX 14 43 2 -11
BITMAP
0FC0
1FF0
3FF8
7FF8
7C7C
F87C
F87C
F87C
F87C
F87C
F87C
F87C
F87C
F800
F800
F800
F800
F800
F800
F87C
F87C
F87C
F87C
F87C
F87C
F87C
F87C
7C7C
7FF8
3FF8
1FF0
0FC0
0300
0700
07C0
01E0
00E0
00F0
00F0
01F0
0FE0
0FE0
0F80
ENDCHAR
STARTCHAR 00C8
ENCODING 200
SWIDTH 540 0
DWIDTH 15 0
BBX 12 42 2 0
BITMAP
4000
3000
3C00
3F00
3FC0
3FC0
01C0
0000
0000
0000
FFE0
FFE0
FFE0
FFE0
F800
F800
F800
F800
F800
F800
F800
F800
F800
FFE0
FFE0
FFE0
FFE0
F800
F800
F800
F800
F800
F800
F800
F800
F800
F800
F800
FFF0
FFF0
FFF0
FFF0
ENDCHAR
STARTCHAR 00C9
ENCODING 201
SWIDTH 540 0
DWIDTH 15 0
BBX 12 42 2 0
BITMAP
0040
03C0
0FC0
3FC0
3FC0
3C00
0000
0000
0000
0000
FFE0
FFE0
FFE0
FFE0
F800
F800
F800
F800
F800
F800
F800
F800
F800
FFE0
FFE0
FFE0
FFE0
F800
F800
F800
F800
F800
F800
F800
F800
F800
F800
F800
FFF0
FFF0
FFF0
FFF0
ENDCHAR
STARTCHAR 00CA
ENCODING 202
SWIDTH 540 0
DWIDTH 15 0
BBX 12 41 2 0
BITMAP
1F80
3FC0
3FC0
79E0
79E0
F9F0
0000
0000
0000
FFE0
FFE0
FFE0
FFE0
F800
F800
F800
F800
F800
F800
F800
F800
F800
FFE0
FFE0
FFE0
FFE0
F800
F800
F800
F800
F800
F800
F800
F800
F800
F800
F800
FFF0
FFF0
FFF0
FFF0
ENDCHAR
STARTCHAR 00CB
ENCODING 203
SWIDTH 540 0
DWIDTH 15 0
BBX 14 39 1 0
BITMAP
F87C
F87C
F87C
F87C
0000
0000
0000
7FF0
7FF0
7FF0
7FF0
7C00
7C00
7C00
7C00
7C00
7C00
7C00
7C00
7C00
7FF0
7FF0
7FF0
7FF0
7C00
7C00
7C00
7C00
7C00
7C00
7C00
7C00
7C00
7C00
7C00
7FF8
7FF8
7FF8
7FF8
ENDCHAR
STARTCHAR 00CC
ENCODING 204
SWIDTH 360 0
DWIDTH 10 0
BBX 8 42 1 0
BITMAP
80
C0
F0
FC
FF
FF
07
00
00
00
3E
3E
3E
3E
3E
3E
3E
3E
3E
3E
3E
3E
3E
3E
3E
3E
3E
3E
3E
3E
3E
3E
3E
3E
3E
3E
3E
3E
3E
3E
3E
3E
ENDCHAR
STARTCHAR 00CD
ENCODING 205
SWIDTH 360 0
DWIDTH 10 0
BBX 8 42 1 0
BITMAP
01
0F
3F
FF
FF
F0
00
00
00
00
3E
3E
3E
3E
3E
3E
3E
3E
3E
3E
3E
3E
3E
3E
3E
3E
3E
3E
3E
3E
3E
3E
3E
3E
3E
3E
3E
3E
3E
3E
3E
3E
ENDCHAR
STARTCHAR 00CE
ENCODING 206
SWIDTH 360 0
DWIDTH 10 0
BBX 12 41 -1 0
BITMAP
1F80
3FC0
3FC0
79E0
79E0
F9F0
0000
0000
0000
0F80
0F80
0F80
0F80
0F80
0F80
0F80
0F80
0F80
0F80
0F80
0F80
0F80
0F80
0F80
0F80
0F80
0F80
0F80
0F80
0F80
0F80
0F80
0F80
0F80
0F80
0F80
0F80
0F80
0F80
0F80
0F80
ENDCHAR
STARTCHAR 00CF
ENCODING 207
SWIDTH 360 0
DWIDTH 10 0
BBX 14 39 -2 0
BITMAP
F87C
F87C
F87C
F87C
0000
0000
0000
07C0
07C0
07C0
07C0
07C0
07C0
07C0
07C0
07C0
07C0
07C0
07C0
07C0
07C0
07C0
07C0
07C0
07C0
07C0
07C0
07C0
07C0
07C0
07C0
07C0
07C0
07C0
07C0
07C0
07C0
07C0
07C0
ENDCHAR
STARTCHAR 00D0
ENCODING 208
SWIDTH 684 0
DWIDTH 19 0
BBX 16 32 1 0
BITMAP
7FF0
7FF8
7FFC
7FFE
7C3E
7C3E
7C3F
7C1F
7C1F
7C1F
7C1F
7C1F
7C1F
7C1F
FF9F
FF9F
FF9F
7C1F
7C1F
7C1F
7C1F
7C1F
7C1F
7C1F
7C1F
7C1E
7C3E
7C3E
7FFE
7FFC
7FF8
7FF0
ENDCHAR
STARTCHAR 00D1
ENCODING 209
SWIDTH 720 0
DWIDTH 20 0
BBX 15 40 2 0
BITMAP
0F0E
1FFC
3FFC
18FC
0038
0000
0000
0000
F81E
F81E
F81E
FC1E
FC1E
FC1E
FE1E
FE1E
FE1E
FF1E
FF1E
FF1E
FF9E
FF9E
FBDE
FBDE
FBDE
F9FE
F9FE
F9FE
F8FE
F8FE
F8FE
F87E
F87E
F83E
F83E
F83E
F81E
F81E
F81E
F80E
ENDCHAR
STARTCHAR 00D2
ENCODING 210
SWIDTH 684 0
DWIDTH 19 0
BBX 14 42 2 0
BITMAP
1000
0C00
0F00
0FC0
0FF0
0FF0
0070
0000
0000
0000
0FC0
1FF0
3FF8
7FFC
7C7C
F87C
F87C
F87C
F87C
F87C
F87C
F87C
F87C
F87C
F87C
F87C
F87C
F87C
F87C
F87C
F87C
F87C
F87C
F87C
F87C
F87C
F87C
7C7C
7FFC
3FF8
1FF0
0FC0
ENDCHAR
STARTCHAR 00D3
ENCODING 211
SWIDTH 684 0
DWIDTH 19 0
BBX 14 42 2 0
BITMAP
0010
00F0
03F0
0FF0
0FF0
0F00
0000
0000
0000
0000
0FC0
1FF0
3FF8
7FFC
7C7C
F87C
F87C
F87C
F87C
F87C
F87C
F87C
F87C
F87C
F87C
F87C
F87C
F87C
F87C
F87C
F87C
F87C
F87C
F87C
F87C
F87C
F87C
7C7C
7FFC
3FF8
1FF0
0FC0
ENDCHAR
STARTCHAR 00D4
ENCODING 212
SWIDTH 684 0
DWIDTH 19 0
BBX 14 41 2 0
BITMAP
0FC0
1FE0
1FE0
3CF0
3CF0
7CF8
0000
0000
0000
0FC0
1FF0
3FF8
7FFC
7C7C
F87C
F87C
F87C
F87C
F87C
F87C
F87C
F87C
F87C
F87C
F87C
F87C
F87C
F87C
F87C
F87C
F87C
F87C
F87C
F87C
F87C
F87C
7C7C
7FFC
3FF8
1FF0
0FC0
ENDCHAR
STARTCHAR 00D5
ENCODING 213
SWIDTH 684 0
DWIDTH 19 0
BBX 14 40 2 0
BITMAP
1E1C
3FF8
7FF8
31F8
0070
0000
0000
0000
0FC0
1FF0
3FF8
7FFC
7C7C
F87C
F87C
F87C
F87C
F87C
F87C
F87C
F87C
F87C
F87C
F87C
F87C
F87C
F87C
F87C
F87C
F87C
F87C
F87C
F87C
F87C
F87C
7C7C
7FFC
3FF8
1FF0
0FC0
ENDCHAR
STARTCHAR 00D6
ENCODING 214
SWIDTH 684 0
DWIDTH 19 0
BBX 14 39 2 0
BITMAP
F87C
F87C
F87C
F87C
0000
0000
0000
0FC0
1FF0
3FF8
7FFC
7C7C
F87C
F87C
F87C
F87C
F87C
F87C
F87C
F87C
F87C
F87C
F87C
F87C
F87C
F87C
F87C
F87C
F87C
F87C
F87C
F87C
F87C
F87C
7C7C
7FFC
3FF8
1FF0
0FC0
ENDCHAR
STARTCHAR 00D7
ENCODING 215
SWIDTH 468 0
DWIDTH 13 0
BBX 11 11 1 6
BITMAP
3180
7BC0
FFE0
7FE0
3FC0
3F80
7FC0
FFE0
FFE0
79C0
3080
ENDCHAR
STARTCHAR 00D8
ENCODING 216
SWIDTH 612 0
DWIDTH 17 0
BBX 15 37 2 -3
BITMAP
0006
0006
0FCC
1FFC
3FFC
7FFC
7C7C
F87C
F87C
F87C
F87C
F87C
F87C
F8FC
F8FC
F8FC
F9FC
F9FC
FBFC
FB7C
FB7C
FE7C
FE7C
FE7C
FC7C
FC7C
FC7C
F87C
F87C
7C7C
7FFC
3FF8
7FF0
6FC0
6000
C000
C000
ENDCHAR
STARTCHAR 00D9
ENCODING 217
SWIDTH 684 0
DWIDTH 19 0
BBX 15 42 2 0
BITMAP
1000
0C00
0F00
0FC0
0FF0
0FF0
0070
0000
0000
0000
F83E
F83E
F83E
F83E
F83E
F83E
F83E
F83E
F83E
F83E
F83E
F83E
F83E
F83E
F83E
F83E
F83E
F83E
F83E
F83E
F83E
F83E
F83E
F83E
F83E
F83E
787C
7C7C
7FFC
3FF8
1FF0
0FE0
ENDCHAR
STARTCHAR 00DA
ENCODING 218
SWIDTH 684 0
DWIDTH 19 0
BBX 15 41 2 0
BITMAP
0010
00F0
03F0
0FF0
0FF0
0F00
0000
0000
0000
F83E
F83E
F83E
F83E
F83E
F83E
F83E
F83E
F83E
F83E
F83E
F83E
F83E
F83E
F83E
F83E
F83E
F83E
F83E
F83E
F83E
F83E
F83E
F83E
F83E
F83E
787C
7C7C
7FFC
3FF8
1FF0
0FE0
ENDCHAR
STARTCHAR 00DB
ENCODING 219
SWIDTH 684 0
DWIDTH 19 0
BBX 15 41 2 0
BITMAP
07E0
0FF0
0FF0
1E78
1E78
3E7C
0000
0000
0000
F83E
F83E
F83E
F83E
F83E
F83E
F83E
F83E
F83E
F83E
F83E
F83E
F83E
F83E
F83E
F83E
F83E
F83E
F83E
F83E
F83E
F83E
F83E
F83E
F83E
F83E
787C
7C7C
7FFC
3FF8
1FF0
0FE0
ENDCHAR
STARTCHAR 00DC
ENCODING 220
SWIDTH 684 0
DWIDTH 19 0
BBX 15 39 2 0
BITMAP
7C3E
7C3E
7C3E
7C3E
0000
0000
0000
F83E
F83E
F83E
F83E
F83E
F83E
F83E
F83E
F83E
F83E
F83E
F83E
F83E
F83E
F83E
F83E
F83E
F83E
F83E
F83E
F83E
F83E
F83E
F83E
F83E
F83E
787C
7C7C
7FFC
3FF8
1FF0
0FE0
ENDCHAR
STARTCHAR 00DD
ENCODING 221
SWIDTH 576 0
DWIDTH 16 0
BBX 16 42 0 0
BITMAP
0010
00F0
03F0
0FF0
0FF0
0F00
0000
0000
0000
0000
F81F
781E
7C3E
7C3E
7C3E
3C3C
3E3C
3E7C
1E7C
1E78
1F78
1FF8
0FF0
0FF0
0FF0
07F0
07E0
07E0
07E0
03E0
03E0
03E0
03E0
03E0
03E0
03E0
03E0
03E0
03E0
03E0
03E0
03E0
ENDCHAR
STARTCHAR 00DE
ENCODING 222
SWIDTH 648 0
DWIDTH 18 0
BBX 14 32 3 0
BITMAP
F800
F800
F800
F800
FFC0
FFF0
FFF0
FFF8
F8F8
F8F8
F87C
F87C
F87C
F87C
F87C
F87C
F87C
F87C
F8F8
F8F8
FFF8
FFF0
FFF0
FFC0
F800
F800
F800
F800
F800
F800
F800
F800
ENDCHAR
STARTCHAR 00DF
ENCODING 223
SWIDTH 684 0
DWIDTH 19 0
BBX 15 32 3 0
BITMAP
1FC0
7FF0
FFF8
FFF8
F8F8
F07C
F07C
F07C
F07C
F07C
F07C
F07C
F0F8
F3F8
F3E0
F3F0
F3FC
F07C
F03C
F03E
F03E
F03E
F03E
F03E
F03E
F03E
F03E
F07C
F3FC
F3FC
F3F8
F3E0
ENDCHAR
STARTCHAR 00E0
ENCODING 224
SWIDTH 648 0
DWIDTH 18 0
BBX 14 37 2 0
BITMAP
1000
0C00
0F00
0FC0
0FF0
0FF0
0070
0000
0000
0FC0
3FF0
3FF8
7FF8
7CFC
787C
F87C
F87C
F87C
007C
00FC
03FC
0FFC
3F7C
7C7C
787C
F87C
F87C
F87C
F87C
F87C
F87C
F87C
FCFC
FFFC
7FFC
7F7C
1E7C
ENDCHAR
STARTCHAR 00E1
ENCODING 225
SWIDTH 648 0
DWIDTH 18 0
BBX 14 37 2 0
BITMAP
0010
00F0
03F0
0FF0
0FF0
0F00
0000
0000
0000
0FC0
3FF0
3FF8
7FF8
7CFC
787C
F87C
F87C
F87C
007C
00FC
03FC
0FFC
3F7C
7C7C
787C
F87C
F87C
F87C
F87C
F87C
F87C
F87C
FCFC
FFFC
7FFC
7F7C
1E7C
ENDCHAR
STARTCHAR 00E2
ENCODING 226
SWIDTH 648 0
DWIDTH 18 0
BBX 14 36 2 0
BITMAP
0FC0
1FE0
1FE0
3CF0
3CF0
7CF8
0000
0000
0FC0
3FF0
3FF8
7FF8
7CFC
787C
F87C
F87C
F87C
007C
00FC
03FC
0FFC
3F7C
7C7C
787C
F87C
F87C
F87C
F87C
F87C
F87C
F87C
FCFC
FFFC
7FFC
7F7C
1E7C
ENDCHAR
STARTCHAR 00E3
ENCODING 227
SWIDTH 648 0
DWIDTH 18 0
BBX 14 35 2 0
BITMAP
1E1C
3FF8
7FF8
31F8
0070
0000
0000
0FC0
3FF0
3FF8
7FF8
7CFC
787C
F87C
F87C
F87C
007C
00FC
03FC
0FFC
3F7C
7C7C
787C
F87C
F87C
F87C
F87C
F87C
F87C
F87C
FCFC
FFFC
7FFC
7F7C
1E7C
ENDCHAR
STARTCHAR 00E4
ENCODING 228
SWIDTH 648 0
DWIDTH 18 0
BBX 14 34 2 0
BITMAP
F87C
F87C
F87C
F87C
0000
0000
0FC0
3FF0
3FF8
7FF8
7CFC
787C
F87C
F87C
F87C
007C
00FC
03FC
0FFC
3F7C
7C7C
787C
F87C
F87C
F87C
F87C
F87C
F87C
F87C
FCFC
FFFC
7FFC
7F7C
1E7C
ENDCHAR
STARTCHAR 00E5
ENCODING 229
SWIDTH 648 0
DWIDTH 18 0
BBX 14 38 2 0
BITMAP
07C0
0FE0
1C70
1830
1830
1C70
0FE0
07C0
0000
0000
0FC0
3FF0
3FF8
7FF8
7CFC
787C
F87C
F87C
F87C
007C
00FC
03FC
0FFC
3F7C
7C7C
787C
F87C
F87C
F87C
F87C
F87C
F87C
F87C
FCFC
FFFC
7FFC
7F7C
1E7C
ENDCHAR
STARTCHAR 00E6
ENCODING 230
SWIDTH 972 0
DWIDTH 27 0
BBX 23 28 2 0
BITMAP
0FC3E0
3FEFF8
3FFFFC
7FFFFC
7CFE7C
F87C3E
F87C3E
F87C3E
F87C3E
007C3E
01FC3E
07FFFE
1FFFFE
3E7FFE
7C7C00
F87C00
F87C00
F87C3E
F87C3E
F87C3E
F87C3E
F87C3E
F87C3E
FCFE7C
7FFFFC
7FFFFC
3FCFF8
1F83E0
ENDCHAR
STARTCHAR 00E7
ENCODING 231
SWIDTH 648 0
DWIDTH 18 0
BBX 14 39 2 -11
BITMAP
0FC0
3FF0
7FF0
7FF8
7CF8
F87C
F87C
F87C
F87C
F87C
F87C
F800
F800
F800
F800
F800
F800
F87C
F87C
F87C
F87C
F87C
F878
7CF8
7FF8
7FF0
3FF0
0FC0
0600
0E00
0F80
03C0
01C0
01E0
01E0
03E0
1FC0
1FC0
1F00
ENDCHAR
STARTCHAR 00E8
ENCODING 232
SWIDTH 648 0
DWIDTH 18 0
BBX 14 37 2 0
BITMAP
2000
1800
1E00
1F80
1FE0
1FE0
00E0
0000
0000
0FC0
3FF0
7FF8
7FF8
7CF8
F87C
F87C
F87C
F87C
F87C
F87C
FFFC
FFFC
FFFC
F800
F800
F800
F87C
F87C
F87C
F87C
F87C
F87C
7CF8
7FF8
7FF8
3FF0
0FC0
ENDCHAR
STARTCHAR 00E9
ENCODING 233
SWIDTH 648 0
DWIDTH 18 0
BBX 14 37 2 0
BITMAP
0020
01E0
07E0
1FE0
1FE0
1E00
0000
0000
0000
0FC0
3FF0
7FF8
7FF8
7CF8
F87C
F87C
F87C
F87C
F87C
F87C
FFFC
FFFC
FFFC
F800
F800
F800
F87C
F87C
F87C
F87C
F87C
F87C
7CF8
7FF8
7FF8
3FF0
0FC0
ENDCHAR
STARTCHAR 00EA
ENCODING 234
SWIDTH 648 0
DWIDTH 18 0
BBX 14 36 2 0
BITMAP
0FC0
1FE0
1FE0
3CF0
3CF0
7CF8
0000
0000
0FC0
3FF0
7FF8
7FF8
7CF8
F87C
F87C
F87C
F87C
F87C
F87C
FFFC
FFFC
FFFC
F800
F800
F800
F87C
F87C
F87C
F87C
F87C
F87C
7CF8
7FF8
7FF8
3FF0
0FC0
ENDCHAR
STARTCHAR 00EB
ENCODING 235
SWIDTH 648 0
DWIDTH 18 0
BBX 14 34 2 0
BITMAP
F87C
F87C
F87C
F87C
0000
0000
0FC0
3FF0
7FF8
7FF8
7CF8
F87C
F87C
F87C
F87C
F87C
F87C
FFFC
FFFC
FFFC
F800
F800
F800
F87C
F87C
F87C
F87C
F87C
F87C
7CF8
7FF8
7FF8
3FF0
0FC0
ENDCHAR
STARTCHAR 00EC
ENCODING 236
SWIDTH 360 0
DWIDTH 10 0
BBX 8 37 1 0
BITMAP
80
C0
F0
FC
FF
FF
07
00
00
3C
3C
3C
3C
3C
3C
3C
3C
3C
3C
3C
3C
3C
3C
3C
3C
3C
3C
3C
3C
3C
3C
3C
3C
3C
3C
3C
3C
ENDCHAR
STARTCHAR 00ED
ENCODING 237
SWIDTH 360 0
DWIDTH 10 0
BBX 8 37 1 0
BITMAP
01
0F
3F
FF
FF
F0
00
00
00
3C
3C
3C
3C
3C
3C
3C
3C
3C
3C
3C
3C
3C
3C
3C
3C
3C
3C
3C
3C
3C
3C
3C
3C
3C
3C
3C
3C
ENDCHAR
STARTCHAR 00EE
ENCODING 238
SWIDTH 360 0
DWIDTH 10 0
BBX 12 36 -1 0
BITMAP
1F80
3FC0
3FC0
79E0
79E0
F9F0
0000
0000
0F00
0F00
0F00
0F00
0F00
0F00
0F00
0F00
0F00
0F00
0F00
0F00
0F00
0F00
0F00
0F00
0F00
0F00
0F00
0F00
0F00
0F00
0F00
0F00
0F00
0F00
0F00
0F00
ENDCHAR
STARTCHAR 00EF
ENCODING 239
SWIDTH 360 0
DWIDTH 10 0
BBX 14 34 -2 0
BITMAP
F87C
F87C
F87C
F87C
0000
0000
0780
0780
0780
0780
0780
0780
0780
0780
0780
0780
0780
0780
0780
0780
0780
0780
0780
0780
0780
0780
0780
0780
0780
0780
0780
0780
0780
0780
ENDCHAR
STARTCHAR 00F0
ENCODING 240
SWIDTH 684 0
DWIDTH 19 0
BBX 16 34 2 0
BITMAP
0400
0782
0FCE
1FFF
03FC
01F8
07F8
1FF8
0EF8
0878
007C
007C
007C
1F7C
3FFC
7FFC
7FFC
FC7C
F87C
F87C
F87C
F87C
F87C
F87C
F87C
F87C
F87C
F87C
F87C
FC7C
7FF8
7FF8
3FF0
0FC0
ENDCHAR
STARTCHAR 00F1
ENCODING 241
SWIDTH 684 0
DWIDTH 19 0
BBX 15 35 2 0
BITMAP
1E1C
3FF8
7FF8
31F8
0070
0000
0000
F8F0
FBF8
FBFC
FFFC
FC7E
FC3E
F83E
F83E
F83E
F83E
F83E
F83E
F83E
F83E
F83E
F83E
F83E
F83E
F83E
F83E
F83E
F83E
F83E
F83E
F83E
F83E
F83E
F83E
ENDCHAR
STARTCHAR 00F2
ENCODING 242
SWIDTH 648 0
DWIDTH 18 0
BBX 14 37 2 0
BITMAP
2000
1800
1E00
1F80
1FE0
1FE0
00E0
0000
0000
0FC0
3FF0
3FF0
7FF8
7CF8
F87C
F87C
F87C
F87C
F87C
F87C
F87C
F87C
F87C
F87C
F87C
F87C
F87C
F87C
F87C
F87C
F87C
F87C
7CF8
7FF8
7FF8
3FF0
0FC0
ENDCHAR
STARTCHAR 00F3
ENCODING 243
SWIDTH 648 0
DWIDTH 18 0
BBX 14 37 2 0
BITMAP
0020
01E0
07E0
1FE0
1FE0
1E00
0000
0000
0000
0FC0
3FF0
3FF0
7FF8
7CF8
F87C
F87C
F87C
F87C
F87C
F87C
F87C
F87C
F87C
F87C
F87C
F87C
F87C
F87C
F87C
F87C
F87C
F87C
7CF8
7FF8
7FF8
3FF0
0FC0
ENDCHAR
STARTCHAR 00F4
ENCODING 244
SWIDTH 648 0
DWIDTH 18 0
BBX 14 36 2 0
BITMAP
0FC0
1FE0
1FE0
3CF0
3CF0
7CF8
0000
0000
0FC0
3FF0
3FF0
7FF8
7CF8
F87C
F87C
F87C
F87C
F87C
F87C
F87C
F87C
F87C
F87C
F87C
F87C
F87C
F87C
F87C
F87C
F87C
F87C
7CF8
7FF8
7FF8
3FF0
0FC0
ENDCHAR
STARTCHAR 00F5
ENCODING 245
SWIDTH 648 0
DWIDTH 18 0
BBX 14 35 2 0
BITMAP
1E1C
3FF8
7FF8
31F8
0070
0000
0000
0FC0
3FF0
3FF0
7FF8
7CF8
F87C
F87C
F87C
F87C
F87C
F87C
F87C
F87C
F87C
F87C
F87C
F87C
F87C
F87C
F87C
F87C
F87C
F87C
7CF8
7FF8
7FF8
3FF0
0FC0
ENDCHAR
STARTCHAR 00F6
ENCODING 246
SWIDTH 648 0
DWIDTH 18 0
BBX 14 34 2 0
BITMAP
F87C
F87C
F87C
F87C
0000
0000
0FC0
3FF0
3FF0
7FF8
7CF8
F87C
F87C
F87C
F87C
F87C
F87C
F87C
F87C
F87C
F87C
F87C
F87C
F87C
F87C
F87C
F87C
F87C
F87C
7CF8
7FF8
7FF8
3FF0
0FC0
ENDCHAR
STARTCHAR 00F7
ENCODING 247
SWIDTH 540 0
DWIDTH 15 0
BBX 11 19 2 4
BITMAP
1F00
1F00
1F00
1F00
1F00
1F00
0000
FFE0
FFE0
FFE0
FFE0
0000
0000
1F00
1F00
1F00
1F00
1F00
1F00
ENDCHAR
STARTCHAR 00F8
ENCODING 248
SWIDTH 576 0
DWIDTH 16 0
BBX 14 34 2 -3
BITMAP
0010
0038
0030
0FF0
3FF0
3FF0
7FF8
7CF8
F87C
F8FC
F8FC
F8FC
F9FC
F9FC
F9FC
F9FC
FB7C
FB7C
FB7C
FE7C
FE7C
FE7C
FE7C
FC7C
FC7C
FC7C
7CF8
7FF8
7FF8
3FF0
3FC0
3000
3000
6000
ENDCHAR
STARTCHAR 00F9
ENCODING 249
SWIDTH 684 0
DWIDTH 19 0
BBX 14 37 2 0
BITMAP
1000
0C00
0F00
0FC0
0FF0
0FF0
0070
0000
0000
F87C
F87C
F87C
F87C
F87C
F87C
F87C
F87C
F87C
F87C
F87C
F87C
F87C
F87C
F87C
F87C
F87C
F87C
F87C
F87C
F87C
F87C
F87C
FC7C
7FFC
7FFC
3FFC
1E7C
ENDCHAR
STARTCHAR 00FA
ENCODING 250
SWIDTH 684 0
DWIDTH 19 0
BBX 14 37 2 0
BITMAP
0010
00F0
03F0
0FF0
0FF0
0F00
0000
0000
0000
F87C
F87C
F87C
F87C
F87C
F87C
F87C
F87C
F87C
F87C
F87C
F87C
F87C
F87C
F87C
F87C
F87C
F87C
F87C
F87C
F87C
F87C
F87C
FC7C
7FFC
7FFC
3FFC
1E7C
ENDCHAR
STARTCHAR 00FB
ENCODING 251
SWIDTH 684 0
DWIDTH 19 0
BBX 14 36 2 0
BITMAP
07E0
0FF0
0FF0
1E78
1E78
3E7C
0000
0000
F87C
F87C
F87C
F87C
F87C
F87C
F87C
F87C
F87C
F87C
F87C
F87C
F87C
F87C
F87C
F87C
F87C
F87C
F87C
F87C
F87C
F87C
F87C
FC7C
7FFC
7FFC
3FFC
1E7C
ENDCHAR
STARTCHAR 00FC
ENCODING 252
SWIDTH 684 0
DWIDTH 19 0
BBX 15 34 2 0
BITMAP
7C3E
7C3E
7C3E
7C3E
0000
0000
F87C
F87C
F87C
F87C
F87C
F87C
F87C
F87C
F87C
F87C
F87C
F87C
F87C
F87C
F87C
F87C
F87C
F87C
F87C
F87C
F87C
F87C
F87C
FC7C
7FFC
7FFC
3FFC
1E7C
ENDCHAR
STARTCHAR 00FD
ENCODING 253
SWIDTH 576 0
DWIDTH 16 0
BBX 14 41 1 -4
BITMAP
0020
01E0
07E0
1FE0
1FE0
1E00
0000
0000
0000
F83C
F87C
F87C
F87C
787C
7878
7878
7878
7C78
7C78
3CF8
3CF0
3CF0
3CF0
3CF0
3CF0
1EF0
1EE0
1EE0
1EE0
1FE0
0FE0
0FE0
0FC0
0FC0
0FC0
0FC0
0FC0
7F80
7F80
7F80
7F00
ENDCHAR
STARTCHAR 00FE
ENCODING 254
SWIDTH 684 0
DWIDTH 19 0
BBX 14 38 2 -5
BITMAP
F800
F800
F800
F800
F800
F9F0
FBF8
FFF8
FFFC
FC7C
FC7C
F87C
F87C
F87C
F87C
F87C
F87C
F87C
F87C
F87C
F87C
F87C
F87C
F87C
F87C
F87C
F87C
FC7C
FC7C
FFFC
FFF8
FBF8
F9E0
F800
F800
F800
F800
F800
ENDCHAR
STARTCHAR 00FF
ENCODING 255
SWIDTH 576 0
DWIDTH 16 0
BBX 14 38 1 -4
BITMAP
F87C
F87C
F87C
F87C
0000
0000
F83C
F87C
F87C
F87C
787C
7878
7878
7878
7C78
7C78
3CF8
3CF0
3CF0
3CF0
3CF0
3CF0
1EF0
1EE0
1EE0
1EE0
1FE0
0FE0
0FE0
0FC0
0FC0
0FC0
0FC0
0FC0
7F80
7F80
7F80
7F00
ENDCHAR
STARTCHAR 0100
ENCODING 256
SWIDTH 648 0
DWIDTH 18 0
BBX 16 38 1 0
BITMAP
1FF0
1FF0
1FF0
0000
0000
0000
07E0
0FE0
0FF0
0FF0
0FF0
0FF0
0FF0
0FF0
1FF8
1FF8
1E78
1E78
1E78
1E78
1E78
3E7C
3E7C
3E3C
3C3C
3C3C
3C3C
7C3E
7FFE
7FFE
7FFE
7FFE
781E
781E
F81F
F81F
F81F
F81F
ENDCHAR
STARTCHAR 0101
ENCODING 257
SWIDTH 648 0
DWIDTH 18 0
BBX 14 33 2 0
BITMAP
1FF0
1FF0
1FF0
0000
0000
0FC0
3FF0
3FF8
7FF8
7CFC
787C
F87C
F87C
F87C
007C
00FC
03FC
0FFC
3F7C
7C7C
787C
F87C
F87C
F87C
F87C
F87C
F87C
F87C
FCFC
FFFC
7FFC
7F7C
1E7C
ENDCHAR
STARTCHAR 0102
ENCODING 258
SWIDTH 648 0
DWIDTH 18 0
BBX 16 39 1 0
BITMAP
1C1C
1E38
0FF8
0FF0
03E0
0000
0000
07E0
0FE0
0FF0
0FF0
0FF0
0FF0
0FF0
0FF0
1FF8
1FF8
1E78
1E78
1E78
1E78
1E78
3E7C
3E7C
3E3C
3C3C
3C3C
3C3C
7C3E
7FFE
7FFE
7FFE
7FFE
781E
781E
F81F
F81F
F81F
F81F
ENDCHAR
STARTCHAR 0103
ENCODING 259
SWIDTH 648 0
DWIDTH 18 0
BBX 14 34 2 0
BITMAP
3838
3C70
1FF0
1FE0
07C0
0000
0FC0
3FF0
3FF8
7FF8
7CFC
787C
F87C
F87C
F87C
007C
00FC
03FC
0FFC
3F7C
7C7C
787C
F87C
F87C
F87C
F87C
F87C
F87C
F87C
FCFC
FFFC
7FFC
7F7C
1E7C
ENDCHAR
STARTCHAR 0104
ENCODING 260
SWIDTH 648 0
DWIDTH 18 0
BBX 16 43 1 -11
BITMAP
07E0
0FE0
0FF0
0FF0
0FF0
0FF0
0FF0
0FF0
1FF8
1FF8
1E78
1E78
1E78
1E78
1E78
3E7C
3E7C
3E3C
3C3C
3C3C
3C3C
7C3E
7FFE
7FFE
7FFE
7FFE
781E
781E
F81F
F81F
F81F
F81F
0038
0070
00E0
01E0
01C0
01C0
01C0
01E0
01FE
00FE
007E
ENDCHAR
STARTCHAR 0105
ENCODING 261
SWIDTH 648 0
DWIDTH 18 0
BBX 14 39 2 -11
BITMAP
0FC0
3FF0
3FF8
7FF8
7CFC
787C
F87C
F87C
F87C
007C
00FC
03FC
0FFC
3F7C
7C7C
787C
F87C
F87C
F87C
F87C
F87C
F87C
F87C
FCFC
FFFC
7FFC
7F7C
1E7C
0070
00E0
01C0
03C0
0380
0380
0380
03C0
03FC
01FC
00FC
ENDCHAR
STARTCHAR 0106
ENCODING 262
SWIDTH 648 0
DWIDTH 18 0
BBX 14 42 2 0
BITMAP
0010
00F0
03F0
0FF0
0FF0
0F00
0000
0000
0000
0000
0FC0
1FF0
3FF8
7FF8
7C7C
F87C
F87C
F87C
F87C
F87C
F87C
F87C
F87C
F800
F800
F800
F800
F800
F800
F87C
F87C
F87C
F87C
F87C
F87C
F87C
F87C
7C7C
7FF8
3FF8
1FF0
0FC0
ENDCHAR
STARTCHAR 0107
ENCODING 263
SWIDTH 648 0
DWIDTH 18 0
BBX 14 37 2 0
BITMAP
0010
00F0
03F0
0FF0
0FF0
0F00
0000
0000
0000
0FC0
3FF0
7FF0
7FF8
7CF8
F87C
F87C
F87C
F87C
F87C
F87C
F800
F800
F800
F800
F800
F800
F87C
F87C
F87C
F87C
F87C
F878
7CF8
7FF8
7FF0
3FF0
0FC0
ENDCHAR
STARTCHAR 0108
ENCODING 264
SWIDTH 648 0
DWIDTH 18 0
BBX 14 41 2 0
BITMAP
0FC0
1FE0
1FE0
3CF0
3CF0
7CF8
0000
0000
0000
0FC0
1FF0
3FF8
7FF8
7C7C
F87C
F87C
F87C
F87C
F87C
F87C
F87C
F87C
F800
F800
F800
F800
F800
F800
F87C
F87C
F87C
F87C
F87C
F87C
F87C
F87C
7C7C
7FF8
3FF8
1FF0
0FC0
ENDCHAR
STARTCHAR 0109
ENCODING 265
SWIDTH 648 0
DWIDTH 18 0
BBX 14 36 2 0
BITMAP
0FC0
1FE0
1FE0
3CF0
3CF0
7CF8
0000
0000
0FC0
3FF0
7FF0
7FF8
7CF8
F87C
F87C
F87C
F87C
F87C
F87C
F800
F800
F800
F800
F800
F800
F87C
F87C
F87C
F87C
F87C
F878
7CF8
7FF8
7FF0
3FF0
0FC0
ENDCHAR
STARTCHAR 010A
ENCODING 266
SWIDTH 648 0
DWIDTH 18 0
BBX 14 39 2 0
BITMAP
07C0
07C0
07C0
07C0
0000
0000
0000
0FC0
1FF0
3FF8
7FF8
7C7C
F87C
F87C
F87C
F87C
F87C
F87C
F87C
F87C
F800
F800
F800
F800
F800
F800
F87C
F87C
F87C
F87C
F87C
F87C
F87C
F87C
7C7C
7FF8
3FF8
1FF0
0FC0
ENDCHAR
STARTCHAR 010B
ENCODING 267
SWIDTH 648 0
DWIDTH 18 0
BBX 14 34 2 0
BITMAP
07C0
07C0
07C0
07C0
0000
0000
0FC0
3FF0
7FF0
7FF8
7CF8
F87C
F87C
F87C
F87C
F87C
F87C
F800
F800
F800
F800
F800
F800
F87C
F87C
F87C
F87C
F87C
F878
7CF8
7FF8
7FF0
3FF0
0FC0
ENDCHAR
STARTCHAR 010C
ENCODING 268
SWIDTH 648 0
DWIDTH 18 0
BBX 14 41 2 0
BITMAP
7CF8
3CF0
3CF0
1FE0
1FE0
0FC0
0000
0000
0000
0FC0
1FF0
3FF8
7FF8
7C7C
F87C
F87C
F87C
F87C
F87C
F87C
F87C
F87C
F800
F800
F800
F800
F800
F800
F87C
F87C
F87C
F87C
F87C
F87C
F87C
F87C
7C7C
7FF8
3FF8
1FF0
0FC0
ENDCHAR
STARTCHAR 010D
ENCODING 269
SWIDTH 648 0
DWIDTH 18 0
BBX 14 36 2 0
BITMAP
7CF8
3CF0
3CF0
1FE0
1FE0
0FC0
0000
0000
0FC0
3FF0
7FF0
7FF8
7CF8
F87C
F87C
F87C
F87C
F87C
F87C
F800
F800
F800
F800
F800
F800
F87C
F87C
F87C
F87C
F87C
F878
7CF8
7FF8
7FF0
3FF0
0FC0
ENDCHAR
STARTCHAR 010E
ENCODING 270
SWIDTH 684 0
DWIDTH 19 0
BBX 15 41 2 0
BITMAP
7CF8
3CF0
3CF0
1FE0
1FE0
0FC0
0000
0000
0000
FFE0
FFF0
FFF8
FFFC
F87C
F87C
F87E
F83E
F83E
F83E
F83E
F83E
F83E
F83E
F83E
F83E
F83E
F83E
F83E
F83E
F83E
F83E
F83E
F83E
F83E
F83C
F87C
F87C
FFFC
FFF8
FFF0
FFE0
ENDCHAR
STARTCHAR 010F
ENCODING 271
SWIDTH 684 0
DWIDTH 19 0
BBX 23 33 2 0
BITMAP
007CFE
007CFE
007CFE
007CFE
007CFE
1F7C1E
3FFC1C
7FFC1C
7FFC3C
FCFC38
F87C38
F87C38
F87C78
F87C00
F87C00
F87C00
F87C00
F87C00
F87C00
F87C00
F87C00
F87C00
F87C00
F87C00
F87C00
F87C00
F87C00
F87C00
FCFC00
7FFC00
7FFC00
3F7C00
1E7C00
ENDCHAR
STARTCHAR 0110
ENCODING 272
SWIDTH 684 0
DWIDTH 19 0
BBX 16 32 1 0
BITMAP
7FF0
7FF8
7FFC
7FFE
7C3E
7C3E
7C3F
7C1F
7C1F
7C1F
7C1F
7C1F
7C1F
FF9F
FF9F
FF9F
7C1F
7C1F
7C1F
7C1F
7C1F
7C1F
7C1F
7C1F
7C1F
7C1E
7C3E
7C3E
7FFE
7FFC
7FF8
7FF0
ENDCHAR
STARTCHAR 0111
ENCODING 273
SWIDTH 684 0
DWIDTH 19 0
BBX 16 33 2 0
BITMAP
007C
007C
01FF
01FF
01FF
1F7C
3FFC
7FFC
7FFC
FCFC
F87C
F87C
F87C
F87C
F87C
F87C
F87C
F87C
F87C
F87C
F87C
F87C
F87C
F87C
F87C
F87C
F87C
F87C
FCFC
7FFC
7FFC
3F7C
1E7C
ENDCHAR
STARTCHAR 0112
ENCODING 274
SWIDTH 540 0
DWIDTH 15 0
BBX 12 38 2 0
BITMAP
3FE0
3FE0
3FE0
0000
0000
0000
FFE0
FFE0
FFE0
FFE0
F800
F800
F800
F800
F800
F800
F800
F800
F800
FFE0
FFE0
FFE0
FFE0
F800
F800
F800
F800
F800
F800
F800
F800
F800
F800
F800
FFF0
FFF0
FFF0
FFF0
ENDCHAR
STARTCHAR 0113
ENCODING 275
SWIDTH 648 0
DWIDTH 18 0
BBX 14 33 2 0
BITMAP
1FF0
1FF0
1FF0
0000
0000
0FC0
3FF0
7FF8
7FF8
7CF8
F87C
F87C
F87C
F87C
F87C
F87C
FFFC
FFFC
FFFC
F800
F800
F800
F87C
F87C
F87C
F87C
F87C
F87C
7CF8
7FF8
7FF8
3FF0
0FC0
ENDCHAR
STARTCHAR 0114
ENCODING 276
SWIDTH 540 0
DWIDTH 15 0
BBX 12 39 2 0
BITMAP
7070
78E0
3FE0
3FC0
0F80
0000
0000
FFE0
FFE0
FFE0
FFE0
F800
F800
F800
F800
F800
F800
F800
F800
F800
FFE0
FFE0
FFE0
FFE0
F800
F800
F800
F800
F800
F800
F800
F800
F800
F800
F800
FFF0
FFF0
FFF0
FFF0
ENDCHAR
STARTCHAR 0115
ENCODING 277
SWIDTH 648 0
DWIDTH 18 0
BBX 14 34 2 0
BITMAP
3838
3C70
1FF0
1FE0
07C0
0000
0FC0
3FF0
7FF8
7FF8
7CF8
F87C
F87C
F87C
F87C
F87C
F87C
FFFC
FFFC
FFFC
F800
F800
F800
F87C
F87C
F87C
F87C
F87C
F87C
7CF8
7FF8
7FF8
3FF0
0FC0
ENDCHAR
STARTCHAR 0116
ENCODING 278
SWIDTH 540 0
DWIDTH 15 0
BBX 12 39 2 0
BITMAP
0F80
0F80
0F80
0F80
0000
0000
0000
FFE0
FFE0
FFE0
FFE0
F800
F800
F800
F800
F800
F800
F800
F800
F800
FFE0
FFE0
FFE0
FFE0
F800
F800
F800
F800
F800
F800
F800
F800
F800
F800
F800
FFF0
FFF0
FFF0
FFF0
ENDCHAR
STARTCHAR 0117
ENCODING 279
SWIDTH 648 0
DWIDTH 18 0
BBX 14 34 2 0
BITMAP
07C0
07C0
07C0
07C0
0000
0000
0FC0
3FF0
7FF8
7FF8
7CF8
F87C
F87C
F87C
F87C
F87C
F87C
FFFC
FFFC
FFFC
F800
F800
F800
F87C
F87C
F87C
F87C
F87C
F87C
7CF8
7FF8
7FF8
3FF0
0FC0
ENDCHAR
STARTCHAR 0118
ENCODING 280
SWIDTH 540 0
DWIDTH 15 0
BBX 12 43 2 -11
BITMAP
FFE0
FFE0
FFE0
FFE0
F800
F800
F800
F800
F800
F800
F800
F800
F800
FFE0
FFE0
FFE0
FFE0
F800
F800
F800
F800
F800
F800
F800
F800
F800
F800
F800
FFF0
FFF0
FFF0
FFF0
0380
0700
0E00
1E00
1C00
1C00
1C00
1E00
1FE0
0FE0
07E0
ENDCHAR
STARTCHAR 0119
ENCODING 281
SWIDTH 648 0
DWIDTH 18 0
BBX 14 39 2 -11
BITMAP
0FC0
3FF0
7FF8
7FF8
7CF8
F87C
F87C
F87C
F87C
F87C
F87C
FFFC
FFFC
FFFC
F800
F800
F800
F87C
F87C
F87C
F87C
F87C
F87C
7CF8
7FF8
7FF8
3FF0
0FC0
0380
0700
0E00
1E00
1C00
1C00
1C00
1E00
1FE0
0FE0
07E0
ENDCHAR
STARTCHAR 011A
ENCODING 282
SWIDTH 540 0
DWIDTH 15 0
BBX 12 41 2 0
BITMAP
F9F0
79E0
79E0
3FC0
3FC0
1F80
0000
0000
0000
FFE0
FFE0
FFE0
FFE0
F800
F800
F800
F800
F800
F800
F800
F800
F800
FFE0
FFE0
FFE0
FFE0
F800
F800
F800
F800
F800
F800
F800
F800
F800
F800
F800
FFF0
FFF0
FFF0
FFF0
ENDCHAR
STARTCHAR 011B
ENCODING 283
SWIDTH 648 0
DWIDTH 18 0
BBX 14 36 2 0
BITMAP
7CF8
3CF0
3CF0
1FE0
1FE0
0FC0
0000
0000
0FC0
3FF0
7FF8
7FF8
7CF8
F87C
F87C
F87C
F87C
F87C
F87C
FFFC
FFFC
FFFC
F800
F800
F800
F87C
F87C
F87C
F87C
F87C
F87C
7CF8
7FF8
7FF8
3FF0
0FC0
ENDCHAR
STARTCHAR 011C
ENCODING 284
SWIDTH 684 0
DWIDTH 19 0
BBX 14 41 2 0
BITMAP
0FC0
1FE0
1FE0
3CF0
3CF0
7CF8
0000
0000
0000
0FE0
1FF0
3FF8
7FFC
7C7C
F87C
F83C
F83C
F83C
F83C
F83C
F800
F800
F800
F9FC
F9FC
F9FC
F9FC
F83C
F83C
F83C
F83C
F83C
F83C
F83C
F83C
F87C
7C7C
7FFC
3FEC
1FCC
0F8C
ENDCHAR
STARTCHAR 011D
ENCODING 285
SWIDTH 648 0
DWIDTH 18 0
BBX 14 40 2 -4
BITMAP
07E0
0FF0
0FF0
1E78
1E78
3E7C
0000
0000
1F7C
3FFC
7FFC
7FFC
FCFC
F87C
F87C
F87C
F87C
F87C
F87C
F87C
F87C
F87C
F87C
F87C
F87C
F87C
F87C
F87C
FCFC
7FFC
7FFC
3FFC
1F7C
007C
007C
60FC
7FF8
FFF8
7FF0
1FC0
ENDCHAR
STARTCHAR 011E
ENCODING 286
SWIDTH 684 0
DWIDTH 19 0
BBX 14 39 2 0
BITMAP
3838
3C70
1FF0
1FE0
07C0
0000
0000
0FE0
1FF0
3FF8
7FFC
7C7C
F87C
F83C
F83C
F83C
F83C
F83C
F800
F800
F800
F9FC
F9FC
F9FC
F9FC
F83C
F83C
F83C
F83C
F83C
F83C
F83C
F83C
F87C
7C7C
7FFC
3FEC
1FCC
0F8C
ENDCHAR
STARTCHAR 011F
ENCODING 287
SWIDTH 648 0
DWIDTH 18 0
BBX 14 38 2 -4
BITMAP
3838
3C70
1FF0
1FE0
07C0
0000
1F7C
3FFC
7FFC
7FFC
FCFC
F87C
F87C
F87C
F87C
F87C
F87C
F87C
F87C
F87C
F87C
F87C
F87C
F87C
F87C
F87C
FCFC
7FFC
7FFC
3FFC
1F7C
007C
007C
60FC
7FF8
FFF8
7FF0
1FC0
ENDCHAR
STARTCHAR 0120
ENCODING 288
SWIDTH 684 0
DWIDTH 19 0
BBX 14 39 2 0
BITMAP
07C0
07C0
07C0
07C0
0000
0000
0000
0FE0
1FF0
3FF8
7FFC
7C7C
F87C
F83C
F83C
F83C
F83C
F83C
F800
F800
F800
F9FC
F9FC
F9FC
F9FC
F83C
F83C
F83C
F83C
F83C
F83C
F83C
F83C
F87C
7C7C
7FFC
3FEC
1FCC
0F8C
ENDCHAR
STARTCHAR 0121
ENCODING 289
SWIDTH 648 0
DWIDTH 18 0
BBX 14 38 2 -4
BITMAP
07C0
07C0
07C0
07C0
0000
0000
1F7C
3FFC
7FFC
7FFC
FCFC
F87C
F87C
F87C
F87C
F87C
F87C
F87C
F87C
F87C
F87C
F87C
F87C
F87C
F87C
F87C
FCFC
7FFC
7FFC
3FFC
1F7C
007C
007C
60FC
7FF8
FFF8
7FF0
1FC0
ENDCHAR
STARTCHAR 0122
ENCODING 290
SWIDTH 684 0
DWIDTH 19 0
BBX 14 44 2 -12
BITMAP
0FE0
1FF0
3FF8
7FFC
7C7C
F87C
F83C
F83C
F83C
F83C
F83C
F800
F800
F800
F9FC
F9FC
F9FC
F9FC
F83C
F83C
F83C
F83C
F83C
F83C
F83C
F83C
F87C
7C7C
7FFC
3FEC
1FCC
0F8C
0000
0000
0F80
0F80
0F80
0F80
0F80
0380
0380
0380
0300
0300
ENDCHAR
STARTCHAR 0123
ENCODING 291
SWIDTH 648 0
DWIDTH 18 0
BBX 14 45 2 -4
BITMAP
0380
0300
0300
0700
0700
0700
07C0
07C0
07C0
07C0
07C0
0000
0000
1F7C
3FFC
7FFC
7FFC
FCFC
F87C
F87C
F87C
F87C
F87C
F87C
F87C
F87C
F87C
F87C
F87C
F87C
F87C
F87C
F87C
FCFC
7FFC
7FFC
3FFC
1F7C
007C
007C
60FC
7FF8
FFF8
7FF0
1FC0
ENDCHAR
STARTCHAR 0124
ENCODING 292
SWIDTH 684 0
DWIDTH 19 0
BBX 15 41 2 0
BITMAP
07E0
0FF0
0FF0
1E78
1E78
3E7C
0000
0000
0000
F83E
F83E
F83E
F83E
F83E
F83E
F83E
F83E
F83E
F83E
F83E
F83E
F83E
FFFE
FFFE
FFFE
FFFE
F83E
F83E
F83E
F83E
F83E
F83E
F83E
F83E
F83E
F83E
F83E
F83E
F83E
F83E
F83E
ENDCHAR
STARTCHAR 0125
ENCODING 293
SWIDTH 684 0
DWIDTH 19 0
BBX 15 41 2 0
BITMAP
0FC0
1FE0
1FE0
3CF0
3CF0
7CF8
0000
0000
F800
F800
F800
F800
F800
F8F0
FBF8
FBFC
FFFC
FC7C
FC3E
F83E
F83E
F83E
F83E
F83E
F83E
F83E
F83E
F83E
F83E
F83E
F83E
F83E
F83E
F83E
F83E
F83E
F83E
F83E
F83E
F83E
F83E
ENDCHAR
STARTCHAR 0126
ENCODING 294
SWIDTH 684 0
DWIDTH 19 0
BBX 18 32 1 0
BITMAP
7C1F00
7C1F00
7C1F00
7C1F00
FFFFC0
FFFFC0
7C1F00
7C1F00
7C1F00
7C1F00
7C1F00
7C1F00
7C1F00
7FFF00
7FFF00
7FFF00
7FFF00
7C1F00
7C1F00
7C1F00
7C1F00
7C1F00
7C1F00
7C1F00
7C1F00
7C1F00
7C1F00
7C1F00
7C1F00
7C1F00
7C1F00
7C1F00
ENDCHAR
STARTCHAR 0127
ENCODING 295
SWIDTH 684 0
DWIDTH 19 0
BBX 17 33 0 0
BITMAP
3E0000
3E0000
FFF000
FFF000
3E0000
3E3C00
3EFE00
3EFF00
3FFF00
3F1F00
3F0F80
3E0F80
3E0F80
3E0F80
3E0F80
3E0F80
3E0F80
3E0F80
3E0F80
3E0F80
3E0F80
3E0F80
3E0F80
3E0F80
3E0F80
3E0F80
3E0F80
3E0F80
3E0F80
3E0F80
3E0F80
3E0F80
3E0F80
ENDCHAR
STARTCHAR 0128
ENCODING 296
SWIDTH 360 0
DWIDTH 10 0
BBX 13 40 -1 0
BITMAP
3C38
7FF0
FFF0
63F0
00E0
0000
0000
0000
0F80
0F80
0F80
0F80
0F80
0F80
0F80
0F80
0F80
0F80
0F80
0F80
0F80
0F80
0F80
0F80
0F80
0F80
0F80
0F80
0F80
0F80
0F80
0F80
0F80
0F80
0F80
0F80
0F80
0F80
0F80
0F80
ENDCHAR
STARTCHAR 0129
ENCODING 297
SWIDTH 360 0
DWIDTH 10 0
BBX 13 35 -1 0
BITMAP
3C38
7FF0
FFF0
63F0
00E0
0000
0000
0F00
0F00
0F00
0F00
0F00
0F00
0F00
0F00
0F00
0F00
0F00
0F00
0F00
0F00
0F00
0F00
0F00
0F00
0F00
0F00
0F00
0F00
0F00
0F00
0F00
0F00
0F00
0F00
ENDCHAR
STARTCHAR 012A
ENCODING 298
SWIDTH 360 0
DWIDTH 10 0
BBX 9 38 1 0
BITMAP
FF80
FF80
FF80
0000
0000
0000
3E00
3E00
3E00
3E00
3E00
3E00
3E00
3E00
3E00
3E00
3E00
3E00
3E00
3E00
3E00
3E00
3E00
3E00
3E00
3E00
3E00
3E00
3E00
3E00
3E00
3E00
3E00
3E00
3E00
3E00
3E00
3E00
ENDCHAR
STARTCHAR 012B
ENCODING 299
SWIDTH 360 0
DWIDTH 10 0
BBX 9 33 0 0
BITMAP
FF80
FF80
FF80
0000
0000
1E00
1E00
1E00
1E00
1E00
1E00
1E00
1E00
1E00
1E00
1E00
1E00
1E00
1E00
1E00
1E00
1E00
1E00
1E00
1E00
1E00
1E00
1E00
1E00
1E00
1E00
1E00
1E00
ENDCHAR
STARTCHAR 012C
ENCODING 300
SWIDTH 360 0
DWIDTH 10 0
BBX 11 39 0 0
BITMAP
E0E0
F1C0
7FC0
7F80
1F00
0000
0000
1F00
1F00
1F00
1F00
1F00
1F00
1F00
1F00
1F00
1F00
1F00
1F00
1F00
1F00
1F00
1F00
1F00
1F00
1F00
1F00
1F00
1F00
1F00
1F00
1F00
1F00
1F00
1F00
1F00
1F00
1F00
1F00
ENDCHAR
STARTCHAR 012D
ENCODING 301
SWIDTH 360 0
DWIDTH 10 0
BBX 11 34 -1 0
BITMAP
E0E0
F1C0
7FC0
7F80
1F00
0000
0F00
0F00
0F00
0F00
0F00
0F00
0F00
0F00
0F00
0F00
0F00
0F00
0F00
0F00
0F00
0F00
0F00
0F00
0F00
0F00
0F00
0F00
0F00
0F00
0F00
0F00
0F00
0F00
ENDCHAR
STARTCHAR 012E
ENCODING 302
SWIDTH 360 0
DWIDTH 10 0
BBX 8 43 0 -11
BITMAP
1F
1F
1F
1F
1F
1F
1F
1F
1F
1F
1F
1F
1F
1F
1F
1F
1F
1F
1F
1F
1F
1F
1F
1F
1F
1F
1F
1F
1F
1F
1F
1F
1C
38
70
F0
E0
E0
E0
F0
FF
7F
3F
ENDCHAR
STARTCHAR 012F
ENCODING 303
SWIDTH 360 0
DWIDTH 10 0
BBX 8 45 0 -11
BITMAP
1F
1F
1F
1F
00
00
1E
1E
1E
1E
1E
1E
1E
1E
1E
1E
1E
1E
1E
1E
1E
1E
1E
1E
1E
1E
1E
1E
1E
1E
1E
1E
1E
1E
1C
38
70
F0
E0
E0
E0
F0
FF
7F
3F
ENDCHAR
STARTCHAR 0130
ENCODING 304
SWIDTH 360 0
DWIDTH 10 0
BBX 5 39 3 0
BITMAP
F8
F8
F8
F8
00
00
00
F8
F8
F8
F8
F8
F8
F8
F8
F8
F8
F8
F8
F8
F8
F8
F8
F8
F8
F8
F8
F8
F8
F8
F8
F8
F8
F8
F8
F8
F8
F8
F8
ENDCHAR
STARTCHAR 0131
ENCODING 305
SWIDTH 360 0
DWIDTH 10 0
BBX 4 28 3 0
BITMAP
F0
F0
F0
F0
F0
F0
F0
F0
F0
F0
F0
F0
F0
F0
F0
F0
F0
F0
F0
F0
F0
F0
F0
F0
F0
F0
F0
F0
ENDCHAR
STARTCHAR 0132
ENCODING 306
SWIDTH 972 0
DWIDTH 27 0
BBX 22 32 3 0
BITMAP
F8007C
F8007C
F8007C
F8007C
F8007C
F8007C
F8007C
F8007C
F8007C
F8007C
F8007C
F8007C
F8007C
F8007C
F8007C
F8007C
F8007C
F8007C
F8007C
F8F87C
F8F87C
F8F87C
F8F87C
F8F87C
F8F87C
F8F87C
F8F878
F87CF8
F87FF8
F87FF0
F83FE0
F80FC0
ENDCHAR
STARTCHAR 0133
ENCODING 307
SWIDTH 720 0
DWIDTH 20 0
BBX 16 38 2 -3
BITMAP
001F
F81F
F81F
F81F
F800
0000
0000
781F
781F
781F
781F
781F
781F
781F
781F
781F
781F
781F
781F
781F
781F
781F
781F
781F
781F
781F
781F
781F
781F
781F
781F
781F
781F
781F
787F
007F
007E
007C
ENDCHAR
STARTCHAR 0134
ENCODING 308
SWIDTH 612 0
DWIDTH 17 0
BBX 16 41 1 0
BITMAP
01F8
03FC
03FC
079E
079E
0F9F
0000
0000
0000
007C
007C
007C
007C
007C
007C
007C
007C
007C
007C
007C
007C
007C
007C
007C
007C
007C
007C
007C
F87C
F87C
F87C
F87C
F87C
F87C
F87C
F878
7CF8
7FF8
7FF0
3FE0
0FC0
ENDCHAR
STARTCHAR 0135
ENCODING 309
SWIDTH 396 0
DWIDTH 11 0
BBX 12 39 0 -3
BITMAP
1F80
3FC0
3FC0
79E0
79E0
F9F0
0000
0000
1F00
1F00
1F00
1F00
1F00
1F00
1F00
1F00
1F00
1F00
1F00
1F00
1F00
1F00
1F00
1F00
1F00
1F00
1F00
1F00
1F00
1F00
1F00
1F00
1F00
1F00
1F00
7F00
7F00
7E00
7C00
ENDCHAR
STARTCHAR 0136
ENCODING 310
SWIDTH 648 0
DWIDTH 18 0
BBX 16 44 2 -12
BITMAP
F83F
F83E
F83E
F87C
F87C
F87C
F8F8
F8F8
F8F8
F9F0
F9F0
FBF0
FBE0
FBE0
FFE0
FFC0
FFC0
FBE0
FBE0
FBE0
F9F0
F9F0
F9F8
F8F8
F8F8
F8FC
F87C
F87C
F87E
F83E
F83E
F81F
0000
0000
0F80
0F80
0F80
0F80
0F80
0380
0380
0380
0300
0300
ENDCHAR
STARTCHAR 0137
ENCODING 311
SWIDTH 612 0
DWIDTH 17 0
BBX 15 45 2 -12
BITMAP
F800
F800
F800
F800
F800
F83E
F83E
F87C
F87C
F8F8
F8F8
F8F8
F9F0
F9F0
F9E0
FBE0
FBE0
FBC0
FFC0
FFC0
FBC0
FBE0
FBE0
F9F0
F9F0
F8F0
F8F8
F8F8
F87C
F87C
F87C
F83E
F83E
0000
0000
1F00
1F00
1F00
1F00
1F00
0700
0700
0700
0600
0600
ENDCHAR
STARTCHAR 0138
ENCODING 312
SWIDTH 612 0
DWIDTH 17 0
BBX 15 28 2 0
BITMAP
F83E
F83E
F87C
F87C
F8F8
F8F8
F8F8
F9F0
F9F0
F9E0
FBE0
FBE0
FBC0
FFC0
FFC0
FBC0
FBE0
FBE0
F9F0
F9F0
F8F0
F8F8
F8F8
F87C
F87C
F87C
F83E
F83E
ENDCHAR
STARTCHAR 0139
ENCODING 313
SWIDTH 504 0
DWIDTH 14 0
BBX 12 42 2 0
BITMAP
0080
0780
1F80
7F80
7F80
7800
0000
0000
0000
0000
F800
F800
F800
F800
F800
F800
F800
F800
F800
F800
F800
F800
F800
F800
F800
F800
F800
F800
F800
F800
F800
F800
F800
F800
F800
F800
F800
F800
FFF0
FFF0
FFF0
FFF0
ENDCHAR
STARTCHAR 013A
ENCODING 314
SWIDTH 360 0
DWIDTH 10 0
BBX 8 42 1 0
BITMAP
01
0F
3F
FF
FF
F0
00
00
00
7C
7C
7C
7C
7C
7C
7C
7C
7C
7C
7C
7C
7C
7C
7C
7C
7C
7C
7C
7C
7C
7C
7C
7C
7C
7C
7C
7C
7C
7C
7C
7C
7C
ENDCHAR
STARTCHAR 013B
ENCODING 315
SWIDTH 504 0
DWIDTH 14 0
BBX 12 44 2 -12
BITMAP
F800
F800
F800
F800
F800
F800
F800
F800
F800
F800
F800
F800
F800
F800
F800
F800
F800
F800
F800
F800
F800
F800
F800
F800
F800
F800
F800
F800
FFF0
FFF0
FFF0
FFF0
0000
0000
3E00
3E00
3E00
3E00
3E00
0E00
0E00
0E00
0C00
0C00
ENDCHAR
STARTCHAR 013C
ENCODING 316
SWIDTH 360 0
DWIDTH 10 0
BBX 5 45 2 -12
BITMAP
F8
F8
F8
F8
F8
F8
F8
F8
F8
F8
F8
F8
F8
F8
F8
F8
F8
F8
F8
F8
F8
F8
F8
F8
F8
F8
F8
F8
F8
F8
F8
F8
F8
00
00
F8
F8
F8
F8
F8
38
38
38
30
30
ENDCHAR
STARTCHAR 013D
ENCODING 317
SWIDTH 504 0
DWIDTH 14 0
BBX 15 32 2 0
BITMAP
F83E
F83E
F83E
F83E
F83E
F80E
F80E
F80E
F80C
F80C
F81C
F800
F800
F800
F800
F800
F800
F800
F800
F800
F800
F800
F800
F800
F800
F800
F800
F800
FFF0
FFF0
FFF0
FFF0
ENDCHAR
STARTCHAR 013E
ENCODING 318
SWIDTH 360 0
DWIDTH 10 0
BBX 5 45 2 -12
BITMAP
F8
F8
F8
F8
F8
F8
F8
F8
F8
F8
F8
F8
F8
F8
F8
F8
F8
F8
F8
F8
F8
F8
F8
F8
F8
F8
F8
F8
F8
F8
F8
F8
F8
00
00
F8
F8
F8
F8
F8
38
38
38
30
30
ENDCHAR
STARTCHAR 013F
ENCODING 319
SWIDTH 504 0
DWIDTH 14 0
BBX 13 32 2 0
BITMAP
F800
F800
F800
F800
F800
F800
F800
F800
F800
F800
F8F8
F8F8
F8F8
F8F8
F800
F800
F800
F800
F800
F800
F800
F800
F800
F800
F800
F800
F800
F800
FFF0
FFF0
FFF0
FFF0
ENDCHAR
STARTCHAR 0140
ENCODING 320
SWIDTH 684 0
DWIDTH 19 0
BBX 14 33 3 0
BITMAP
F000
F000
F000
F000
F000
F000
F000
F000
F000
F000
F000
F000
F000
F000
F000
F07C
F07C
F07C
F07C
F000
F000
F000
F000
F000
F000
F000
F000
F000
F000
F000
F000
F000
F000
ENDCHAR
STARTCHAR 0141
ENCODING 321
SWIDTH 540 0
DWIDTH 15 0
BBX 14 32 0 0
BITMAP
3E00
3E00
3E00
3E00
3E00
3E00
3E00
3E00
3E00
3E00
3E00
3E10
3EE0
3FE0
3FE0
FF80
FE00
FE00
BE00
3E00
3E00
3E00
3E00
3E00
3E00
3E00
3E00
3E00
3FFC
3FFC
3FFC
3FFC
ENDCHAR
STARTCHAR 0142
ENCODING 322
SWIDTH 432 0
DWIDTH 12 0
BBX 10 33 1 0
BITMAP
3E00
3E00
3E00
3E00
3E00
3E00
3E00
3E00
3E00
3E00
3E00
3E00
3EC0
3FC0
3FC0
7F80
FE00
FE00
FE00
BE00
3E00
3E00
3E00
3E00
3E00
3E00
3E00
3E00
3E00
3E00
3E00
3E00
3E00
ENDCHAR
STARTCHAR 0143
ENCODING 323
SWIDTH 720 0
DWIDTH 20 0
BBX 15 42 2 0
BITMAP
0010
00F0
03F0
0FF0
0FF0
0F00
0000
0000
0000
0000
F81E
F81E
F81E
FC1E
FC1E
FC1E
FE1E
FE1E
FE1E
FF1E
FF1E
FF1E
FF9E
FF9E
FBDE
FBDE
FBDE
F9FE
F9FE
F9FE
F8FE
F8FE
F8FE
F87E
F87E
F83E
F83E
F83E
F81E
F81E
F81E
F80E
ENDCHAR
STARTCHAR 0144
ENCODING 324
SWIDTH 684 0
DWIDTH 19 0
BBX 15 37 2 0
BITMAP
0010
00F0
03F0
0FF0
0FF0
0F00
0000
0000
0000
F8F0
FBF8
FBFC
FFFC
FC7E
FC3E
F83E
F83E
F83E
F83E
F83E
F83E
F83E
F83E
F83E
F83E
F83E
F83E
F83E
F83E
F83E
F83E
F83E
F83E
F83E
F83E
F83E
F83E
ENDCHAR
STARTCHAR 0145
ENCODING 325
SWIDTH 720 0
DWIDTH 20 0
BBX 15 44 2 -12
BITMAP
F81E
F81E
F81E
FC1E
FC1E
FC1E
FE1E
FE1E
FE1E
FF1E
FF1E
FF1E
FF9E
FF9E
FBDE
FBDE
FBDE
F9FE
F9FE
F9FE
F8FE
F8FE
F8FE
F87E
F87E
F83E
F83E
F83E
F81E
F81E
F81E
F80E
0000
0000
07C0
07C0
07C0
07C0
07C0
01C0
01C0
01C0
0180
0180
ENDCHAR
STARTCHAR 0146
ENCODING 326
SWIDTH 684 0
DWIDTH 19 0
BBX 15 40 2 -12
BITMAP
F8F0
FBF8
FBFC
FFFC
FC7E
FC3E
F83E
F83E
F83E
F83E
F83E
F83E
F83E
F83E
F83E
F83E
F83E
F83E
F83E
F83E
F83E
F83E
F83E
F83E
F83E
F83E
F83E
F83E
0000
0000
0F80
0F80
0F80
0F80
0F80
0380
0380
0380
0300
0300
ENDCHAR
STARTCHAR 0147
ENCODING 327
SWIDTH 720 0
DWIDTH 20 0
BBX 15 41 2 0
BITMAP
3E7C
1E78
1E78
0FF0
0FF0
07E0
0000
0000
0000
F81E
F81E
F81E
FC1E
FC1E
FC1E
FE1E
FE1E
FE1E
FF1E
FF1E
FF1E
FF9E
FF9E
FBDE
FBDE
FBDE
F9FE
F9FE
F9FE
F8FE
F8FE
F8FE
F87E
F87E
F83E
F83E
F83E
F81E
F81E
F81E
F80E
ENDCHAR
STARTCHAR 0148
ENCODING 328
SWIDTH 684 0
DWIDTH 19 0
BBX 15 36 2 0
BITMAP
7CF8
3CF0
3CF0
1FE0
1FE0
0FC0
0000
0000
F8F0
FBF8
FBFC
FFFC
FC7E
FC3E
F83E
F83E
F83E
F83E
F83E
F83E
F83E
F83E
F83E
F83E
F83E
F83E
F83E
F83E
F83E
F83E
F83E
F83E
F83E
F83E
F83E
F83E
ENDCHAR
STARTCHAR 014C
ENCODING 332
SWIDTH 684 0
DWIDTH 19 0
BBX 14 38 2 0
BITMAP
1FF0
1FF0
1FF0
0000
0000
0000
0FC0
1FF0
3FF8
7FFC
7C7C
F87C
F87C
F87C
F87C
F87C
F87C
F87C
F87C
F87C
F87C
F87C
F87C
F87C
F87C
F87C
F87C
F87C
F87C
F87C
F87C
F87C
F87C
7C7C
7FFC
3FF8
1FF0
0FC0
ENDCHAR
STARTCHAR 014D
ENCODING 333
SWIDTH 648 0
DWIDTH 18 0
BBX 14 33 2 0
BITMAP
1FF0
1FF0
1FF0
0000
0000
0FC0
3FF0
3FF0
7FF8
7CF8
F87C
F87C
F87C
F87C
F87C
F87C
F87C
F87C
F87C
F87C
F87C
F87C
F87C
F87C
F87C
F87C
F87C
F87C
7CF8
7FF8
7FF8
3FF0
0FC0
ENDCHAR
STARTCHAR 014E
ENCODING 334
SWIDTH 684 0
DWIDTH 19 0
BBX 14 39 2 0
BITMAP
3838
3C70
1FF0
1FE0
07C0
0000
0000
0FC0
1FF0
3FF8
7FFC
7C7C
F87C
F87C
F87C
F87C
F87C
F87C
F87C
F87C
F87C
F87C
F87C
F87C
F87C
F87C
F87C
F87C
F87C
F87C
F87C
F87C
F87C
F87C
7C7C
7FFC
3FF8
1FF0
0FC0
ENDCHAR
STARTCHAR 014F
ENCODING 335
SWIDTH 648 0
DWIDTH 18 0
BBX 14 34 2 0
BITMAP
3838
3C70
1FF0
1FE0
07C0
0000
0FC0
3FF0
3FF0
7FF8
7CF8
F87C
F87C
F87C
F87C
F87C
F87C
F87C
F87C
F87C
F87C
F87C
F87C
F87C
F87C
F87C
F87C
F87C
F87C
7CF8
7FF8
7FF8
3FF0
0FC0
ENDCHAR
STARTCHAR 0150
ENCODING 336
SWIDTH 684 0
DWIDTH 19 0
BBX 15 45 2 0
BITMAP
0810
0E1C
1F3E
1E3C
1C78
3C78
38F0
30E0
71C0
0000
0000
0000
0000
0FC0
1FF0
3FF8
7FFC
7C7C
F87C
F87C
F87C
F87C
F87C
F87C
F87C
F87C
F87C
F87C
F87C
F87C
F87C
F87C
F87C
F87C
F87C
F87C
F87C
F87C
F87C
F87C
7C7C
7FFC
3FF8
1FF0
0FC0
ENDCHAR
STARTCHAR 0151
ENCODING 337
SWIDTH 648 0
DWIDTH 18 0
BBX 15 40 2 0
BITMAP
0810
0E1C
1F3E
1E3C
1C78
3C78
38F0
30E0
71C0
0000
0000
0000
0FC0
3FF0
3FF0
7FF8
7CF8
F87C
F87C
F87C
F87C
F87C
F87C
F87C
F87C
F87C
F87C
F87C
F87C
F87C
F87C
F87C
F87C
F87C
F87C
7CF8
7FF8
7FF8
3FF0
0FC0
ENDCHAR
STARTCHAR 0152
ENCODING 338
SWIDTH 828 0
DWIDTH 23 0
BBX 19 32 2 0
BITMAP
0FFFE0
3FFFE0
7FFFE0
7FFFE0
7C7C00
F87C00
F87C00
F87C00
F87C00
F87C00
F87C00
F87C00
F87C00
F87FE0
F87FE0
F87FE0
F87FE0
F87C00
F87C00
F87C00
F87C00
F87C00
F87C00
F87C00
F87C00
F87C00
F87C00
7C7C00
7FFFE0
7FFFE0
3FFFE0
0FFFE0
ENDCHAR
STARTCHAR 0153
ENCODING 339
SWIDTH 972 0
DWIDTH 27 0
BBX 23 28 2 0
BITMAP
0FC3E0
1FEFF8
3FFFFC
7FFFFC
7CFE7E
F87C3E
F87C3E
F87C3E
F87C3E
F87C3E
F87C3E
F87FFE
F87FFE
F87FFE
F87C00
F87C00
F87C00
F87C3E
F87C3E
F87C3E
F87C3E
F87C3E
F87C3E
7CFE7C
7FFFFC
7FFFFC
3FEFF8
0FC3E0
ENDCHAR
STARTCHAR 0154
ENCODING 340
SWIDTH 684 0
DWIDTH 19 0
BBX 15 42 2 0
BITMAP
0010
00F0
03F0
0FF0
0FF0
0F00
0000
0000
0000
0000
FFF0
FFF8
FFFC
FFFC
F87C
F87C
F83C
F83E
F83E
F83E
F83C
F87C
F87C
FFFC
FFF8
FFF8
FFFC
F87C
F87C
F83C
F83C
F83E
F83E
F83E
F83E
F83E
F83E
F83E
F83E
F83E
F83E
F83E
ENDCHAR
STARTCHAR 0155
ENCODING 341
SWIDTH 468 0
DWIDTH 13 0
BBX 10 37 2 0
BITMAP
0040
03C0
0FC0
3FC0
3FC0
3C00
0000
0000
0000
F8C0
FBC0
FBC0
FFC0
FE00
FC00
F800
F800
F800
F800
F800
F800
F800
F800
F800
F800
F800
F800
F800
F800
F800
F800
F800
F800
F800
F800
F800
F800
ENDCHAR
STARTCHAR 0156
ENCODING 342
SWIDTH 684 0
DWIDTH 19 0
BBX 15 44 2 -12
BITMAP
FFF0
FFF8
FFFC
FFFC
F87C
F87C
F83C
F83E
F83E
F83E
F83C
F87C
F87C
FFFC
FFF8
FFF8
FFFC
F87C
F87C
F83C
F83C
F83E
F83E
F83E
F83E
F83E
F83E
F83E
F83E
F83E
F83E
F83E
0000
0000
0F80
0F80
0F80
0F80
0F80
0380
0380
0380
0300
0300
ENDCHAR
STARTCHAR 0157
ENCODING 343
SWIDTH 468 0
DWIDTH 13 0
BBX 10 40 2 -12
BITMAP
F8C0
FBC0
FBC0
FFC0
FE00
FC00
F800
F800
F800
F800
F800
F800
F800
F800
F800
F800
F800
F800
F800
F800
F800
F800
F800
F800
F800
F800
F800
F800
0000
0000
7C00
7C00
7C00
7C00
7C00
1C00
1C00
1C00
1800
1800
ENDCHAR
STARTCHAR 0158
ENCODING 344
SWIDTH 684 0
DWIDTH 19 0
BBX 15 41 2 0
BITMAP
7CF8
3CF0
3CF0
1FE0
1FE0
0FC0
0000
0000
0000
FFF0
FFF8
FFFC
FFFC
F87C
F87C
F83C
F83E
F83E
F83E
F83C
F87C
F87C
FFFC
FFF8
FFF8
FFFC
F87C
F87C
F83C
F83C
F83E
F83E
F83E
F83E
F83E
F83E
F83E
F83E
F83E
F83E
F83E
ENDCHAR
STARTCHAR 0159
ENCODING 345
SWIDTH 468 0
DWIDTH 13 0
BBX 12 36 1 0
BITMAP
F9F0
79E0
79E0
3FC0
3FC0
1F80
0000
0000
7C60
7DE0
7DE0
7FE0
7F00
7E00
7C00
7C00
7C00
7C00
7C00
7C00
7C00
7C00
7C00
7C00
7C00
7C00
7C00
7C00
7C00
7C00
7C00
7C00
7C00
7C00
7C00
7C00
ENDCHAR
STARTCHAR 015A
ENCODING 346
SWIDTH 612 0
DWIDTH 17 0
BBX 14 41 2 0
BITMAP
0020
01E0
07E0
1FE0
1FE0
1E00
0000
0000
0000
1FC0
3FE0
7FF0
FFF0
F8F8
F8F8
F078
F078
F878
F878
FC00
7E00
7F00
3F80
3FC0
1FC0
0FE0
07F0
03F0
01F8
F8F8
F8F8
F87C
F87C
F87C
F87C
F878
F8F8
7FF8
7FF0
3FF0
0FC0
ENDCHAR
STARTCHAR 015B
ENCODING 347
SWIDTH 576 0
DWIDTH 16 0
BBX 13 37 2 0
BITMAP
0020
01E0
07E0
1FE0
1FE0
1E00
0000
0000
0000
1F80
7FE0
7FE0
FFF0
F9F0
F0F0
F0F0
F0F0
F8F0
F800
FC00
7E00
3F00
3F80
0FC0
07E0
03F0
01F0
F1F0
F0F8
F0F8
F0F8
F0F8
F9F8
FFF0
7FF0
3FE0
1F80
ENDCHAR
STARTCHAR 015C
ENCODING 348
SWIDTH 612 0
DWIDTH 17 0
BBX 14 41 2 0
BITMAP
0FC0
1FE0
1FE0
3CF0
3CF0
7CF8
0000
0000
0000
1FC0
3FE0
7FF0
FFF0
F8F8
F8F8
F078
F078
F878
F878
FC00
7E00
7F00
3F80
3FC0
1FC0
0FE0
07F0
03F0
01F8
F8F8
F8F8
F87C
F87C
F87C
F87C
F878
F8F8
7FF8
7FF0
3FF0
0FC0
ENDCHAR
STARTCHAR 015D
ENCODING 349
SWIDTH 576 0
DWIDTH 16 0
BBX 13 36 2 0
BITMAP
1F80
3FC0
3FC0
79E0
79E0
F9F0
0000
0000
1F80
7FE0
7FE0
FFF0
F9F0
F0F0
F0F0
F0F0
F8F0
F800
FC00
7E00
3F00
3F80
0FC0
07E0
03F0
01F0
F1F0
F0F8
F0F8
F0F8
F0F8
F9F8
FFF0
7FF0
3FE0
1F80
ENDCHAR
STARTCHAR 015E
ENCODING 350
SWIDTH 612 0
DWIDTH 17 0
BBX 14 43 2 -11
BITMAP
1FC0
3FE0
7FF0
FFF0
F8F8
F8F8
F078
F078
F878
F878
FC00
7E00
7F00
3F80
3FC0
1FC0
0FE0
07F0
03F0
01F8
F8F8
F8F8
F87C
F87C
F87C
F87C
F878
F8F8
7FF8
7FF0
3FF0
0FC0
0600
0E00
0F80
03C0
01C0
01E0
01E0
03E0
1FC0
1FC0
1F00
ENDCHAR
STARTCHAR 015F
ENCODING 351
SWIDTH 576 0
DWIDTH 16 0
BBX 13 39 2 -11
BITMAP
1F80
7FE0
7FE0
FFF0
F9F0
F0F0
F0F0
F0F0
F8F0
F800
FC00
7E00
3F00
3F80
0FC0
07E0
03F0
01F0
F1F0
F0F8
F0F8
F0F8
F0F8
F9F8
FFF0
7FF0
3FE0
1F80
0C00
1C00
1F00
0780
0380
03C0
03C0
07C0
3F80
3F80
3E00
ENDCHAR
STARTCHAR 0160
ENCODING 352
SWIDTH 612 0
DWIDTH 17 0
BBX 14 41 2 0
BITMAP
7CF8
3CF0
3CF0
1FE0
1FE0
0FC0
0000
0000
0000
1FC0
3FE0
7FF0
FFF0
F8F8
F8F8
F078
F078
F878
F878
FC00
7E00
7F00
3F80
3FC0
1FC0
0FE0
07F0
03F0
01F8
F8F8
F8F8
F87C
F87C
F87C
F87C
F878
F8F8
7FF8
7FF0
3FF0
0FC0
ENDCHAR
STARTCHAR 0161
ENCODING 353
SWIDTH 576 0
DWIDTH 16 0
BBX 13 36 2 0
BITMAP
F9F0
79E0
79E0
3FC0
3FC0
1F80
0000
0000
1F80
7FE0
7FE0
FFF0
F9F0
F0F0
F0F0
F0F0
F8F0
F800
FC00
7E00
3F00
3F80
0FC0
07E0
03F0
01F0
F1F0
F0F8
F0F8
F0F8
F0F8
F9F8
FFF0
7FF0
3FE0
1F80
ENDCHAR
STARTCHAR 0164
ENCODING 356
SWIDTH 468 0
DWIDTH 13 0
BBX 13 41 0 0
BITMAP
7CF8
3CF0
3CF0
1FE0
1FE0
0FC0
0000
0000
0000
FFF8
FFF8
FFF8
FFF8
0F80
0F80
0F80
0F80
0F80
0F80
0F80
0F80
0F80
0F80
0F80
0F80
0F80
0F80
0F80
0F80
0F80
0F80
0F80
0F80
0F80
0F80
0F80
0F80
0F80
0F80
0F80
0F80
ENDCHAR
STARTCHAR 0165
ENCODING 357
SWIDTH 432 0
DWIDTH 12 0
BBX 19 33 1 0
BITMAP
000FE0
3E0FE0
3E0FE0
3E0FE0
3E0FE0
FFC1E0
FFC1C0
FFC1C0
FFC3C0
3E0380
3E0380
3E0380
3E0780
3E0000
3E0000
3E0000
3E0000
3E0000
3E0000
3E0000
3E0000
3E0000
3E0000
3E0000
3E0000
3E0000
3E0000
3E0000
3E0000
3FC000
3FC000
1FC000
0FC000
ENDCHAR
STARTCHAR 0168
ENCODING 360
SWIDTH 684 0
DWIDTH 19 0
BBX 15 40 2 0
BITMAP
1E1C
3FF8
7FF8
31F8
0070
0000
0000
0000
F83E
F83E
F83E
F83E
F83E
F83E
F83E
F83E
F83E
F83E
F83E
F83E
F83E
F83E
F83E
F83E
F83E
F83E
F83E
F83E
F83E
F83E
F83E
F83E
F83E
F83E
787C
7C7C
7FFC
3FF8
1FF0
0FE0
ENDCHAR
STARTCHAR 0169
ENCODING 361
SWIDTH 684 0
DWIDTH 19 0
BBX 14 35 2 0
BITMAP
1E1C
3FF8
7FF8
31F8
0070
0000
0000
F87C
F87C
F87C
F87C
F87C
F87C
F87C
F87C
F87C
F87C
F87C
F87C
F87C
F87C
F87C
F87C
F87C
F87C
F87C
F87C
F87C
F87C
F87C
FC7C
7FFC
7FFC
3FFC
1E7C
ENDCHAR
STARTCHAR 016A
ENCODING 362
SWIDTH 684 0
DWIDTH 19 0
BBX 15 38 2 0
BITMAP
1FF0
1FF0
1FF0
0000
0000
0000
F83E
F83E
F83E
F83E
F83E
F83E
F83E
F83E
F83E
F83E
F83E
F83E
F83E
F83E
F83E
F83E
F83E
F83E
F83E
F83E
F83E
F83E
F83E
F83E
F83E
F83E
787C
7C7C
7FFC
3FF8
1FF0
0FE0
ENDCHAR
STARTCHAR 016B
ENCODING 363
SWIDTH 684 0
DWIDTH 19 0
BBX 14 33 2 0
BITMAP
1FF0
1FF0
1FF0
0000
0000
F87C
F87C
F87C
F87C
F87C
F87C
F87C
F87C
F87C
F87C
F87C
F87C
F87C
F87C
F87C
F87C
F87C
F87C
F87C
F87C
F87C
F87C
F87C
FC7C
7FFC
7FFC
3FFC
1E7C
ENDCHAR
STARTCHAR 016C
ENCODING 364
SWIDTH 684 0
DWIDTH 19 0
BBX 15 39 2 0
BITMAP
3838
3C70
1FF0
1FE0
07C0
0000
0000
F83E
F83E
F83E
F83E
F83E
F83E
F83E
F83E
F83E
F83E
F83E
F83E
F83E
F83E
F83E
F83E
F83E
F83E
F83E
F83E
F83E
F83E
F83E
F83E
F83E
F83E
787C
7C7C
7FFC
3FF8
1FF0
0FE0
ENDCHAR
STARTCHAR 016D
ENCODING 365
SWIDTH 684 0
DWIDTH 19 0
BBX 14 34 2 0
BITMAP
3838
3C70
1FF0
1FE0
07C0
0000
F87C
F87C
F87C
F87C
F87C
F87C
F87C
F87C
F87C
F87C
F87C
F87C
F87C
F87C
F87C
F87C
F87C
F87C
F87C
F87C
F87C
F87C
F87C
FC7C
7FFC
7FFC
3FFC
1E7C
ENDCHAR
STARTCHAR 016E
ENCODING 366
SWIDTH 684 0
DWIDTH 19 0
BBX 15 43 2 0
BITMAP
07C0
0FE0
1C70
1830
1830
1C70
0FE0
07C0
0000
0000
0000
F83E
F83E
F83E
F83E
F83E
F83E
F83E
F83E
F83E
F83E
F83E
F83E
F83E
F83E
F83E
F83E
F83E
F83E
F83E
F83E
F83E
F83E
F83E
F83E
F83E
F83E
787C
7C7C
7FFC
3FF8
1FF0
0FE0
ENDCHAR
STARTCHAR 016F
ENCODING 367
SWIDTH 684 0
DWIDTH 19 0
BBX 14 38 2 0
BITMAP
07C0
0FE0
1C70
1830
1830
1C70
0FE0
07C0
0000
0000
F87C
F87C
F87C
F87C
F87C
F87C
F87C
F87C
F87C
F87C
F87C
F87C
F87C
F87C
F87C
F87C
F87C
F87C
F87C
F87C
F87C
F87C
F87C
FC7C
7FFC
7FFC
3FFC
1E7C
ENDCHAR
STARTCHAR 0170
ENCODING 368
SWIDTH 684 0
DWIDTH 19 0
BBX 15 45 2 0
BITMAP
0810
0E1C
1F3E
1E3C
1C78
3C78
38F0
30E0
71C0
0000
0000
0000
0000
F83E
F83E
F83E
F83E
F83E
F83E
F83E
F83E
F83E
F83E
F83E
F83E
F83E
F83E
F83E
F83E
F83E
F83E
F83E
F83E
F83E
F83E
F83E
F83E
F83E
F83E
787C
7C7C
7FFC
3FF8
1FF0
0FE0
ENDCHAR
STARTCHAR 0171
ENCODING 369
SWIDTH 684 0
DWIDTH 19 0
BBX 15 40 2 0
BITMAP
0810
0E1C
1F3E
1E3C
1C78
3C78
38F0
30E0
71C0
0000
0000
0000
F87C
F87C
F87C
F87C
F87C
F87C
F87C
F87C
F87C
F87C
F87C
F87C
F87C
F87C
F87C
F87C
F87C
F87C
F87C
F87C
F87C
F87C
F87C
FC7C
7FFC
7FFC
3FFC
1E7C
ENDCHAR
STARTCHAR 0172
ENCODING 370
SWIDTH 684 0
DWIDTH 19 0
BBX 15 43 2 -11
BITMAP
F83E
F83E
F83E
F83E
F83E
F83E
F83E
F83E
F83E
F83E
F83E
F83E
F83E
F83E
F83E
F83E
F83E
F83E
F83E
F83E
F83E
F83E
F83E
F83E
F83E
F83E
787C
7C7C
7FFC
3FF8
1FF0
0FE0
0380
0700
0E00
1E00
1C00
1C00
1C00
1E00
1FE0
0FE0
07E0
ENDCHAR
STARTCHAR 0173
ENCODING 371
SWIDTH 684 0
DWIDTH 19 0
BBX 15 39 2 -11
BITMAP
F87C
F87C
F87C
F87C
F87C
F87C
F87C
F87C
F87C
F87C
F87C
F87C
F87C
F87C
F87C
F87C
F87C
F87C
F87C
F87C
F87C
F87C
F87C
FC7C
7FFC
7FFC
3FFC
1E7C
0038
0070
00E0
01E0
01C0
01C0
01C0
01E0
01FE
00FE
007E
ENDCHAR
STARTCHAR 0174
ENCODING 372
SWIDTH 936 0
DWIDTH 26 0
BBX 24 41 1 0
BITMAP
007E00
00FF00
00FF00
01E780
01E780
03E7C0
000000
000000
000000
F83C1F
F83C1E
F83C1E
783C1E
787E1E
787E1E
787E1E
787E3E
787E3E
7C7E3E
7C7E3C
3CFF3C
3CFF3C
3CFF3C
3CF73C
3CE73C
3CE73C
3CE73C
3CE778
1FE7F8
1FE7F8
1FE3F8
1FC3F8
1FC3F8
1FC3F8
1FC3F8
1FC3F8
0FC3F0
0FC3F0
0F81F0
0F81F0
0F81F0
ENDCHAR
STARTCHAR 0175
ENCODING 373
SWIDTH 828 0
DWIDTH 23 0
BBX 21 36 1 0
BITMAP
00FC00
01FE00
01FE00
03CF00
03CF00
07CF80
000000
000000
F0F878
F0F878
F0F878
F0F878
F0F878
78FC78
79FC78
79FCF0
79FCF0
79DCF0
79DCF0
79DEF0
79DEF0
3DCEF0
3FCEF0
3FCEE0
3F8EE0
3F8FE0
3F8FE0
3F8FE0
1F87E0
1F87E0
1F87E0
1F07C0
1F07C0
1F07C0
1F07C0
1F07C0
ENDCHAR
STARTCHAR 0176
ENCODING 374
SWIDTH 576 0
DWIDTH 16 0
BBX 16 41 0 0
BITMAP
07E0
0FF0
0FF0
1E78
1E78
3E7C
0000
0000
0000
F81F
781E
7C3E
7C3E
7C3E
3C3C
3E3C
3E7C
1E7C
1E78
1F78
1FF8
0FF0
0FF0
0FF0
07F0
07E0
07E0
07E0
03E0
03E0
03E0
03E0
03E0
03E0
03E0
03E0
03E0
03E0
03E0
03E0
03E0
ENDCHAR
STARTCHAR 0177
ENCODING 375
SWIDTH 576 0
DWIDTH 16 0
BBX 14 40 1 -4
BITMAP
0FC0
1FE0
1FE0
3CF0
3CF0
7CF8
0000
0000
F83C
F87C
F87C
F87C
787C
7878
7878
7878
7C78
7C78
3CF8
3CF0
3CF0
3CF0
3CF0
3CF0
1EF0
1EE0
1EE0
1EE0
1FE0
0FE0
0FE0
0FC0
0FC0
0FC0
0FC0
0FC0
7F80
7F80
7F80
7F00
ENDCHAR
STARTCHAR 0178
ENCODING 376
SWIDTH 576 0
DWIDTH 16 0
BBX 16 39 0 0
BITMAP
7C3E
7C3E
7C3E
7C3E
0000
0000
0000
F81F
781E
7C3E
7C3E
7C3E
3C3C
3E3C
3E7C
1E7C
1E78
1F78
1FF8
0FF0
0FF0
0FF0
07F0
07E0
07E0
07E0
03E0
03E0
03E0
03E0
03E0
03E0
03E0
03E0
03E0
03E0
03E0
03E0
03E0
ENDCHAR
STARTCHAR 0179
ENCODING 377
SWIDTH 540 0
DWIDTH 15 0
BBX 12 42 2 0
BITMAP
0020
01E0
07E0
1FE0
1FE0
1E00
0000
0000
0000
0000
FFF0
FFF0
FFF0
FFF0
03F0
03E0
03E0
03E0
07C0
07C0
07C0
0FC0
0F80
0F80
0F80
1F80
1F00
1F00
3F00
3E00
3E00
3E00
7E00
7C00
7C00
FC00
F800
F800
FFF0
FFF0
FFF0
FFF0
ENDCHAR
STARTCHAR 017A
ENCODING 378
SWIDTH 468 0
DWIDTH 13 0
BBX 11 37 1 0
BITMAP
0020
01E0
07E0
1FE0
1FE0
1E00
0000
0000
0000
7FE0
7FE0
7FE0
7FE0
03E0
03E0
03C0
07C0
07C0
07C0
0F80
0F80
0F80
0F00
1F00
1F00
1F00
3E00
3E00
3E00
7C00
7C00
7C00
7C00
FFE0
FFE0
FFE0
FFE0
ENDCHAR
STARTCHAR 017B
ENCODING 379
SWIDTH 540 0
DWIDTH 15 0
BBX 12 39 2 0
BITMAP
0F80
0F80
0F80
0F80
0000
0000
0000
FFF0
FFF0
FFF0
FFF0
03F0
03E0
03E0
03E0
07C0
07C0
07C0
0FC0
0F80
0F80
0F80
1F80
1F00
1F00
3F00
3E00
3E00
3E00
7E00
7C00
7C00
FC00
F800
F800
FFF0
FFF0
FFF0
FFF0
ENDCHAR
STARTCHAR 017C
ENCODING 380
SWIDTH 468 0
DWIDTH 13 0
BBX 11 34 1 0
BITMAP
0F80
0F80
0F80
0F80
0000
0000
7FE0
7FE0
7FE0
7FE0
03E0
03E0
03C0
07C0
07C0
07C0
0F80
0F80
0F80
0F00
1F00
1F00
1F00
3E00
3E00
3E00
7C00
7C00
7C00
7C00
FFE0
FFE0
FFE0
FFE0
ENDCHAR
STARTCHAR 017D
ENCODING 381
SWIDTH 540 0
DWIDTH 15 0
BBX 12 41 2 0
BITMAP
F9F0
79E0
79E0
3FC0
3FC0
1F80
0000
0000
0000
FFF0
FFF0
FFF0
FFF0
03F0
03E0
03E0
03E0
07C0
07C0
07C0
0FC0
0F80
0F80
0F80
1F80
1F00
1F00
3F00
3E00
3E00
3E00
7E00
7C00
7C00
FC00
F800
F800
FFF0
FFF0
FFF0
FFF0
ENDCHAR
STARTCHAR 017E
ENCODING 382
SWIDTH 468 0
DWIDTH 13 0
BBX 13 36 1 0
BITMAP
7CF8
3CF0
3CF0
1FE0
1FE0
0FC0
0000
0000
7FE0
7FE0
7FE0
7FE0
03E0
03E0
03C0
07C0
07C0
07C0
0F80
0F80
0F80
0F00
1F00
1F00
1F00
3E00
3E00
3E00
7C00
7C00
7C00
7C00
FFE0
FFE0
FFE0
FFE0
ENDCHAR
STARTCHAR 0192
ENCODING 402
SWIDTH 504 0
DWIDTH 14 0
BBX 10 33 2 0
BITMAP
0FC0
1FC0
1FC0
1FC0
1F00
1E00
1E00
1E00
1E00
FFC0
FFC0
FFC0
FFC0
1E00
1E00
1E00
1E00
1E00
1E00
1E00
1E00
1E00
1E00
1E00
1E00
1E00
1E00
1E00
3E00
FE00
FE00
FE00
FC00
ENDCHAR
STARTCHAR 01C4
ENCODING 452
SWIDTH 1224 0
DWIDTH 34 0
BBX 31 41 2 0
BITMAP
00001F3E
00000F3C
00000F3C
000007F8
000007F8
000003F0
00000000
00000000
00000000
FFE01FFE
FFF01FFE
FFF81FFE
FFFC1FFE
F87C007E
F87C007C
F87E007C
F83E007C
F83E00F8
F83E00F8
F83E00F8
F83E01F8
F83E01F0
F83E01F0
F83E01F0
F83E03F0
F83E03E0
F83E03E0
F83E07E0
F83E07C0
F83E07C0
F83E07C0
F83E0FC0
F83E0F80
F83E0F80
F83C1F80
F87C1F00
F87C1F00
FFFC1FFE
FFF81FFE
FFF01FFE
FFE01FFE
ENDCHAR
STARTCHAR 01C5
ENCODING 453
SWIDTH 1152 0
DWIDTH 32 0
BBX 30 36 2 0
BITMAP
00003E7C
00001E78
00001E78
00000FF0
FFE00FF0
FFF007E0
FFF80000
FFFC0000
F87C1FF8
F87C1FF8
F87E1FF8
F83E1FF8
F83E00F8
F83E00F8
F83E00F0
F83E01F0
F83E01F0
F83E01F0
F83E03E0
F83E03E0
F83E03E0
F83E03C0
F83E07C0
F83E07C0
F83E07C0
F83E0F80
F83E0F80
F83E0F80
F83E1F00
F83C1F00
F87C1F00
F87C1F00
FFFC3FF8
FFF83FF8
FFF03FF8
FFE03FF8
ENDCHAR
STARTCHAR 01C6
ENCODING 454
SWIDTH 1152 0
DWIDTH 32 0
BBX 30 36 2 0
BITMAP
00003E7C
00001E78
00001E78
007C0FF0
007C0FF0
007C07E0
007C0000
007C0000
1F7C1FF8
3FFC1FF8
7FFC1FF8
7FFC1FF8
FCFC00F8
F87C00F8
F87C00F0
F87C01F0
F87C01F0
F87C01F0
F87C03E0
F87C03E0
F87C03E0
F87C03C0
F87C07C0
F87C07C0
F87C07C0
F87C0F80
F87C0F80
F87C0F80
F87C1F00
F87C1F00
F87C1F00
FCFC1F00
7FFC3FF8
7FFC3FF8
3F7C3FF8
1E7C3FF8
ENDCHAR
STARTCHAR 01C7
ENCODING 455
SWIDTH 1116 0
DWIDTH 31 0
BBX 27 32 2 0
BITMAP
F80003E0
F80003E0
F80003E0
F80003E0
F80003E0
F80003E0
F80003E0
F80003E0
F80003E0
F80003E0
F80003E0
F80003E0
F80003E0
F80003E0
F80003E0
F80003E0
F80003E0
F80003E0
F80003E0
F807C3E0
F807C3E0
F807C3E0
F807C3E0
F807C3E0
F807C3E0
F807C3E0
F807C3C0
F803E7C0
FFF3FFC0
FFF3FF80
FFF1FF00
FFF07E00
ENDCHAR
STARTCHAR 01C8
ENCODING 456
SWIDTH 900 0
DWIDTH 25 0
BBX 20 38 2 -3
BITMAP
0001F0
0001F0
0001F0
F801F0
F80000
F80000
F80000
F801F0
F801F0
F801F0
F801F0
F801F0
F801F0
F801F0
F801F0
F801F0
F801F0
F801F0
F801F0
F801F0
F801F0
F801F0
F801F0
F801F0
F801F0
F801F0
F801F0
F801F0
F801F0
F801F0
F801F0
FFF1F0
FFF1F0
FFF1F0
FFF7F0
0007F0
0007E0
0007C0
ENDCHAR
STARTCHAR 01C9
ENCODING 457
SWIDTH 720 0
DWIDTH 20 0
BBX 15 38 3 -3
BITMAP
003E
003E
F03E
F03E
F000
F000
F000
F03E
F03E
F03E
F03E
F03E
F03E
F03E
F03E
F03E
F03E
F03E
F03E
F03E
F03E
F03E
F03E
F03E
F03E
F03E
F03E
F03E
F03E
F03E
F03E
F03E
F03E
F03E
F0FE
00FE
00FC
00F8
ENDCHAR
STARTCHAR 01CA
ENCODING 458
SWIDTH 1332 0
DWIDTH 37 0
BBX 33 32 2 0
BITMAP
F81E000F80
F81E000F80
F81E000F80
FC1E000F80
FC1E000F80
FC1E000F80
FE1E000F80
FE1E000F80
FE1E000F80
FF1E000F80
FF1E000F80
FF1E000F80
FF9E000F80
FF9E000F80
FBDE000F80
FBDE000F80
FBDE000F80
F9FE000F80
F9FE000F80
F9FE1F0F80
F8FE1F0F80
F8FE1F0F80
F8FE1F0F80
F87E1F0F80
F87E1F0F80
F83E1F0F80
F83E1F0F00
F83E0F9F00
F81E0FFF00
F81E0FFE00
F81E07FC00
F80E01F800
ENDCHAR
STARTCHAR 01CB
ENCODING 459
SWIDTH 1080 0
DWIDTH 30 0
BBX 26 38 2 -3
BITMAP
000007C0
000007C0
000007C0
F81E07C0
F81E0000
F81E0000
FC1E0000
FC1E07C0
FC1E07C0
FE1E07C0
FE1E07C0
FE1E07C0
FF1E07C0
FF1E07C0
FF1E07C0
FF9E07C0
FF9E07C0
FBDE07C0
FBDE07C0
FBDE07C0
F9FE07C0
F9FE07C0
F9FE07C0
F8FE07C0
F8FE07C0
F8FE07C0
F87E07C0
F87E07C0
F83E07C0
F83E07C0
F83E07C0
F81E07C0
F81E07C0
F81E07C0
F80E1FC0
00001FC0
00001F80
00001F00
ENDCHAR
STARTCHAR 01CC
ENCODING 460
SWIDTH 1044 0
DWIDTH 29 0
BBX 25 38 2 -3
BITMAP
00000F80
00000F80
00000F80
00000F80
00000000
00000000
00000000
F8F00F80
FBF80F80
FBFC0F80
FFFC0F80
FC7E0F80
FC3E0F80
F83E0F80
F83E0F80
F83E0F80
F83E0F80
F83E0F80
F83E0F80
F83E0F80
F83E0F80
F83E0F80
F83E0F80
F83E0F80
F83E0F80
F83E0F80
F83E0F80
F83E0F80
F83E0F80
F83E0F80
F83E0F80
F83E0F80
F83E0F80
F83E0F80
F83E3F80
00003F80
00003F00
00003E00
ENDCHAR
STARTCHAR 01F1
ENCODING 497
SWIDTH 1224 0
DWIDTH 34 0
BBX 31 32 2 0
BITMAP
FFE01FFE
FFF01FFE
FFF81FFE
FFFC1FFE
F87C007E
F87C007C
F87E007C
F83E007C
F83E00F8
F83E00F8
F83E00F8
F83E01F8
F83E01F0
F83E01F0
F83E01F0
F83E03F0
F83E03E0
F83E03E0
F83E07E0
F83E07C0
F83E07C0
F83E07C0
F83E0FC0
F83E0F80
F83E0F80
F83C1F80
F87C1F00
F87C1F00
FFFC1FFE
FFF81FFE
FFF01FFE
FFE01FFE
ENDCHAR
STARTCHAR 01F2
ENCODING 498
SWIDTH 1152 0
DWIDTH 32 0
BBX 29 32 2 0
BITMAP
FFE00000
FFF00000
FFF80000
FFFC0000
F87C1FF8
F87C1FF8
F87E1FF8
F83E1FF8
F83E00F8
F83E00F8
F83E00F0
F83E01F0
F83E01F0
F83E01F0
F83E03E0
F83E03E0
F83E03E0
F83E03C0
F83E07C0
F83E07C0
F83E07C0
F83E0F80
F83E0F80
F83E0F80
F83E1F00
F83C1F00
F87C1F00
F87C1F00
FFFC3FF8
FFF83FF8
FFF03FF8
FFE03FF8
ENDCHAR
STARTCHAR 01F3
ENCODING 499
SWIDTH 1152 0
DWIDTH 32 0
BBX 29 33 2 0
BITMAP
007C0000
007C0000
007C0000
007C0000
007C0000
1F7C1FF8
3FFC1FF8
7FFC1FF8
7FFC1FF8
FCFC00F8
F87C00F8
F87C00F0
F87C01F0
F87C01F0
F87C01F0
F87C03E0
F87C03E0
F87C03E0
F87C03C0
F87C07C0
F87C07C0
F87C07C0
F87C0F80
F87C0F80
F87C0F80
F87C1F00
F87C1F00
F87C1F00
FCFC1F00
7FFC3FF8
7FFC3FF8
3F7C3FF8
1E7C3FF8
ENDCHAR
STARTCHAR 01F4
ENCODING 500
SWIDTH 684 0
DWIDTH 19 0
BBX 14 42 2 0
BITMAP
0010
00F0
03F0
0FF0
0FF0
0F00
0000
0000
0000
0000
0FE0
1FF0
3FF8
7FFC
7C7C
F87C
F83C
F83C
F83C
F83C
F83C
F800
F800
F800
F9FC
F9FC
F9FC
F9FC
F83C
F83C
F83C
F83C
F83C
F83C
F83C
F83C
F87C
7C7C
7FFC
3FEC
1FCC
0F8C
ENDCHAR
STARTCHAR 01F5
ENCODING 501
SWIDTH 648 0
DWIDTH 18 0
BBX 14 41 2 -4
BITMAP
0010
00F0
03F0
0FF0
0FF0
0F00
0000
0000
0000
1F7C
3FFC
7FFC
7FFC
FCFC
F87C
F87C
F87C
F87C
F87C
F87C
F87C
F87C
F87C
F87C
F87C
F87C
F87C
F87C
F87C
FCFC
7FFC
7FFC
3FFC
1F7C
007C
007C
60FC
7FF8
FFF8
7FF0
1FC0
ENDCHAR
STARTCHAR 0200
ENCODING 512
SWIDTH 648 0
DWIDTH 18 0
BBX 16 44 1 0
BITMAP
3060
F1E0
79E0
78F0
3C70
1C78
0E38
0E18
0410
0000
0000
0000
07E0
0FE0
0FF0
0FF0
0FF0
0FF0
0FF0
0FF0
1FF8
1FF8
1E78
1E78
1E78
1E78
1E78
3E7C
3E7C
3E3C
3C3C
3C3C
3C3C
7C3E
7FFE
7FFE
7FFE
7FFE
781E
781E
F81F
F81F
F81F
F81F
ENDCHAR
STARTCHAR 0201
ENCODING 513
SWIDTH 648 0
DWIDTH 18 0
BBX 14 39 2 0
BITMAP
3060
F1E0
79E0
78F0
3C70
1C78
0E38
0E18
0410
0000
0000
0FC0
3FF0
3FF8
7FF8
7CFC
787C
F87C
F87C
F87C
007C
00FC
03FC
0FFC
3F7C
7C7C
787C
F87C
F87C
F87C
F87C
F87C
F87C
F87C
FCFC
FFFC
7FFC
7F7C
1E7C
ENDCHAR
STARTCHAR 0202
ENCODING 514
SWIDTH 648 0
DWIDTH 18 0
BBX 16 41 1 0
BITMAP
07C0
1FE0
1FF0
3C70
3838
3838
0000
0000
0000
07E0
0FE0
0FF0
0FF0
0FF0
0FF0
0FF0
0FF0
1FF8
1FF8
1E78
1E78
1E78
1E78
1E78
3E7C
3E7C
3E3C
3C3C
3C3C
3C3C
7C3E
7FFE
7FFE
7FFE
7FFE
781E
781E
F81F
F81F
F81F
F81F
ENDCHAR
STARTCHAR 0203
ENCODING 515
SWIDTH 648 0
DWIDTH 18 0
BBX 14 36 2 0
BITMAP
07C0
1FE0
1FF0
3C70
3838
3838
0000
0000
0FC0
3FF0
3FF8
7FF8
7CFC
787C
F87C
F87C
F87C
007C
00FC
03FC
0FFC
3F7C
7C7C
787C
F87C
F87C
F87C
F87C
F87C
F87C
F87C
FCFC
FFFC
7FFC
7F7C
1E7C
ENDCHAR
STARTCHAR 0204
ENCODING 516
SWIDTH 540 0
DWIDTH 15 0
BBX 13 44 1 0
BITMAP
3060
F1E0
79E0
78F0
3C70
1C78
0E38
0E18
0410
0000
0000
0000
7FF0
7FF0
7FF0
7FF0
7C00
7C00
7C00
7C00
7C00
7C00
7C00
7C00
7C00
7FF0
7FF0
7FF0
7FF0
7C00
7C00
7C00
7C00
7C00
7C00
7C00
7C00
7C00
7C00
7C00
7FF8
7FF8
7FF8
7FF8
ENDCHAR
STARTCHAR 0205
ENCODING 517
SWIDTH 648 0
DWIDTH 18 0
BBX 15 39 1 0
BITMAP
3060
F1E0
79E0
78F0
3C70
1C78
0E38
0E18
0410
0000
0000
07E0
1FF8
3FFC
3FFC
3E7C
7C3E
7C3E
7C3E
7C3E
7C3E
7C3E
7FFE
7FFE
7FFE
7C00
7C00
7C00
7C3E
7C3E
7C3E
7C3E
7C3E
7C3E
3E7C
3FFC
3FFC
1FF8
07E0
ENDCHAR
STARTCHAR 0206
ENCODING 518
SWIDTH 540 0
DWIDTH 15 0
BBX 12 41 2 0
BITMAP
0F80
3FC0
3FE0
78E0
7070
7070
0000
0000
0000
FFE0
FFE0
FFE0
FFE0
F800
F800
F800
F800
F800
F800
F800
F800
F800
FFE0
FFE0
FFE0
FFE0
F800
F800
F800
F800
F800
F800
F800
F800
F800
F800
F800
FFF0
FFF0
FFF0
FFF0
ENDCHAR
STARTCHAR 0207
ENCODING 519
SWIDTH 648 0
DWIDTH 18 0
BBX 14 36 2 0
BITMAP
07C0
1FE0
1FF0
3C70
3838
3838
0000
0000
0FC0
3FF0
7FF8
7FF8
7CF8
F87C
F87C
F87C
F87C
F87C
F87C
FFFC
FFFC
FFFC
F800
F800
F800
F87C
F87C
F87C
F87C
F87C
F87C
7CF8
7FF8
7FF8
3FF0
0FC0
ENDCHAR
STARTCHAR 0208
ENCODING 520
SWIDTH 360 0
DWIDTH 10 0
BBX 13 44 -3 0
BITMAP
3060
F1E0
79E0
78F0
3C70
1C78
0E38
0E18
0410
0000
0000
0000
03E0
03E0
03E0
03E0
03E0
03E0
03E0
03E0
03E0
03E0
03E0
03E0
03E0
03E0
03E0
03E0
03E0
03E0
03E0
03E0
03E0
03E0
03E0
03E0
03E0
03E0
03E0
03E0
03E0
03E0
03E0
03E0
ENDCHAR
STARTCHAR 0209
ENCODING 521
SWIDTH 360 0
DWIDTH 10 0
BBX 13 39 -3 0
BITMAP
3060
F1E0
79E0
78F0
3C70
1C78
0E38
0E18
0410
0000
0000
03C0
03C0
03C0
03C0
03C0
03C0
03C0
03C0
03C0
03C0
03C0
03C0
03C0
03C0
03C0
03C0
03C0
03C0
03C0
03C0
03C0
03C0
03C0
03C0
03C0
03C0
03C0
03C0
ENDCHAR
STARTCHAR 020A
ENCODING 522
SWIDTH 360 0
DWIDTH 10 0
BBX 11 41 0 0
BITMAP
1F00
7F80
7FC0
F1C0
E0E0
E0E0
0000
0000
0000
1F00
1F00
1F00
1F00
1F00
1F00
1F00
1F00
1F00
1F00
1F00
1F00
1F00
1F00
1F00
1F00
1F00
1F00
1F00
1F00
1F00
1F00
1F00
1F00
1F00
1F00
1F00
1F00
1F00
1F00
1F00
1F00
ENDCHAR
STARTCHAR 020B
ENCODING 523
SWIDTH 360 0
DWIDTH 10 0
BBX 11 36 0 0
BITMAP
1F00
7F80
7FC0
F1C0
E0E0
E0E0
0000
0000
1E00
1E00
1E00
1E00
1E00
1E00
1E00
1E00
1E00
1E00
1E00
1E00
1E00
1E00
1E00
1E00
1E00
1E00
1E00
1E00
1E00
1E00
1E00
1E00
1E00
1E00
1E00
1E00
ENDCHAR
STARTCHAR 020C
ENCODING 524
SWIDTH 684 0
DWIDTH 19 0
BBX 14 44 2 0
BITMAP
3060
F1E0
79E0
78F0
3C70
1C78
0E38
0E18
0410
0000
0000
0000
0FC0
1FF0
3FF8
7FFC
7C7C
F87C
F87C
F87C
F87C
F87C
F87C
F87C
F87C
F87C
F87C
F87C
F87C
F87C
F87C
F87C
F87C
F87C
F87C
F87C
F87C
F87C
F87C
7C7C
7FFC
3FF8
1FF0
0FC0
ENDCHAR
STARTCHAR 020D
ENCODING 525
SWIDTH 648 0
DWIDTH 18 0
BBX 15 39 1 0
BITMAP
3060
F1E0
79E0
78F0
3C70
1C78
0E38
0E18
0410
0000
0000
07E0
1FF8
1FF8
3FFC
3E7C
7C3E
7C3E
7C3E
7C3E
7C3E
7C3E
7C3E
7C3E
7C3E
7C3E
7C3E
7C3E
7C3E
7C3E
7C3E
7C3E
7C3E
7C3E
3E7C
3FFC
3FFC
1FF8
07E0
ENDCHAR
STARTCHAR 020E
ENCODING 526
SWIDTH 684 0
DWIDTH 19 0
BBX 14 41 2 0
BITMAP
07C0
1FE0
1FF0
3C70
3838
3838
0000
0000
0000
0FC0
1FF0
3FF8
7FFC
7C7C
F87C
F87C
F87C
F87C
F87C
F87C
F87C
F87C
F87C
F87C
F87C
F87C
F87C
F87C
F87C
F87C
F87C
F87C
F87C
F87C
F87C
F87C
7C7C
7FFC
3FF8
1FF0
0FC0
ENDCHAR
STARTCHAR 020F
ENCODING 527
SWIDTH 648 0
DWIDTH 18 0
BBX 14 36 2 0
BITMAP
07C0
1FE0
1FF0
3C70
3838
3838
0000
0000
0FC0
3FF0
3FF0
7FF8
7CF8
F87C
F87C
F87C
F87C
F87C
F87C
F87C
F87C
F87C
F87C
F87C
F87C
F87C
F87C
F87C
F87C
F87C
F87C
7CF8
7FF8
7FF8
3FF0
0FC0
ENDCHAR
STARTCHAR 0210
ENCODING 528
SWIDTH 684 0
DWIDTH 19 0
BBX 15 44 2 0
BITMAP
3060
F1E0
79E0
78F0
3C70
1C78
0E38
0E18
0410
0000
0000
0000
FFF0
FFF8
FFFC
FFFC
F87C
F87C
F83C
F83E
F83E
F83E
F83C
F87C
F87C
FFFC
FFF8
FFF8
FFFC
F87C
F87C
F83C
F83C
F83E
F83E
F83E
F83E
F83E
F83E
F83E
F83E
F83E
F83E
F83E
ENDCHAR
STARTCHAR 0211
ENCODING 529
SWIDTH 468 0
DWIDTH 13 0
BBX 13 39 0 0
BITMAP
3060
F1E0
79E0
78F0
3C70
1C78
0E38
0E18
0410
0000
0000
3E30
3EF0
3EF0
3FF0
3F80
3F00
3E00
3E00
3E00
3E00
3E00
3E00
3E00
3E00
3E00
3E00
3E00
3E00
3E00
3E00
3E00
3E00
3E00
3E00
3E00
3E00
3E00
3E00
ENDCHAR
STARTCHAR 0212
ENCODING 530
SWIDTH 684 0
DWIDTH 19 0
BBX 15 41 2 0
BITMAP
07C0
1FE0
1FF0
3C70
3838
3838
0000
0000
0000
FFF0
FFF8
FFFC
FFFC
F87C
F87C
F83C
F83E
F83E
F83E
F83C
F87C
F87C
FFFC
FFF8
FFF8
FFFC
F87C
F87C
F83C
F83C
F83E
F83E
F83E
F83E
F83E
F83E
F83E
F83E
F83E
F83E
F83E
ENDCHAR
STARTCHAR 0213
ENCODING 531
SWIDTH 468 0
DWIDTH 13 0
BBX 11 36 2 0
BITMAP
1F00
7F80
7FC0
F1C0
E0E0
E0E0
0000
0000
F8C0
FBC0
FBC0
FFC0
FE00
FC00
F800
F800
F800
F800
F800
F800
F800
F800
F800
F800
F800
F800
F800
F800
F800
F800
F800
F800
F800
F800
F800
F800
ENDCHAR
STARTCHAR 0214
ENCODING 532
SWIDTH 684 0
DWIDTH 19 0
BBX 15 44 2 0
BITMAP
3060
F1E0
79E0
78F0
3C70
1C78
0E38
0E18
0410
0000
0000
0000
F83E
F83E
F83E
F83E
F83E
F83E
F83E
F83E
F83E
F83E
F83E
F83E
F83E
F83E
F83E
F83E
F83E
F83E
F83E
F83E
F83E
F83E
F83E
F83E
F83E
F83E
787C
7C7C
7FFC
3FF8
1FF0
0FE0
ENDCHAR
STARTCHAR 0215
ENCODING 533
SWIDTH 684 0
DWIDTH 19 0
BBX 14 39 2 0
BITMAP
3060
F1E0
79E0
78F0
3C70
1C78
0E38
0E18
0410
0000
0000
F87C
F87C
F87C
F87C
F87C
F87C
F87C
F87C
F87C
F87C
F87C
F87C
F87C
F87C
F87C
F87C
F87C
F87C
F87C
F87C
F87C
F87C
F87C
FC7C
7FFC
7FFC
3FFC
1E7C
ENDCHAR
STARTCHAR 0216
ENCODING 534
SWIDTH 684 0
DWIDTH 19 0
BBX 15 41 2 0
BITMAP
07C0
1FE0
1FF0
3C70
3838
3838
0000
0000
0000
F83E
F83E
F83E
F83E
F83E
F83E
F83E
F83E
F83E
F83E
F83E
F83E
F83E
F83E
F83E
F83E
F83E
F83E
F83E
F83E
F83E
F83E
F83E
F83E
F83E
F83E
787C
7C7C
7FFC
3FF8
1FF0
0FE0
ENDCHAR
STARTCHAR 0217
ENCODING 535
SWIDTH 684 0
DWIDTH 19 0
BBX 14 36 2 0
BITMAP
07C0
1FE0
1FF0
3C70
3838
3838
0000
0000
F87C
F87C
F87C
F87C
F87C
F87C
F87C
F87C
F87C
F87C
F87C
F87C
F87C
F87C
F87C
F87C
F87C
F87C
F87C
F87C
F87C
F87C
F87C
FC7C
7FFC
7FFC
3FFC
1E7C
ENDCHAR
STARTCHAR 0218
ENCODING 536
SWIDTH 612 0
DWIDTH 17 0
BBX 14 44 2 -12
BITMAP
1FC0
3FE0
7FF0
FFF0
F8F8
F8F8
F078
F078
F878
F878
FC00
7E00
7F00
3F80
3FC0
1FC0
0FE0
07F0
03F0
01F8
F8F8
F8F8
F87C
F87C
F87C
F87C
F878
F8F8
7FF8
7FF0
3FF0
0FC0
0000
0000
1F00
1F00
1F00
1F00
1F00
0700
0700
0700
0600
0600
ENDCHAR
STARTCHAR 0219
ENCODING 537
SWIDTH 576 0
DWIDTH 16 0
BBX 13 40 2 -12
BITMAP
1F80
7FE0
7FE0
FFF0
F9F0
F0F0
F0F0
F0F0
F8F0
F800
FC00
7E00
3F00
3F80
0FC0
07E0
03F0
01F0
F1F0
F0F8
F0F8
F0F8
F0F8
F9F8
FFF0
7FF0
3FE0
1F80
0000
0000
1F00
1F00
1F00
1F00
1F00
0700
0700
0700
0600
0600
ENDCHAR
STARTCHAR 021A
ENCODING 538
SWIDTH 468 0
DWIDTH 13 0
BBX 13 44 0 -12
BITMAP
FFF8
FFF8
FFF8
FFF8
0F80
0F80
0F80
0F80
0F80
0F80
0F80
0F80
0F80
0F80
0F80
0F80
0F80
0F80
0F80
0F80
0F80
0F80
0F80
0F80
0F80
0F80
0F80
0F80
0F80
0F80
0F80
0F80
0000
0000
1F00
1F00
1F00
1F00
1F00
0700
0700
0700
0600
0600
ENDCHAR
STARTCHAR 021B
ENCODING 539
SWIDTH 432 0
DWIDTH 12 0
BBX 10 44 1 -12
BITMAP
3E00
3E00
3E00
3E00
FFC0
FFC0
FFC0
FFC0
3E00
3E00
3E00
3E00
3E00
3E00
3E00
3E00
3E00
3E00
3E00
3E00
3E00
3E00
3E00
3E00
3E00
3E00
3E00
3E00
3FC0
3FC0
1FC0
0FC0
0000
0000
1F00
1F00
1F00
1F00
1F00
0700
0700
0700
0600
0600
ENDCHAR
STARTCHAR 0237
ENCODING 567
SWIDTH 396 0
DWIDTH 11 0
BBX 7 31 1 -3
BITMAP
3E
3E
3E
3E
3E
3E
3E
3E
3E
3E
3E
3E
3E
3E
3E
3E
3E
3E
3E
3E
3E
3E
3E
3E
3E
3E
3E
FE
FE
FC
F8
ENDCHAR
STARTCHAR 02C6
ENCODING 710
SWIDTH 648 0
DWIDTH 18 0
BBX 12 6 3 30
BITMAP
1F80
3FC0
3FC0
79E0
79E0
F9F0
ENDCHAR
STARTCHAR 02C7
ENCODING 711
SWIDTH 648 0
DWIDTH 18 0
BBX 12 6 3 30
BITMAP
F9F0
79E0
79E0
3FC0
3FC0
1F80
ENDCHAR
STARTCHAR 02C9
ENCODING 713
SWIDTH 468 0
DWIDTH 13 0
BBX 9 4 2 9
BITMAP
FF80
FF80
FF80
FF80
ENDCHAR
STARTCHAR 02D8
ENCODING 728
SWIDTH 684 0
DWIDTH 19 0
BBX 11 5 4 29
BITMAP
E0E0
F1C0
7FC0
7F80
1F00
ENDCHAR
STARTCHAR 02D9
ENCODING 729
SWIDTH 396 0
DWIDTH 11 0
BBX 5 4 3 17
BITMAP
F8
F8
F8
F8
ENDCHAR
STARTCHAR 02DA
ENCODING 730
SWIDTH 612 0
DWIDTH 17 0
BBX 9 8 4 17
BITMAP
3E00
7F00
E380
C180
C180
E380
7F00
3E00
ENDCHAR
STARTCHAR 02DB
ENCODING 731
SWIDTH 684 0
DWIDTH 19 0
BBX 8 12 7 -11
BITMAP
06
1C
38
70
F0
E0
E0
E0
F0
FF
7F
3F
ENDCHAR
STARTCHAR 02DC
ENCODING 732
SWIDTH 756 0
DWIDTH 21 0
BBX 13 5 4 17
BITMAP
3C38
7FF0
FFF0
63F0
00E0
ENDCHAR
STARTCHAR 02DD
ENCODING 733
SWIDTH 864 0
DWIDTH 24 0
BBX 14 9 6 18
BITMAP
1020
1C38
3E7C
3C78
38F0
78F0
71E0
61C0
E380
ENDCHAR
STARTCHAR 0307
ENCODING 775
SWIDTH 396 0
DWIDTH 11 0
BBX 7 5 2 18
BITMAP
FE
FE
FE
FE
FE
ENDCHAR
STARTCHAR 030F
ENCODING 783
SWIDTH 540 0
DWIDTH 15 0
BBX 13 8 0 31
BITMAP
3060
F1E0
79E0
78F0
3C70
1C78
0E38
0E18
ENDCHAR
STARTCHAR 0311
ENCODING 785
SWIDTH 684 0
DWIDTH 19 0
BBX 11 5 4 31
BITMAP
1F00
7F80
7FC0
F1C0
E0E0
ENDCHAR
STARTCHAR 0326
ENCODING 806
SWIDTH 360 0
DWIDTH 10 0
BBX 5 10 2 -9
BITMAP
F8
F8
F8
F8
F8
38
38
38
30
30
ENDCHAR
STARTCHAR 0394
ENCODING 916
SWIDTH 612 0
DWIDTH 17 0
BBX 15 25 1 0
BITMAP
0FE0
0FE0
0FE0
0FF0
1EF0
1EF0
1EF0
1EF0
1EF0
3C78
3C78
3C78
3C78
3C78
3C7C
7C7C
783C
783C
783C
783C
F83E
F83E
FFFE
FFFE
FFFE
ENDCHAR
STARTCHAR 03A9
ENCODING 937
SWIDTH 648 0
DWIDTH 18 0
BBX 17 30 1 0
BITMAP
07F000
1FF800
3FFE00
7FFE00
7E3F00
7C1F00
FC1F00
FC1F00
FC1F00
FC1F00
FC1F00
FC1F00
FC1F00
FC1F00
FC1F00
FC1F00
FC1F00
FC1F00
FC1F00
FC1F00
7C1F00
7C1F00
7C1E00
7C1E00
3C3C00
1E3C00
FE7F80
FE7F80
FE7F80
FE7F80
ENDCHAR
STARTCHAR 03BC
ENCODING 956
SWIDTH 684 0
DWIDTH 19 0
BBX 14 31 2 -3
BITMAP
F87C
F87C
F87C
F87C
F87C
F87C
F87C
F87C
F87C
F87C
F87C
F87C
F87C
F87C
F87C
F87C
F87C
F87C
F87C
F87C
F87C
F87C
F87C
FC7C
FFFC
FFFC
FFFC
FE7C
F800
F800
F800
ENDCHAR
STARTCHAR 03C0
ENCODING 960
SWIDTH 324 0
DWIDTH 9 0
BBX 0 0 0 0
BITMAP
ENDCHAR
STARTCHAR 1E02
ENCODING 7682
SWIDTH 648 0
DWIDTH 18 0
BBX 14 40 3 0
BITMAP
0F80
0F80
0F80
0F80
0000
0000
0000
0000
FFC0
FFF0
FFF0
FFF8
F8F8
F8F8
F8F8
F878
F878
F8F8
F8F8
F8F8
F8F8
FFF0
FFE0
FFF0
FFF8
F8F8
F87C
F87C
F87C
F87C
F87C
F87C
F87C
F87C
F87C
F8FC
FFF8
FFF8
FFF0
FFC0
ENDCHAR
STARTCHAR 1E03
ENCODING 7683
SWIDTH 648 0
DWIDTH 18 0
BBX 14 40 2 0
BITMAP
07C0
07C0
07C0
07C0
0000
0000
0000
F800
F800
F800
F800
F800
F9E0
FBF8
FFF8
FFFC
FC7C
FC7C
F87C
F87C
F87C
F87C
F87C
F87C
F87C
F87C
F87C
F87C
F87C
F87C
F87C
F87C
F87C
F87C
FC7C
FC7C
FFFC
FFF8
FBF8
F9E0
ENDCHAR
STARTCHAR 1E0A
ENCODING 7690
SWIDTH 684 0
DWIDTH 19 0
BBX 15 39 2 0
BITMAP
07C0
07C0
07C0
07C0
0000
0000
0000
FFE0
FFF0
FFF8
FFFC
F87C
F87C
F87E
F83E
F83E
F83E
F83E
F83E
F83E
F83E
F83E
F83E
F83E
F83E
F83E
F83E
F83E
F83E
F83E
F83E
F83E
F83C
F87C
F87C
FFFC
FFF8
FFF0
FFE0
ENDCHAR
STARTCHAR 1E0B
ENCODING 7691
SWIDTH 684 0
DWIDTH 19 0
BBX 14 40 2 0
BITMAP
07C0
07C0
07C0
07C0
0000
0000
0000
007C
007C
007C
007C
007C
1F7C
3FFC
7FFC
7FFC
FCFC
F87C
F87C
F87C
F87C
F87C
F87C
F87C
F87C
F87C
F87C
F87C
F87C
F87C
F87C
F87C
F87C
F87C
F87C
FCFC
7FFC
7FFC
3F7C
1E7C
ENDCHAR
STARTCHAR 1E1E
ENCODING 7710
SWIDTH 540 0
DWIDTH 15 0
BBX 12 40 2 0
BITMAP
0F80
0F80
0F80
0F80
0000
0000
0000
0000
FFF0
FFF0
FFF0
FFF0
F800
F800
F800
F800
F800
F800
F800
F800
F800
FFE0
FFE0
FFE0
FFE0
F800
F800
F800
F800
F800
F800
F800
F800
F800
F800
F800
F800
F800
F800
F800
ENDCHAR
STARTCHAR 1E1F
ENCODING 7711
SWIDTH 432 0
DWIDTH 12 0
BBX 10 40 1 0
BITMAP
07C0
07C0
07C0
07C0
0000
0000
0000
0FC0
1FC0
1FC0
3FC0
3E00
3E00
FFC0
FFC0
FFC0
FFC0
3E00
3E00
3E00
3E00
3E00
3E00
3E00
3E00
3E00
3E00
3E00
3E00
3E00
3E00
3E00
3E00
3E00
3E00
3E00
3E00
3E00
3E00
3E00
ENDCHAR
STARTCHAR 1E40
ENCODING 7744
SWIDTH 936 0
DWIDTH 26 0
BBX 22 39 2 0
BITMAP
007C00
007C00
007C00
007C00
000000
000000
000000
FE00FC
FE01FC
FE01FC
FE01FC
FF01FC
FF01FC
FF03FC
FF03FC
FF03FC
FF83FC
FF83BC
FF87BC
FF87BC
FB87BC
FB87FC
FBC77C
FBC77C
FBCF7C
F9CF7C
F9CF7C
F9EE7C
F9EE7C
F9FE7C
F8FE7C
F8FE7C
F8FC7C
F8FC7C
F8FC7C
F87C7C
F87C7C
F87C7C
F8787C
ENDCHAR
STARTCHAR 1E41
ENCODING 7745
SWIDTH 1008 0
DWIDTH 28 0
BBX 24 34 2 0
BITMAP
001F00
001F00
001F00
001F00
000000
000000
F9F0F8
FBF9FC
FBFFFE
FFFFFE
FC7E3E
FC7E1F
F83E1F
F83E1F
F83E1F
F83E1F
F83E1F
F83E1F
F83E1F
F83E1F
F83E1F
F83E1F
F83E1F
F83E1F
F83E1F
F83E1F
F83E1F
F83E1F
F83E1F
F83E1F
F83E1F
F83E1F
F83E1F
F83E1F
ENDCHAR
STARTCHAR 1E56
ENCODING 7766
SWIDTH 648 0
DWIDTH 18 0
BBX 15 39 2 0
BITMAP
07C0
07C0
07C0
07C0
0000
0000
0000
FFE0
FFF8
FFF8
FFFC
F87C
F87C
F87C
F83E
F83E
F83E
F83E
F83E
F87C
F87C
F87C
FFFC
FFF8
FFF8
FFE0
F800
F800
F800
F800
F800
F800
F800
F800
F800
F800
F800
F800
F800
ENDCHAR
STARTCHAR 1E57
ENCODING 7767
SWIDTH 684 0
DWIDTH 19 0
BBX 14 40 2 -5
BITMAP
01F0
01F0
01F0
01F0
0000
0000
0000
F9F0
FBF8
FFFC
FFFC
FC7C
FC7C
F87C
F87C
F83C
F83C
F83C
F83C
F83C
F83C
F83C
F83C
F83C
F83C
F83C
F87C
F87C
F87C
FC7C
FC7C
FFFC
FFF8
FBF8
F9E0
F800
F800
F800
F800
F800
ENDCHAR
STARTCHAR 1E60
ENCODING 7776
SWIDTH 612 0
DWIDTH 17 0
BBX 14 39 2 0
BITMAP
07C0
07C0
07C0
07C0
0000
0000
0000
1FC0
3FE0
7FF0
FFF0
F8F8
F8F8
F078
F078
F878
F878
FC00
7E00
7F00
3F80
3FC0
1FC0
0FE0
07F0
03F0
01F8
F8F8
F8F8
F87C
F87C
F87C
F87C
F878
F8F8
7FF8
7FF0
3FF0
0FC0
ENDCHAR
STARTCHAR 1E61
ENCODING 7777
SWIDTH 576 0
DWIDTH 16 0
BBX 13 34 2 0
BITMAP
0F80
0F80
0F80
0F80
0000
0000
1F80
7FE0
7FE0
FFF0
F9F0
F0F0
F0F0
F0F0
F8F0
F800
FC00
7E00
3F00
3F80
0FC0
07E0
03F0
01F0
F1F0
F0F8
F0F8
F0F8
F0F8
F9F8
FFF0
7FF0
3FE0
1F80
ENDCHAR
STARTCHAR 1E6A
ENCODING 7786
SWIDTH 468 0
DWIDTH 13 0
BBX 13 39 0 0
BITMAP
0F80
0F80
0F80
0F80
0000
0000
0000
FFF8
FFF8
FFF8
FFF8
0F80
0F80
0F80
0F80
0F80
0F80
0F80
0F80
0F80
0F80
0F80
0F80
0F80
0F80
0F80
0F80
0F80
0F80
0F80
0F80
0F80
0F80
0F80
0F80
0F80
0F80
0F80
0F80
ENDCHAR
STARTCHAR 1E6B
ENCODING 7787
SWIDTH 432 0
DWIDTH 12 0
BBX 10 39 1 0
BITMAP
3E00
3E00
3E00
3E00
0000
0000
0000
3E00
3E00
3E00
3E00
FFC0
FFC0
FFC0
FFC0
3E00
3E00
3E00
3E00
3E00
3E00
3E00
3E00
3E00
3E00
3E00
3E00
3E00
3E00
3E00
3E00
3E00
3E00
3E00
3E00
3FC0
3FC0
1FC0
0FC0
ENDCHAR
STARTCHAR 1E80
ENCODING 7808
SWIDTH 936 0
DWIDTH 26 0
BBX 24 42 1 0
BITMAP
010000
00C000
00F000
00FC00
00FF00
00FF00
000700
000000
000000
000000
F83C1F
F83C1E
F83C1E
783C1E
787E1E
787E1E
787E1E
787E3E
787E3E
7C7E3E
7C7E3C
3CFF3C
3CFF3C
3CFF3C
3CF73C
3CE73C
3CE73C
3CE73C
3CE778
1FE7F8
1FE7F8
1FE3F8
1FC3F8
1FC3F8
1FC3F8
1FC3F8
1FC3F8
0FC3F0
0FC3F0
0F81F0
0F81F0
0F81F0
ENDCHAR
STARTCHAR 1E81
ENCODING 7809
SWIDTH 828 0
DWIDTH 23 0
BBX 21 37 1 0
BITMAP
020000
018000
01E000
01F800
01FE00
01FE00
000E00
000000
000000
F0F878
F0F878
F0F878
F0F878
F0F878
78FC78
79FC78
79FCF0
79FCF0
79DCF0
79DCF0
79DEF0
79DEF0
3DCEF0
3FCEF0
3FCEE0
3F8EE0
3F8FE0
3F8FE0
3F8FE0
1F87E0
1F87E0
1F87E0
1F07C0
1F07C0
1F07C0
1F07C0
1F07C0
ENDCHAR
STARTCHAR 1E82
ENCODING 7810
SWIDTH 936 0
DWIDTH 26 0
BBX 24 42 1 0
BITMAP
000100
000F00
003F00
00FF00
00FF00
00F000
000000
000000
000000
000000
F83C1F
F83C1E
F83C1E
783C1E
787E1E
787E1E
787E1E
787E3E
787E3E
7C7E3E
7C7E3C
3CFF3C
3CFF3C
3CFF3C
3CF73C
3CE73C
3CE73C
3CE73C
3CE778
1FE7F8
1FE7F8
1FE3F8
1FC3F8
1FC3F8
1FC3F8
1FC3F8
1FC3F8
0FC3F0
0FC3F0
0F81F0
0F81F0
0F81F0
ENDCHAR
STARTCHAR 1E83
ENCODING 7811
SWIDTH 828 0
DWIDTH 23 0
BBX 21 37 1 0
BITMAP
000200
001E00
007E00
01FE00
01FE00
01E000
000000
000000
000000
F0F878
F0F878
F0F878
F0F878
F0F878
78FC78
79FC78
79FCF0
79FCF0
79DCF0
79DCF0
79DEF0
79DEF0
3DCEF0
3FCEF0
3FCEE0
3F8EE0
3F8FE0
3F8FE0
3F8FE0
1F87E0
1F87E0
1F87E0
1F07C0
1F07C0
1F07C0
1F07C0
1F07C0
ENDCHAR
STARTCHAR 1E84
ENCODING 7812
SWIDTH 936 0
DWIDTH 26 0
BBX 24 39 1 0
BITMAP
07C3E0
07C3E0
07C3E0
07C3E0
000000
000000
000000
F83C1F
F83C1E
F83C1E
783C1E
787E1E
787E1E
787E1E
787E3E
787E3E
7C7E3E
7C7E3C
3CFF3C
3CFF3C
3CFF3C
3CF73C
3CE73C
3CE73C
3CE73C
3CE778
1FE7F8
1FE7F8
1FE3F8
1FC3F8
1FC3F8
1FC3F8
1FC3F8
1FC3F8
0FC3F0
0FC3F0
0F81F0
0F81F0
0F81F0
ENDCHAR
STARTCHAR 1E85
ENCODING 7813
SWIDTH 828 0
DWIDTH 23 0
BBX 21 34 1 0
BITMAP
0F87C0
0F87C0
0F87C0
0F87C0
000000
000000
F0F878
F0F878
F0F878
F0F878
F0F878
78FC78
79FC78
79FCF0
79FCF0
79DCF0
79DCF0
79DEF0
79DEF0
3DCEF0
3FCEF0
3FCEE0
3F8EE0
3F8FE0
3F8FE0
3F8FE0
1F87E0
1F87E0
1F87E0
1F07C0
1F07C0
1F07C0
1F07C0
1F07C0
ENDCHAR
STARTCHAR 1EF2
ENCODING 7922
SWIDTH 576 0
DWIDTH 16 0
BBX 16 42 0 0
BITMAP
1000
0C00
0F00
0FC0
0FF0
0FF0
0070
0000
0000
0000
F81F
781E
7C3E
7C3E
7C3E
3C3C
3E3C
3E7C
1E7C
1E78
1F78
1FF8
0FF0
0FF0
0FF0
07F0
07E0
07E0
07E0
03E0
03E0
03E0
03E0
03E0
03E0
03E0
03E0
03E0
03E0
03E0
03E0
03E0
ENDCHAR
STARTCHAR 1EF3
ENCODING 7923
SWIDTH 576 0
DWIDTH 16 0
BBX 14 41 1 -4
BITMAP
2000
1800
1E00
1F80
1FE0
1FE0
00E0
0000
0000
F83C
F87C
F87C
F87C
787C
7878
7878
7878
7C78
7C78
3CF8
3CF0
3CF0
3CF0
3CF0
3CF0
1EF0
1EE0
1EE0
1EE0
1FE0
0FE0
0FE0
0FC0
0FC0
0FC0
0FC0
0FC0
7F80
7F80
7F80
7F00
ENDCHAR
STARTCHAR 2013
ENCODING 8211
SWIDTH 504 0
DWIDTH 14 0
BBX 10 4 2 9
BITMAP
FFC0
FFC0
FFC0
FFC0
ENDCHAR
STARTCHAR 2014
ENCODING 8212
SWIDTH 756 0
DWIDTH 21 0
BBX 19 4 1 9
BITMAP
FFFFE0
FFFFE0
FFFFE0
FFFFE0
ENDCHAR
STARTCHAR 2018
ENCODING 8216
SWIDTH 396 0
DWIDTH 11 0
BBX 7 13 2 20
BITMAP
1C
38
38
38
78
70
70
F0
FE
FE
FE
FE
FE
ENDCHAR
STARTCHAR 2019
ENCODING 8217
SWIDTH 396 0
DWIDTH 11 0
BBX 7 13 2 20
BITMAP
FE
FE
FE
FE
FE
1E
1C
1C
3C
38
38
38
78
ENDCHAR
STARTCHAR 201A
ENCODING 8218
SWIDTH 324 0
DWIDTH 9 0
BBX 7 11 1 -6
BITMAP
FE
FE
FE
FE
FE
1C
1C
3C
38
38
38
ENDCHAR
STARTCHAR 201C
ENCODING 8220
SWIDTH 684 0
DWIDTH 19 0
BBX 14 12 3 21
BITMAP
7838
7038
7038
7078
F070
F070
E0F0
FCFC
FCFC
FCFC
FCFC
FCFC
ENDCHAR
STARTCHAR 201D
ENCODING 8221
SWIDTH 720 0
DWIDTH 20 0
BBX 15 12 3 21
BITMAP
FC7E
FC7E
FC7E
FC7E
FC7E
3C1C
3C1C
381C
383C
7838
7038
7038
ENDCHAR
STARTCHAR 201E
ENCODING 8222
SWIDTH 684 0
DWIDTH 19 0
BBX 15 12 3 -7
BITMAP
FCFE
FCFE
FCFE
FCFE
FCFE
3C1C
381C
383C
383C
7838
7038
7078
ENDCHAR
STARTCHAR 2020
ENCODING 8224
SWIDTH 612 0
DWIDTH 17 0
BBX 13 29 2 0
BITMAP
0F80
0F80
0F80
0F80
0F80
0F80
0F80
FFF8
FFF8
FFF8
FFF8
0F80
0F80
0F80
0F80
0F80
0F80
0F80
0F80
0F80
0F80
0F80
0F80
0F80
0F80
0F80
0F80
0F80
0F80
ENDCHAR
STARTCHAR 2021
ENCODING 8225
SWIDTH 612 0
DWIDTH 17 0
BBX 13 29 2 0
BITMAP
0F80
0F80
0F80
0F80
0F80
0F80
0F80
FFF8
FFF8
FFF8
FFF8
0F80
0F80
0F80
0F80
0F80
0F80
FFF8
FFF8
FFF8
FFF8
0F80
0F80
0F80
0F80
0F80
0F80
0F80
0F80
ENDCHAR
STARTCHAR 2022
ENCODING 8226
SWIDTH 576 0
DWIDTH 16 0
BBX 10 11 3 8
BITMAP
1E00
7F80
7F80
FFC0
FFC0
FFC0
FFC0
FFC0
7F80
7F80
1E00
ENDCHAR
STARTCHAR 2030
ENCODING 8240
SWIDTH 2088 0
DWIDTH 58 0
BBX 53 32 2 0
BITMAP
0FC001E0000000
3FE003C0000000
7FF003C0000000
7FF00380000000
78F80780000000
F8780780000000
F8780F00000000
F8780F00000000
F8780E00000000
F8781E00000000
F8781E1FC00FC0
F8783C3FE03FF0
F8783C7FF03FF0
F878387FF07FF8
F87878F8F07878
787878F8F87878
78F8F0F0787878
7FF0F0F0787878
7FF0F0F0787878
3FE1E0F0787878
0FC1E0F0787878
0003C0F0787878
0003C0F0787878
0003C0F0787878
000780F0787878
000780F0787878
000F00F8F87878
000F0078F078F8
000F007FF07FF8
001E007FF03FF0
001E003FE01FE0
003C000F800FC0
ENDCHAR
STARTCHAR 2039
ENCODING 8249
SWIDTH 396 0
DWIDTH 11 0
BBX 9 15 1 6
BITMAP
0180
0380
0F80
3F80
FF80
FE00
F800
F000
FC00
FF00
3F80
1F80
0780
0180
0080
ENDCHAR
STARTCHAR 203A
ENCODING 8250
SWIDTH 468 0
DWIDTH 13 0
BBX 9 15 3 6
BITMAP
8000
E000
F800
FE00
FF80
3F80
0F80
0780
3F80
FF80
FE00
F800
F000
C000
8000
ENDCHAR
STARTCHAR 2044
ENCODING 8260
SWIDTH 540 0
DWIDTH 15 0
BBX 13 32 1 0
BITMAP
0078
00F0
00F0
00F0
00F0
01E0
01E0
01E0
03E0
03C0
03C0
03C0
0780
0780
0780
0780
0F00
0F00
0F00
1F00
1E00
1E00
1E00
3C00
3C00
3C00
3C00
7800
7800
7800
F800
F000
ENDCHAR
STARTCHAR 2074
ENCODING 8308
SWIDTH 576 0
DWIDTH 16 0
BBX 11 21 3 11
BITMAP
0F80
0F80
0F80
1F80
1F80
1F80
3B80
3B80
3B80
3380
7380
7380
7380
E380
E380
FFE0
FFE0
FFE0
0380
0380
0380
ENDCHAR
STARTCHAR 20AC
ENCODING 8364
SWIDTH 720 0
DWIDTH 20 0
BBX 16 32 0 0
BITMAP
03F0
0FFC
0FFE
1FFE
1F1F
3E1F
3E1F
3E1F
3E1F
3E1F
3E1F
FFDF
FFC0
FFC0
3E00
FFC0
FFC0
FFC0
3E1F
3E1F
3E1F
3E1F
3E1F
3E1F
3E1F
3E1F
3E1F
1F3F
1FFE
0FFE
07FC
03F0
ENDCHAR
STARTCHAR 2122
ENCODING 8482
SWIDTH 1116 0
DWIDTH 31 0
BBX 27 24 2 9
BITMAP
FF9F03E0
FF9F07E0
FF9F87E0
3C1F87E0
3C1F87E0
3C1F87E0
3C1F86E0
3C1D8EE0
3C1DCEE0
3C1DCEE0
3C1DCEE0
3C1DCEE0
3C1DCFE0
3C1CDDE0
3C1CFDE0
3C1CFDE0
3C1CFDE0
3C1CFDE0
3C1CFDE0
3C1C79E0
3C1C79E0
3C1C79E0
3C1C79E0
3C1C79E0
ENDCHAR
STARTCHAR 2202
ENCODING 8706
SWIDTH 720 0
DWIDTH 20 0
BBX 14 31 3 0
BITMAP
03C0
1FF0
0FF8
0FFC
003C
003C
003C
003C
003C
003C
003C
07BC
1FFC
3FF8
3EF8
3C78
7878
7878
78F8
78F8
78F0
F8F0
F8F0
F0F0
F0F0
F1F0
F1E0
FBE0
7FE0
7FC0
3F80
ENDCHAR
STARTCHAR 220F
ENCODING 8719
SWIDTH 684 0
DWIDTH 19 0
BBX 14 33 3 0
BITMAP
FFFC
FFFC
FFFC
FFFC
F07C
F07C
F07C
F07C
F07C
F07C
F07C
F07C
F07C
F07C
F07C
F07C
F07C
F07C
F07C
F07C
F07C
F07C
F07C
F07C
F07C
F07C
F07C
F07C
F07C
F07C
F07C
F07C
F07C
ENDCHAR
STARTCHAR 2211
ENCODING 8721
SWIDTH 540 0
DWIDTH 15 0
BBX 11 33 2 0
BITMAP
FFE0
FFE0
FFE0
FFE0
F800
7C00
7C00
7C00
3E00
3E00
1F00
1F00
0F00
0F80
0F80
07C0
07C0
07C0
0F80
0F80
0F00
1F00
1F00
3E00
3E00
3E00
7C00
7C00
F800
FFE0
FFE0
FFE0
FFE0
ENDCHAR
STARTCHAR 2212
ENCODING 8722
SWIDTH 432 0
DWIDTH 12 0
BBX 10 5 1 9
BITMAP
FFC0
FFC0
FFC0
FFC0
FFC0
ENDCHAR
STARTCHAR 2215
ENCODING 8725
SWIDTH 540 0
DWIDTH 15 0
BBX 13 33 1 0
BITMAP
0078
00F8
00F0
00F0
00F0
01E0
01E0
01E0
01E0
03C0
03C0
03C0
07C0
0780
0780
0780
0F80
0F00
0F00
0F00
1E00
1E00
1E00
1E00
3C00
3C00
3C00
7C00
7800
7800
7800
F800
F000
ENDCHAR
STARTCHAR 221A
ENCODING 8730
SWIDTH 864 0
DWIDTH 24 0
BBX 20 28 2 0
BITMAP
003FF0
003FF0
003FF0
003FF0
007C00
007C00
007C00
007C00
007800
00F800
00F800
00F800
00F800
00F000
F8F000
F9F000
F9F000
79F000
79E000
7DE000
7FE000
3FE000
3FC000
3FC000
3FC000
1FC000
1FC000
1F8000
ENDCHAR
STARTCHAR 221E
ENCODING 8734
SWIDTH 864 0
DWIDTH 24 0
BBX 20 11 2 8
BITMAP
3E0FC0
7F9FE0
FFFFE0
FFFFF0
F8F1F0
F0E0F0
FFFFF0
FFFFF0
7FFFE0
3F1FE0
0C0780
ENDCHAR
STARTCHAR 222B
ENCODING 8747
SWIDTH 504 0
DWIDTH 14 0
BBX 10 33 2 0
BITMAP
0FC0
1FC0
1FC0
1FC0
1F00
1E00
1E00
1E00
1E00
1E00
1E00
1E00
1E00
1E00
1E00
1E00
1E00
1E00
1E00
1E00
1E00
1E00
1E00
1E00
1E00
1E00
1E00
1E00
1E00
7E00
FE00
FE00
FC00
ENDCHAR
STARTCHAR 2248
ENCODING 8776
SWIDTH 756 0
DWIDTH 21 0
BBX 17 16 2 6
BITMAP
1E0700
3FCF80
7FFF00
7FFF00
FFFE00
70FC00
101800
000000
000000
1C0700
3F8780
7FFF00
7FFF00
FFFE00
71FE00
203C00
ENDCHAR
STARTCHAR 2260
ENCODING 8800
SWIDTH 576 0
DWIDTH 16 0
BBX 13 33 2 0
BITMAP
01E0
01E0
03E0
03E0
03E0
03C0
03C0
07C0
07C0
07C0
07C0
FFF8
FFF8
FFF8
FFF8
FFF8
0F00
0F00
FFF8
FFF8
FFF8
FFF8
FFF8
1E00
3E00
3E00
3E00
3C00
3C00
7C00
7C00
7C00
7800
ENDCHAR
STARTCHAR 2264
ENCODING 8804
SWIDTH 504 0
DWIDTH 14 0
BBX 10 24 2 0
BITMAP
0040
01C0
03C0
0FC0
1FC0
7F80
FE00
FC00
F000
E000
F800
FE00
7F00
3FC0
0FC0
07C0
01C0
00C0
0040
0000
0000
FFC0
FFC0
FFC0
ENDCHAR
STARTCHAR 2265
ENCODING 8805
SWIDTH 504 0
DWIDTH 14 0
BBX 11 24 2 0
BITMAP
8000
E000
F000
FC00
FF00
7F80
1FE0
07E0
03E0
01E0
07E0
1FE0
3FC0
FF00
FE00
F800
E000
C000
8000
0000
0000
FFC0
FFC0
FFC0
ENDCHAR
STARTCHAR 25CA
ENCODING 9674
SWIDTH 612 0
DWIDTH 17 0
BBX 15 27 1 0
BITMAP
0FE0
0FE0
1FF0
1FF0
1EF0
3EF8
3EF8
3C78
7C7C
7C7C
7C7C
F83E
F83E
F83E
F83E
F83E
783E
7C7C
7C7C
3C7C
3C78
3EF8
1EF8
1EF0
1FF0
0FF0
0FE0
ENDCHAR
STARTCHAR F8FF
ENCODING 63743
SWIDTH 216 0
DWIDTH 6 0
BBX 0 0 0 0
BITMAP
ENDCHAR
STARTCHAR FB00
ENCODING 64256
SWIDTH 864 0
DWIDTH 24 0
BBX 22 33 1 0
BITMAP
0FC0F8
1FC1FC
1FC3FC
3FC3FC
3E03E0
3E03E0
FFFFFC
FFFFFC
FFFFFC
FFFFFC
3E03E0
3E03E0
3E03E0
3E03E0
3E03E0
3E03E0
3E03E0
3E03E0
3E03E0
3E03E0
3E03E0
3E03E0
3E03E0
3E03E0
3E03E0
3E03E0
3E03E0
3E03E0
3E03E0
3E03E0
3E03E0
3E03E0
3E03E0
ENDCHAR
STARTCHAR FB01
ENCODING 64257
SWIDTH 792 0
DWIDTH 22 0
BBX 18 34 1 0
BITMAP
0F8000
1FC7C0
1FC7C0
3FC7C0
3E07C0
3E0000
FFFFC0
FFFFC0
FFFFC0
FFFFC0
3E07C0
3E07C0
3E07C0
3E07C0
3E07C0
3E07C0
3E07C0
3E07C0
3E07C0
3E07C0
3E07C0
3E07C0
3E07C0
3E07C0
3E07C0
3E07C0
3E07C0
3E07C0
3E07C0
3E07C0
3E07C0
3E07C0
3E07C0
3E07C0
ENDCHAR
STARTCHAR FB02
ENCODING 64258
SWIDTH 792 0
DWIDTH 22 0
BBX 18 33 1 0
BITMAP
0FFC00
1FFFC0
3FFFC0
3F07C0
3E07C0
3E07C0
FFC7C0
FFC7C0
FFC7C0
FFC7C0
3E07C0
3E07C0
3E07C0
3E07C0
3E07C0
3E07C0
3E07C0
3E07C0
3E07C0
3E07C0
3E07C0
3E07C0
3E07C0
3E07C0
3E07C0
3E07C0
3E07C0
3E07C0
3E07C0
3E07C0
3E07C0
3E07C0
3E07C0
ENDCHAR
STARTCHAR FB03
ENCODING 64259
SWIDTH 1224 0
DWIDTH 34 0
BBX 30 34 1 0
BITMAP
0FC0F800
1FC1FC7C
1FC3FC7C
3FC3FC7C
3E03E07C
3E03E000
FFFFFFFC
FFFFFFFC
FFFFFFFC
FFFFFFFC
3E03E07C
3E03E07C
3E03E07C
3E03E07C
3E03E07C
3E03E07C
3E03E07C
3E03E07C
3E03E07C
3E03E07C
3E03E07C
3E03E07C
3E03E07C
3E03E07C
3E03E07C
3E03E07C
3E03E07C
3E03E07C
3E03E07C
3E03E07C
3E03E07C
3E03E07C
3E03E07C
3E03E07C
ENDCHAR
STARTCHAR FB04
ENCODING 64260
SWIDTH 1224 0
DWIDTH 34 0
BBX 30 33 1 0
BITMAP
0FC0FFE0
1FC1FFFC
1FC3FFFC
3FC3E0FC
3E03E07C
3E03E07C
FFFFFC7C
FFFFFC7C
FFFFFC7C
FFFFFC7C
3E03E07C
3E03E07C
3E03E07C
3E03E07C
3E03E07C
3E03E07C
3E03E07C
3E03E07C
3E03E07C
3E03E07C
3E03E07C
3E03E07C
3E03E07C
3E03E07C
3E03E07C
3E03E07C
3E03E07C
3E03E07C
3E03E07C
3E03E07C
3E03E07C
3E03E07C
3E03E07C
ENDCHAR
ENDFONT
